<mxfile host="app.diagrams.net" agent="Mozilla/5.0 (Windows NT 10.0; Win64; x64) AppleWebKit/537.36 (KHTML, like Gecko) Chrome/140.0.0.0 Safari/537.36" version="28.2.5">
  <diagram name="Page-1" id="inQN42TZqX-c9eEg6Ay2">
    <mxGraphModel dx="3166" dy="1276" grid="1" gridSize="10" guides="1" tooltips="1" connect="1" arrows="1" fold="1" page="1" pageScale="1" pageWidth="850" pageHeight="1100" math="0" shadow="0">
      <root>
        <mxCell id="0" />
        <mxCell id="1" parent="0" />
        <mxCell id="dBCIzpXZYdIbkeNFcJJk-1" value="&lt;div style=&quot;text-wrap-mode: nowrap;&quot;&gt;&lt;font style=&quot;font-size: 19px;&quot;&gt;BAD DEBT ??&lt;/font&gt;&lt;/div&gt;&lt;span style=&quot;font-size: 22px; text-wrap-mode: nowrap;&quot;&gt;&lt;/span&gt;" style="rounded=1;whiteSpace=wrap;html=1;fillColor=#fff2cc;strokeColor=#d6b656;verticalAlign=middle;" parent="1" vertex="1">
          <mxGeometry x="80" y="80" width="170" height="45" as="geometry" />
        </mxCell>
        <mxCell id="Ft7cri6jm7fnDjUre7Sv-2" value="&lt;span style=&quot;color: rgb(0, 0, 0); font-size: 48px; font-style: normal; font-variant-ligatures: normal; font-variant-caps: normal; font-weight: 400; letter-spacing: normal; orphans: 2; text-align: center; text-indent: 0px; text-transform: none; widows: 2; word-spacing: 0px; -webkit-text-stroke-width: 0px; white-space: normal; background-color: rgb(236, 236, 236); text-decoration-thickness: initial; text-decoration-style: initial; text-decoration-color: initial; float: none; display: inline !important;&quot;&gt;&lt;font face=&quot;Helvetica&quot;&gt;KAMINO FINANCE&lt;/font&gt;&lt;/span&gt;" style="text;whiteSpace=wrap;html=1;fillColor=none;strokeColor=none;rounded=0;shadow=0;glass=0;" parent="1" vertex="1">
          <mxGeometry x="1060" y="63.75" width="430" height="65" as="geometry" />
        </mxCell>
        <mxCell id="JD0B_CTbyRRi6J4iVIu0-53" value="" style="group" parent="1" vertex="1" connectable="0">
          <mxGeometry x="11150" y="80" width="540" height="890" as="geometry" />
        </mxCell>
        <mxCell id="JD0B_CTbyRRi6J4iVIu0-1" value="&lt;span style=&quot;color: rgb(0, 0, 0); font-size: 48px; font-style: normal; font-variant-ligatures: normal; font-variant-caps: normal; font-weight: 400; letter-spacing: normal; orphans: 2; text-align: center; text-indent: 0px; text-transform: none; widows: 2; word-spacing: 0px; -webkit-text-stroke-width: 0px; white-space: normal; background-color: rgb(236, 236, 236); text-decoration-thickness: initial; text-decoration-style: initial; text-decoration-color: initial; float: none; display: inline !important;&quot;&gt;&lt;font face=&quot;Helvetica&quot;&gt;crvUSD&lt;/font&gt;&lt;/span&gt;" style="text;whiteSpace=wrap;html=1;fillColor=none;strokeColor=none;rounded=0;shadow=0;glass=0;" parent="JD0B_CTbyRRi6J4iVIu0-53" vertex="1">
          <mxGeometry x="120" width="170" height="65" as="geometry" />
        </mxCell>
        <mxCell id="JD0B_CTbyRRi6J4iVIu0-2" value="" style="shape=image;verticalLabelPosition=bottom;labelBackgroundColor=default;verticalAlign=top;aspect=fixed;imageAspect=0;editableCssRules=.*;image=data:image/svg+xml,PHN2ZyB4bWxuczp4bGluaz0iaHR0cDovL3d3dy53My5vcmcvMTk5OS94bGluayIgeG1sbnM9Imh0dHA6Ly93d3cudzMub3JnLzIwMDAvc3ZnIiB2aWV3Qm94PSItMyAtMyA0NjYgNjc1IiBoZWlnaHQ9IjY3NSIgd2lkdGg9IjQ2NiIgdmVyc2lvbj0iMS4xIj48ZGVmcy8+PGc+PHJlY3QgcG9pbnRlci1ldmVudHM9ImFsbCIgc3Ryb2tlPSJyZ2IoMCwgMCwgMCkiIGZpbGw9IiNiZmNhZmYiIHJ5PSI2IiByeD0iNiIgaGVpZ2h0PSI4MCIgd2lkdGg9IjQwIiB5PSI1MCIgeD0iMzAiLz48cmVjdCBwb2ludGVyLWV2ZW50cz0iYWxsIiBzdHJva2U9InJnYigwLCAwLCAwKSIgZmlsbD0iI2JmY2FmZiIgcnk9IjYiIHJ4PSI2IiBoZWlnaHQ9IjgwIiB3aWR0aD0iNDAiIHk9IjUwIiB4PSI3MCIvPjxyZWN0IHBvaW50ZXItZXZlbnRzPSJhbGwiIHN0cm9rZT0icmdiKDAsIDAsIDApIiBmaWxsPSIjYmZjYWZmIiByeT0iNiIgcng9IjYiIGhlaWdodD0iODAiIHdpZHRoPSI0MCIgeT0iNTAiIHg9IjExMCIvPjxyZWN0IHBvaW50ZXItZXZlbnRzPSJhbGwiIHN0cm9rZT0icmdiKDAsIDAsIDApIiBmaWxsPSIjYmZjYWZmIiByeT0iNiIgcng9IjYiIGhlaWdodD0iODAiIHdpZHRoPSI0MCIgeT0iNTAiIHg9IjE1MCIvPjxyZWN0IHBvaW50ZXItZXZlbnRzPSJhbGwiIHN0cm9rZT0icmdiKDAsIDAsIDApIiBmaWxsPSIjYmZjYWZmIiByeT0iNiIgcng9IjYiIGhlaWdodD0iODAiIHdpZHRoPSI0MCIgeT0iNTAiIHg9IjE5MCIvPjxyZWN0IHBvaW50ZXItZXZlbnRzPSJhbGwiIHN0cm9rZT0icmdiKDAsIDAsIDApIiBmaWxsPSIjYmZjYWZmIiByeT0iNiIgcng9IjYiIGhlaWdodD0iODAiIHdpZHRoPSI0MCIgeT0iNTAiIHg9IjIzMCIvPjxyZWN0IHBvaW50ZXItZXZlbnRzPSJhbGwiIHN0cm9rZT0icmdiKDAsIDAsIDApIiBmaWxsPSIjYmZjYWZmIiByeT0iNiIgcng9IjYiIGhlaWdodD0iODAiIHdpZHRoPSI0MCIgeT0iNTAiIHg9IjI3MCIvPjxyZWN0IHBvaW50ZXItZXZlbnRzPSJhbGwiIHN0cm9rZT0icmdiKDAsIDAsIDApIiBmaWxsPSIjYmZjYWZmIiByeT0iNiIgcng9IjYiIGhlaWdodD0iODAiIHdpZHRoPSI0MCIgeT0iNTAiIHg9IjMxMCIvPjxyZWN0IHBvaW50ZXItZXZlbnRzPSJhbGwiIHN0cm9rZT0icmdiKDAsIDAsIDApIiBmaWxsPSIjYmZjYWZmIiByeT0iNiIgcng9IjYiIGhlaWdodD0iODAiIHdpZHRoPSI0MCIgeT0iNTAiIHg9IjM1MCIvPjxyZWN0IHBvaW50ZXItZXZlbnRzPSJhbGwiIHN0cm9rZT0icmdiKDAsIDAsIDApIiBmaWxsPSIjYmZjYWZmIiByeT0iNiIgcng9IjYiIGhlaWdodD0iODAiIHdpZHRoPSI0MCIgeT0iNTAiIHg9IjM5MCIvPjxwYXRoIHBvaW50ZXItZXZlbnRzPSJzdHJva2UiIHN0cm9rZS1taXRlcmxpbWl0PSIxMCIgc3Ryb2tlPSJyZ2IoMCwgMCwgMCkiIGZpbGw9Im5vbmUiIGQ9Ik0gMTAgMTUwIEwgNDUwIDE1MCIvPjxwYXRoIHBvaW50ZXItZXZlbnRzPSJzdHJva2UiIHN0cm9rZS1taXRlcmxpbWl0PSIxMCIgc3Ryb2tlPSJyZ2IoMCwgMCwgMCkiIGZpbGw9Im5vbmUiIGQ9Ik0gMzAgMTYwIEwgMzAgMTQwIi8+PHBhdGggcG9pbnRlci1ldmVudHM9InN0cm9rZSIgc3Ryb2tlLW1pdGVybGltaXQ9IjEwIiBzdHJva2U9InJnYigwLCAwLCAwKSIgZmlsbD0ibm9uZSIgZD0iTSA3MCAxNjAgTCA3MCAxNDAiLz48cGF0aCBwb2ludGVyLWV2ZW50cz0ic3Ryb2tlIiBzdHJva2UtbWl0ZXJsaW1pdD0iMTAiIHN0cm9rZT0icmdiKDAsIDAsIDApIiBmaWxsPSJub25lIiBkPSJNIDEwOS42NyAxNjAgTCAxMDkuNjcgMTQwIi8+PHBhdGggcG9pbnRlci1ldmVudHM9InN0cm9rZSIgc3Ryb2tlLW1pdGVybGltaXQ9IjEwIiBzdHJva2U9InJnYigwLCAwLCAwKSIgZmlsbD0ibm9uZSIgZD0iTSAxNTAgMTYwIEwgMTUwIDE0MCIvPjxwYXRoIHBvaW50ZXItZXZlbnRzPSJzdHJva2UiIHN0cm9rZS1taXRlcmxpbWl0PSIxMCIgc3Ryb2tlPSJyZ2IoMCwgMCwgMCkiIGZpbGw9Im5vbmUiIGQ9Ik0gMTg5LjY3IDE2MCBMIDE4OS42NyAxNDAiLz48cGF0aCBwb2ludGVyLWV2ZW50cz0ic3Ryb2tlIiBzdHJva2UtbWl0ZXJsaW1pdD0iMTAiIHN0cm9rZT0icmdiKDAsIDAsIDApIiBmaWxsPSJub25lIiBkPSJNIDIzMCAxNjAgTCAyMzAgMTQwIi8+PHBhdGggcG9pbnRlci1ldmVudHM9InN0cm9rZSIgc3Ryb2tlLW1pdGVybGltaXQ9IjEwIiBzdHJva2U9InJnYigwLCAwLCAwKSIgZmlsbD0ibm9uZSIgZD0iTSAyNjkuNjcgMTYwIEwgMjY5LjY3IDE0MCIvPjxwYXRoIHBvaW50ZXItZXZlbnRzPSJzdHJva2UiIHN0cm9rZS1taXRlcmxpbWl0PSIxMCIgc3Ryb2tlPSJyZ2IoMCwgMCwgMCkiIGZpbGw9Im5vbmUiIGQ9Ik0gMzEwIDE2MCBMIDMxMCAxNDAiLz48cGF0aCBwb2ludGVyLWV2ZW50cz0ic3Ryb2tlIiBzdHJva2UtbWl0ZXJsaW1pdD0iMTAiIHN0cm9rZT0icmdiKDAsIDAsIDApIiBmaWxsPSJub25lIiBkPSJNIDM0OS42NyAxNjAgTCAzNDkuNjcgMTQwIi8+PHBhdGggcG9pbnRlci1ldmVudHM9InN0cm9rZSIgc3Ryb2tlLW1pdGVybGltaXQ9IjEwIiBzdHJva2U9InJnYigwLCAwLCAwKSIgZmlsbD0ibm9uZSIgZD0iTSAzOTAgMTYwIEwgMzkwIDE0MCIvPjxwYXRoIHBvaW50ZXItZXZlbnRzPSJzdHJva2UiIHN0cm9rZS1taXRlcmxpbWl0PSIxMCIgc3Ryb2tlPSJyZ2IoMCwgMCwgMCkiIGZpbGw9Im5vbmUiIGQ9Ik0gNDMwIDE2MCBMIDQzMCAxNDAiLz48cmVjdCBwb2ludGVyLWV2ZW50cz0iYWxsIiBzdHJva2U9Im5vbmUiIGZpbGw9Im5vbmUiIGhlaWdodD0iMzAiIHdpZHRoPSI2MCIgeT0iMTYwIiB4PSIwIi8+PGcgdHJhbnNmb3JtPSJ0cmFuc2xhdGUoLTAuNSAtMC41KSI+PHN3aXRjaD48Zm9yZWlnbk9iamVjdCBzdHlsZT0ib3ZlcmZsb3c6IHZpc2libGU7IHRleHQtYWxpZ246IGxlZnQ7IiByZXF1aXJlZEZlYXR1cmVzPSJodHRwOi8vd3d3LnczLm9yZy9UUi9TVkcxMS9mZWF0dXJlI0V4dGVuc2liaWxpdHkiIGhlaWdodD0iMTAwJSIgd2lkdGg9IjEwMCUiIHBvaW50ZXItZXZlbnRzPSJub25lIj48ZGl2IHhtbG5zPSJodHRwOi8vd3d3LnczLm9yZy8xOTk5L3hodG1sIiBzdHlsZT0iZGlzcGxheTogZmxleDsgYWxpZ24taXRlbXM6IHVuc2FmZSBjZW50ZXI7IGp1c3RpZnktY29udGVudDogdW5zYWZlIGNlbnRlcjsgd2lkdGg6IDU4cHg7IGhlaWdodDogMXB4OyBwYWRkaW5nLXRvcDogMTc1cHg7IG1hcmdpbi1sZWZ0OiAxcHg7Ij48ZGl2IHN0eWxlPSJib3gtc2l6aW5nOiBib3JkZXItYm94OyBmb250LXNpemU6IDBweDsgdGV4dC1hbGlnbjogY2VudGVyOyIgZGF0YS1kcmF3aW8tY29sb3JzPSJjb2xvcjogcmdiKDAsIDAsIDApOyI+PGRpdiBzdHlsZT0iZGlzcGxheTogaW5saW5lLWJsb2NrOyBmb250LXNpemU6IDEycHg7IGZvbnQtZmFtaWx5OiBIZWx2ZXRpY2E7IGNvbG9yOiByZ2IoMCwgMCwgMCk7IGxpbmUtaGVpZ2h0OiAxLjI7IHBvaW50ZXItZXZlbnRzOiBhbGw7IHdoaXRlLXNwYWNlOiBub3JtYWw7IG92ZXJmbG93LXdyYXA6IG5vcm1hbDsiPiQyLDAwMDwvZGl2PjwvZGl2PjwvZGl2PjwvZm9yZWlnbk9iamVjdD48dGV4dCB0ZXh0LWFuY2hvcj0ibWlkZGxlIiBmb250LXNpemU9IjEycHgiIGZvbnQtZmFtaWx5PSJIZWx2ZXRpY2EiIGZpbGw9InJnYigwLCAwLCAwKSIgeT0iMTc5IiB4PSIzMCI+JDIsMDAwPC90ZXh0Pjwvc3dpdGNoPjwvZz48cmVjdCBwb2ludGVyLWV2ZW50cz0iYWxsIiBzdHJva2U9Im5vbmUiIGZpbGw9Im5vbmUiIGhlaWdodD0iMzAiIHdpZHRoPSI2MCIgeT0iMTYwIiB4PSI0MDAiLz48ZyB0cmFuc2Zvcm09InRyYW5zbGF0ZSgtMC41IC0wLjUpIj48c3dpdGNoPjxmb3JlaWduT2JqZWN0IHN0eWxlPSJvdmVyZmxvdzogdmlzaWJsZTsgdGV4dC1hbGlnbjogbGVmdDsiIHJlcXVpcmVkRmVhdHVyZXM9Imh0dHA6Ly93d3cudzMub3JnL1RSL1NWRzExL2ZlYXR1cmUjRXh0ZW5zaWJpbGl0eSIgaGVpZ2h0PSIxMDAlIiB3aWR0aD0iMTAwJSIgcG9pbnRlci1ldmVudHM9Im5vbmUiPjxkaXYgeG1sbnM9Imh0dHA6Ly93d3cudzMub3JnLzE5OTkveGh0bWwiIHN0eWxlPSJkaXNwbGF5OiBmbGV4OyBhbGlnbi1pdGVtczogdW5zYWZlIGNlbnRlcjsganVzdGlmeS1jb250ZW50OiB1bnNhZmUgY2VudGVyOyB3aWR0aDogNThweDsgaGVpZ2h0OiAxcHg7IHBhZGRpbmctdG9wOiAxNzVweDsgbWFyZ2luLWxlZnQ6IDQwMXB4OyI+PGRpdiBzdHlsZT0iYm94LXNpemluZzogYm9yZGVyLWJveDsgZm9udC1zaXplOiAwcHg7IHRleHQtYWxpZ246IGNlbnRlcjsiIGRhdGEtZHJhd2lvLWNvbG9ycz0iY29sb3I6IHJnYigwLCAwLCAwKTsiPjxkaXYgc3R5bGU9ImRpc3BsYXk6IGlubGluZS1ibG9jazsgZm9udC1zaXplOiAxMnB4OyBmb250LWZhbWlseTogSGVsdmV0aWNhOyBjb2xvcjogcmdiKDAsIDAsIDApOyBsaW5lLWhlaWdodDogMS4yOyBwb2ludGVyLWV2ZW50czogYWxsOyB3aGl0ZS1zcGFjZTogbm9ybWFsOyBvdmVyZmxvdy13cmFwOiBub3JtYWw7Ij4kMywwMDA8L2Rpdj48L2Rpdj48L2Rpdj48L2ZvcmVpZ25PYmplY3Q+PHRleHQgdGV4dC1hbmNob3I9Im1pZGRsZSIgZm9udC1zaXplPSIxMnB4IiBmb250LWZhbWlseT0iSGVsdmV0aWNhIiBmaWxsPSJyZ2IoMCwgMCwgMCkiIHk9IjE3OSIgeD0iNDMwIj4kMywwMDA8L3RleHQ+PC9zd2l0Y2g+PC9nPjxyZWN0IHBvaW50ZXItZXZlbnRzPSJhbGwiIHN0cm9rZT0ibm9uZSIgZmlsbD0ibm9uZSIgaGVpZ2h0PSIzMCIgd2lkdGg9IjYwIiB5PSIxNjAiIHg9IjIwMCIvPjxnIHRyYW5zZm9ybT0idHJhbnNsYXRlKC0wLjUgLTAuNSkiPjxzd2l0Y2g+PGZvcmVpZ25PYmplY3Qgc3R5bGU9Im92ZXJmbG93OiB2aXNpYmxlOyB0ZXh0LWFsaWduOiBsZWZ0OyIgcmVxdWlyZWRGZWF0dXJlcz0iaHR0cDovL3d3dy53My5vcmcvVFIvU1ZHMTEvZmVhdHVyZSNFeHRlbnNpYmlsaXR5IiBoZWlnaHQ9IjEwMCUiIHdpZHRoPSIxMDAlIiBwb2ludGVyLWV2ZW50cz0ibm9uZSI+PGRpdiB4bWxucz0iaHR0cDovL3d3dy53My5vcmcvMTk5OS94aHRtbCIgc3R5bGU9ImRpc3BsYXk6IGZsZXg7IGFsaWduLWl0ZW1zOiB1bnNhZmUgY2VudGVyOyBqdXN0aWZ5LWNvbnRlbnQ6IHVuc2FmZSBjZW50ZXI7IHdpZHRoOiA1OHB4OyBoZWlnaHQ6IDFweDsgcGFkZGluZy10b3A6IDE3NXB4OyBtYXJnaW4tbGVmdDogMjAxcHg7Ij48ZGl2IHN0eWxlPSJib3gtc2l6aW5nOiBib3JkZXItYm94OyBmb250LXNpemU6IDBweDsgdGV4dC1hbGlnbjogY2VudGVyOyIgZGF0YS1kcmF3aW8tY29sb3JzPSJjb2xvcjogcmdiKDAsIDAsIDApOyI+PGRpdiBzdHlsZT0iZGlzcGxheTogaW5saW5lLWJsb2NrOyBmb250LXNpemU6IDEycHg7IGZvbnQtZmFtaWx5OiBIZWx2ZXRpY2E7IGNvbG9yOiByZ2IoMCwgMCwgMCk7IGxpbmUtaGVpZ2h0OiAxLjI7IHBvaW50ZXItZXZlbnRzOiBhbGw7IHdoaXRlLXNwYWNlOiBub3JtYWw7IG92ZXJmbG93LXdyYXA6IG5vcm1hbDsiPiQyLDUwMDwvZGl2PjwvZGl2PjwvZGl2PjwvZm9yZWlnbk9iamVjdD48dGV4dCB0ZXh0LWFuY2hvcj0ibWlkZGxlIiBmb250LXNpemU9IjEycHgiIGZvbnQtZmFtaWx5PSJIZWx2ZXRpY2EiIGZpbGw9InJnYigwLCAwLCAwKSIgeT0iMTc5IiB4PSIyMzAiPiQyLDUwMDwvdGV4dD48L3N3aXRjaD48L2c+PHJlY3QgcG9pbnRlci1ldmVudHM9ImFsbCIgc3Ryb2tlPSIjMDAwMDAwIiBmaWxsPSIjYmZjYWZmIiByeT0iNiIgcng9IjYiIGhlaWdodD0iODAiIHdpZHRoPSI0MCIgeT0iMjkwIiB4PSIzMCIvPjxyZWN0IHBvaW50ZXItZXZlbnRzPSJhbGwiIHN0cm9rZT0iIzAwMDAwMCIgZmlsbD0iI2JmY2FmZiIgcnk9IjYiIHJ4PSI2IiBoZWlnaHQ9IjgwIiB3aWR0aD0iNDAiIHk9IjI5MCIgeD0iNzAiLz48cmVjdCBwb2ludGVyLWV2ZW50cz0iYWxsIiBzdHJva2U9InJnYigwLCAwLCAwKSIgZmlsbD0iI2E5ZGJiNyIgcnk9IjYiIHJ4PSI2IiBoZWlnaHQ9IjgwIiB3aWR0aD0iNDAiIHk9IjI5MCIgeD0iMjcwIi8+PHJlY3QgcG9pbnRlci1ldmVudHM9ImFsbCIgc3Ryb2tlPSJyZ2IoMCwgMCwgMCkiIGZpbGw9IiNhOWRiYjciIHJ5PSI2IiByeD0iNiIgaGVpZ2h0PSI4MCIgd2lkdGg9IjQwIiB5PSIyOTAiIHg9IjE1MCIvPjxyZWN0IHBvaW50ZXItZXZlbnRzPSJhbGwiIHN0cm9rZT0icmdiKDAsIDAsIDApIiBmaWxsPSIjYTlkYmI3IiByeT0iNiIgcng9IjYiIGhlaWdodD0iODAiIHdpZHRoPSI0MCIgeT0iMjkwIiB4PSIxOTAiLz48cmVjdCBwb2ludGVyLWV2ZW50cz0iYWxsIiBzdHJva2U9InJnYigwLCAwLCAwKSIgZmlsbD0iI2E5ZGJiNyIgcnk9IjYiIHJ4PSI2IiBoZWlnaHQ9IjgwIiB3aWR0aD0iNDAiIHk9IjI5MCIgeD0iMjMwIi8+PHJlY3QgcG9pbnRlci1ldmVudHM9ImFsbCIgc3Ryb2tlPSIjMDAwMDAwIiBmaWxsPSIjYTlkYmI3IiByeT0iNiIgcng9IjYiIGhlaWdodD0iODAiIHdpZHRoPSI0MCIgeT0iMjkwIiB4PSIzMTAiLz48cmVjdCBwb2ludGVyLWV2ZW50cz0iYWxsIiBzdHJva2U9IiMwMDAwMDAiIGZpbGw9IiNhOWRiYjciIHJ5PSI2IiByeD0iNiIgaGVpZ2h0PSI4MCIgd2lkdGg9IjQwIiB5PSIyOTAiIHg9IjM1MCIvPjxyZWN0IHBvaW50ZXItZXZlbnRzPSJhbGwiIHN0cm9rZT0iIzAwMDAwMCIgZmlsbD0iI2E5ZGJiNyIgcnk9IjYiIHJ4PSI2IiBoZWlnaHQ9IjgwIiB3aWR0aD0iNDAiIHk9IjI5MCIgeD0iMzkwIi8+PHBhdGggcG9pbnRlci1ldmVudHM9InN0cm9rZSIgc3Ryb2tlLW1pdGVybGltaXQ9IjEwIiBzdHJva2U9InJnYigwLCAwLCAwKSIgZmlsbD0ibm9uZSIgZD0iTSAxMCAzOTAgTCA0NTAgMzkwIi8+PHBhdGggcG9pbnRlci1ldmVudHM9InN0cm9rZSIgc3Ryb2tlLW1pdGVybGltaXQ9IjEwIiBzdHJva2U9InJnYigwLCAwLCAwKSIgZmlsbD0ibm9uZSIgZD0iTSAzMCA0MDAgTCAzMCAzODAiLz48cGF0aCBwb2ludGVyLWV2ZW50cz0ic3Ryb2tlIiBzdHJva2UtbWl0ZXJsaW1pdD0iMTAiIHN0cm9rZT0icmdiKDAsIDAsIDApIiBmaWxsPSJub25lIiBkPSJNIDcwIDQwMCBMIDcwIDM4MCIvPjxwYXRoIHBvaW50ZXItZXZlbnRzPSJzdHJva2UiIHN0cm9rZS1taXRlcmxpbWl0PSIxMCIgc3Ryb2tlPSJyZ2IoMCwgMCwgMCkiIGZpbGw9Im5vbmUiIGQ9Ik0gMTA5LjY3IDQwMCBMIDEwOS42NyAzODAiLz48cGF0aCBwb2ludGVyLWV2ZW50cz0ic3Ryb2tlIiBzdHJva2UtbWl0ZXJsaW1pdD0iMTAiIHN0cm9rZT0icmdiKDAsIDAsIDApIiBmaWxsPSJub25lIiBkPSJNIDE1MCA0MDAgTCAxNTAgMzgwIi8+PHBhdGggcG9pbnRlci1ldmVudHM9InN0cm9rZSIgc3Ryb2tlLW1pdGVybGltaXQ9IjEwIiBzdHJva2U9InJnYigwLCAwLCAwKSIgZmlsbD0ibm9uZSIgZD0iTSAxODkuNjcgNDAwIEwgMTg5LjY3IDM4MCIvPjxwYXRoIHBvaW50ZXItZXZlbnRzPSJzdHJva2UiIHN0cm9rZS1taXRlcmxpbWl0PSIxMCIgc3Ryb2tlPSJyZ2IoMCwgMCwgMCkiIGZpbGw9Im5vbmUiIGQ9Ik0gMjMwIDQwMCBMIDIzMCAzODAiLz48cGF0aCBwb2ludGVyLWV2ZW50cz0ic3Ryb2tlIiBzdHJva2UtbWl0ZXJsaW1pdD0iMTAiIHN0cm9rZT0icmdiKDAsIDAsIDApIiBmaWxsPSJub25lIiBkPSJNIDI2OS42NyA0MDAgTCAyNjkuNjcgMzgwIi8+PHBhdGggcG9pbnRlci1ldmVudHM9InN0cm9rZSIgc3Ryb2tlLW1pdGVybGltaXQ9IjEwIiBzdHJva2U9InJnYigwLCAwLCAwKSIgZmlsbD0ibm9uZSIgZD0iTSAzMTAgNDAwIEwgMzEwIDM4MCIvPjxwYXRoIHBvaW50ZXItZXZlbnRzPSJzdHJva2UiIHN0cm9rZS1taXRlcmxpbWl0PSIxMCIgc3Ryb2tlPSJyZ2IoMCwgMCwgMCkiIGZpbGw9Im5vbmUiIGQ9Ik0gMzQ5LjY3IDQwMCBMIDM0OS42NyAzODAiLz48cGF0aCBwb2ludGVyLWV2ZW50cz0ic3Ryb2tlIiBzdHJva2UtbWl0ZXJsaW1pdD0iMTAiIHN0cm9rZT0icmdiKDAsIDAsIDApIiBmaWxsPSJub25lIiBkPSJNIDM5MCA0MDAgTCAzOTAgMzgwIi8+PHBhdGggcG9pbnRlci1ldmVudHM9InN0cm9rZSIgc3Ryb2tlLW1pdGVybGltaXQ9IjEwIiBzdHJva2U9InJnYigwLCAwLCAwKSIgZmlsbD0ibm9uZSIgZD0iTSA0MzAgNDAwIEwgNDMwIDM4MCIvPjxyZWN0IHBvaW50ZXItZXZlbnRzPSJhbGwiIHN0cm9rZT0ibm9uZSIgZmlsbD0ibm9uZSIgaGVpZ2h0PSIzMCIgd2lkdGg9IjYwIiB5PSI0MDAiIHg9IjAiLz48ZyB0cmFuc2Zvcm09InRyYW5zbGF0ZSgtMC41IC0wLjUpIj48c3dpdGNoPjxmb3JlaWduT2JqZWN0IHN0eWxlPSJvdmVyZmxvdzogdmlzaWJsZTsgdGV4dC1hbGlnbjogbGVmdDsiIHJlcXVpcmVkRmVhdHVyZXM9Imh0dHA6Ly93d3cudzMub3JnL1RSL1NWRzExL2ZlYXR1cmUjRXh0ZW5zaWJpbGl0eSIgaGVpZ2h0PSIxMDAlIiB3aWR0aD0iMTAwJSIgcG9pbnRlci1ldmVudHM9Im5vbmUiPjxkaXYgeG1sbnM9Imh0dHA6Ly93d3cudzMub3JnLzE5OTkveGh0bWwiIHN0eWxlPSJkaXNwbGF5OiBmbGV4OyBhbGlnbi1pdGVtczogdW5zYWZlIGNlbnRlcjsganVzdGlmeS1jb250ZW50OiB1bnNhZmUgY2VudGVyOyB3aWR0aDogNThweDsgaGVpZ2h0OiAxcHg7IHBhZGRpbmctdG9wOiA0MTVweDsgbWFyZ2luLWxlZnQ6IDFweDsiPjxkaXYgc3R5bGU9ImJveC1zaXppbmc6IGJvcmRlci1ib3g7IGZvbnQtc2l6ZTogMHB4OyB0ZXh0LWFsaWduOiBjZW50ZXI7IiBkYXRhLWRyYXdpby1jb2xvcnM9ImNvbG9yOiByZ2IoMCwgMCwgMCk7Ij48ZGl2IHN0eWxlPSJkaXNwbGF5OiBpbmxpbmUtYmxvY2s7IGZvbnQtc2l6ZTogMTJweDsgZm9udC1mYW1pbHk6IEhlbHZldGljYTsgY29sb3I6IHJnYigwLCAwLCAwKTsgbGluZS1oZWlnaHQ6IDEuMjsgcG9pbnRlci1ldmVudHM6IGFsbDsgd2hpdGUtc3BhY2U6IG5vcm1hbDsgb3ZlcmZsb3ctd3JhcDogbm9ybWFsOyI+JDIsMDAwPC9kaXY+PC9kaXY+PC9kaXY+PC9mb3JlaWduT2JqZWN0Pjx0ZXh0IHRleHQtYW5jaG9yPSJtaWRkbGUiIGZvbnQtc2l6ZT0iMTJweCIgZm9udC1mYW1pbHk9IkhlbHZldGljYSIgZmlsbD0icmdiKDAsIDAsIDApIiB5PSI0MTkiIHg9IjMwIj4kMiwwMDA8L3RleHQ+PC9zd2l0Y2g+PC9nPjxyZWN0IHBvaW50ZXItZXZlbnRzPSJhbGwiIHN0cm9rZT0ibm9uZSIgZmlsbD0ibm9uZSIgaGVpZ2h0PSIzMCIgd2lkdGg9IjYwIiB5PSI0MDAiIHg9IjQwMCIvPjxnIHRyYW5zZm9ybT0idHJhbnNsYXRlKC0wLjUgLTAuNSkiPjxzd2l0Y2g+PGZvcmVpZ25PYmplY3Qgc3R5bGU9Im92ZXJmbG93OiB2aXNpYmxlOyB0ZXh0LWFsaWduOiBsZWZ0OyIgcmVxdWlyZWRGZWF0dXJlcz0iaHR0cDovL3d3dy53My5vcmcvVFIvU1ZHMTEvZmVhdHVyZSNFeHRlbnNpYmlsaXR5IiBoZWlnaHQ9IjEwMCUiIHdpZHRoPSIxMDAlIiBwb2ludGVyLWV2ZW50cz0ibm9uZSI+PGRpdiB4bWxucz0iaHR0cDovL3d3dy53My5vcmcvMTk5OS94aHRtbCIgc3R5bGU9ImRpc3BsYXk6IGZsZXg7IGFsaWduLWl0ZW1zOiB1bnNhZmUgY2VudGVyOyBqdXN0aWZ5LWNvbnRlbnQ6IHVuc2FmZSBjZW50ZXI7IHdpZHRoOiA1OHB4OyBoZWlnaHQ6IDFweDsgcGFkZGluZy10b3A6IDQxNXB4OyBtYXJnaW4tbGVmdDogNDAxcHg7Ij48ZGl2IHN0eWxlPSJib3gtc2l6aW5nOiBib3JkZXItYm94OyBmb250LXNpemU6IDBweDsgdGV4dC1hbGlnbjogY2VudGVyOyIgZGF0YS1kcmF3aW8tY29sb3JzPSJjb2xvcjogcmdiKDAsIDAsIDApOyI+PGRpdiBzdHlsZT0iZGlzcGxheTogaW5saW5lLWJsb2NrOyBmb250LXNpemU6IDEycHg7IGZvbnQtZmFtaWx5OiBIZWx2ZXRpY2E7IGNvbG9yOiByZ2IoMCwgMCwgMCk7IGxpbmUtaGVpZ2h0OiAxLjI7IHBvaW50ZXItZXZlbnRzOiBhbGw7IHdoaXRlLXNwYWNlOiBub3JtYWw7IG92ZXJmbG93LXdyYXA6IG5vcm1hbDsiPiQzLDAwMDwvZGl2PjwvZGl2PjwvZGl2PjwvZm9yZWlnbk9iamVjdD48dGV4dCB0ZXh0LWFuY2hvcj0ibWlkZGxlIiBmb250LXNpemU9IjEycHgiIGZvbnQtZmFtaWx5PSJIZWx2ZXRpY2EiIGZpbGw9InJnYigwLCAwLCAwKSIgeT0iNDE5IiB4PSI0MzAiPiQzLDAwMDwvdGV4dD48L3N3aXRjaD48L2c+PHJlY3QgcG9pbnRlci1ldmVudHM9ImFsbCIgc3Ryb2tlPSJub25lIiBmaWxsPSJub25lIiBoZWlnaHQ9IjMwIiB3aWR0aD0iNjAiIHk9IjQwMCIgeD0iMjAwIi8+PGcgdHJhbnNmb3JtPSJ0cmFuc2xhdGUoLTAuNSAtMC41KSI+PHN3aXRjaD48Zm9yZWlnbk9iamVjdCBzdHlsZT0ib3ZlcmZsb3c6IHZpc2libGU7IHRleHQtYWxpZ246IGxlZnQ7IiByZXF1aXJlZEZlYXR1cmVzPSJodHRwOi8vd3d3LnczLm9yZy9UUi9TVkcxMS9mZWF0dXJlI0V4dGVuc2liaWxpdHkiIGhlaWdodD0iMTAwJSIgd2lkdGg9IjEwMCUiIHBvaW50ZXItZXZlbnRzPSJub25lIj48ZGl2IHhtbG5zPSJodHRwOi8vd3d3LnczLm9yZy8xOTk5L3hodG1sIiBzdHlsZT0iZGlzcGxheTogZmxleDsgYWxpZ24taXRlbXM6IHVuc2FmZSBjZW50ZXI7IGp1c3RpZnktY29udGVudDogdW5zYWZlIGNlbnRlcjsgd2lkdGg6IDU4cHg7IGhlaWdodDogMXB4OyBwYWRkaW5nLXRvcDogNDE1cHg7IG1hcmdpbi1sZWZ0OiAyMDFweDsiPjxkaXYgc3R5bGU9ImJveC1zaXppbmc6IGJvcmRlci1ib3g7IGZvbnQtc2l6ZTogMHB4OyB0ZXh0LWFsaWduOiBjZW50ZXI7IiBkYXRhLWRyYXdpby1jb2xvcnM9ImNvbG9yOiByZ2IoMCwgMCwgMCk7Ij48ZGl2IHN0eWxlPSJkaXNwbGF5OiBpbmxpbmUtYmxvY2s7IGZvbnQtc2l6ZTogMTJweDsgZm9udC1mYW1pbHk6IEhlbHZldGljYTsgY29sb3I6IHJnYigwLCAwLCAwKTsgbGluZS1oZWlnaHQ6IDEuMjsgcG9pbnRlci1ldmVudHM6IGFsbDsgd2hpdGUtc3BhY2U6IG5vcm1hbDsgb3ZlcmZsb3ctd3JhcDogbm9ybWFsOyI+JDIsNTAwPC9kaXY+PC9kaXY+PC9kaXY+PC9mb3JlaWduT2JqZWN0Pjx0ZXh0IHRleHQtYW5jaG9yPSJtaWRkbGUiIGZvbnQtc2l6ZT0iMTJweCIgZm9udC1mYW1pbHk9IkhlbHZldGljYSIgZmlsbD0icmdiKDAsIDAsIDApIiB5PSI0MTkiIHg9IjIzMCI+JDIsNTAwPC90ZXh0Pjwvc3dpdGNoPjwvZz48cGF0aCBwb2ludGVyLWV2ZW50cz0ic3Ryb2tlIiBzdHJva2UtbWl0ZXJsaW1pdD0iMTAiIHN0cm9rZS13aWR0aD0iNSIgc3Ryb2tlPSIjZmYwMDAwIiBmaWxsPSJub25lIiBkPSJNIDQzMCAyNzAgTCAxNDMuODQgMjcwIi8+PHBhdGggcG9pbnRlci1ldmVudHM9ImFsbCIgc3Ryb2tlLW1pdGVybGltaXQ9IjEwIiBzdHJva2Utd2lkdGg9IjUiIHN0cm9rZT0iI2ZmMDAwMCIgZmlsbD0iI2ZmMDAwMCIgZD0iTSAxMzUuNTkgMjcwIEwgMTQ2LjU5IDI2NC41IEwgMTQzLjg0IDI3MCBMIDE0Ni41OSAyNzUuNSBaIi8+PHJlY3QgcG9pbnRlci1ldmVudHM9Im5vbmUiIHN0cm9rZT0icmdiKDAsIDAsIDApIiBmaWxsPSIjYTlkYmI3IiByeT0iNiIgcng9IjYiIGhlaWdodD0iODAiIHdpZHRoPSIyMCIgeT0iMjkwIiB4PSIxMzAiLz48cmVjdCBwb2ludGVyLWV2ZW50cz0ibm9uZSIgc3Ryb2tlPSIjMDAwMDAwIiBmaWxsPSIjYmZjYWZmIiByeT0iNiIgcng9IjYiIGhlaWdodD0iODAiIHdpZHRoPSIyMCIgeT0iMjkwIiB4PSIxMTAiLz48cmVjdCBwb2ludGVyLWV2ZW50cz0ibm9uZSIgc3Ryb2tlPSJub25lIiBmaWxsPSIjYmZjYWZmIiBoZWlnaHQ9IjgwIiB3aWR0aD0iMTAiIHk9IjI5MCIgeD0iMTIwIi8+PHJlY3QgcG9pbnRlci1ldmVudHM9Im5vbmUiIHN0cm9rZT0ibm9uZSIgZmlsbD0iI2E5ZGJiNyIgaGVpZ2h0PSI4MCIgd2lkdGg9IjEwIiB5PSIyOTAiIHg9IjEzMCIvPjxwYXRoIHBvaW50ZXItZXZlbnRzPSJub25lIiBzdHJva2UtbWl0ZXJsaW1pdD0iMTAiIHN0cm9rZT0icmdiKDAsIDAsIDApIiBmaWxsPSJub25lIiBkPSJNIDE0MCAzNzAgTCAxMjAgMzcwIi8+PHBhdGggcG9pbnRlci1ldmVudHM9Im5vbmUiIHN0cm9rZS1taXRlcmxpbWl0PSIxMCIgc3Ryb2tlPSJyZ2IoMCwgMCwgMCkiIGZpbGw9Im5vbmUiIGQ9Ik0gMTQwIDI5MCBMIDEyMCAyOTAiLz48cGF0aCBwb2ludGVyLWV2ZW50cz0ibm9uZSIgc3Ryb2tlLWRhc2hhcnJheT0iMTIgMTIiIHN0cm9rZS1taXRlcmxpbWl0PSIxMCIgc3Ryb2tlLXdpZHRoPSI0IiBzdHJva2U9IiMzMzMzZmYiIGZpbGw9Im5vbmUiIGQ9Ik0gMTMwIDM5NyBMIDEzMCAyNjMiLz48ZWxsaXBzZSBwb2ludGVyLWV2ZW50cz0ibm9uZSIgc3Ryb2tlLXdpZHRoPSI0IiBzdHJva2U9IiMzMzMzZmYiIGZpbGw9IiMzMzMzZmYiIHJ5PSIzIiByeD0iMyIgY3k9IjQwMCIgY3g9IjEzMCIvPjxlbGxpcHNlIHBvaW50ZXItZXZlbnRzPSJub25lIiBzdHJva2Utd2lkdGg9IjQiIHN0cm9rZT0iIzMzMzNmZiIgZmlsbD0iIzMzMzNmZiIgcnk9IjMiIHJ4PSIzIiBjeT0iMjYwIiBjeD0iMTMwIi8+PHJlY3QgcG9pbnRlci1ldmVudHM9Im5vbmUiIHN0cm9rZT0iIzAwMDAwMCIgZmlsbD0iI2JmY2FmZiIgcnk9IjYiIHJ4PSI2IiBoZWlnaHQ9IjgwIiB3aWR0aD0iNDAiIHk9IjUzMCIgeD0iMzAiLz48cmVjdCBwb2ludGVyLWV2ZW50cz0ibm9uZSIgc3Ryb2tlPSIjMDAwMDAwIiBmaWxsPSIjYmZjYWZmIiByeT0iNiIgcng9IjYiIGhlaWdodD0iODAiIHdpZHRoPSI0MCIgeT0iNTMwIiB4PSI3MCIvPjxyZWN0IHBvaW50ZXItZXZlbnRzPSJub25lIiBzdHJva2U9InJnYigwLCAwLCAwKSIgZmlsbD0iI2JmY2FmZiIgcnk9IjYiIHJ4PSI2IiBoZWlnaHQ9IjgwIiB3aWR0aD0iNDAiIHk9IjUzMCIgeD0iMjcwIi8+PHJlY3QgcG9pbnRlci1ldmVudHM9Im5vbmUiIHN0cm9rZT0icmdiKDAsIDAsIDApIiBmaWxsPSIjYmZjYWZmIiByeT0iNiIgcng9IjYiIGhlaWdodD0iODAiIHdpZHRoPSI0MCIgeT0iNTMwIiB4PSIxNTAiLz48cmVjdCBwb2ludGVyLWV2ZW50cz0ibm9uZSIgc3Ryb2tlPSJyZ2IoMCwgMCwgMCkiIGZpbGw9IiNiZmNhZmYiIHJ5PSI2IiByeD0iNiIgaGVpZ2h0PSI4MCIgd2lkdGg9IjQwIiB5PSI1MzAiIHg9IjE5MCIvPjxyZWN0IHBvaW50ZXItZXZlbnRzPSJub25lIiBzdHJva2U9InJnYigwLCAwLCAwKSIgZmlsbD0iI2JmY2FmZiIgcnk9IjYiIHJ4PSI2IiBoZWlnaHQ9IjgwIiB3aWR0aD0iNDAiIHk9IjUzMCIgeD0iMjMwIi8+PHJlY3QgcG9pbnRlci1ldmVudHM9Im5vbmUiIHN0cm9rZT0icmdiKDAsIDAsIDApIiBmaWxsPSIjYmZjYWZmIiByeT0iNiIgcng9IjYiIGhlaWdodD0iODAiIHdpZHRoPSI0MCIgeT0iNTMwIiB4PSIzMTAiLz48cmVjdCBwb2ludGVyLWV2ZW50cz0ibm9uZSIgc3Ryb2tlPSJyZ2IoMCwgMCwgMCkiIGZpbGw9IiNiZmNhZmYiIHJ5PSI2IiByeD0iNiIgaGVpZ2h0PSI4MCIgd2lkdGg9IjQwIiB5PSI1MzAiIHg9IjExMCIvPjxyZWN0IHBvaW50ZXItZXZlbnRzPSJub25lIiBzdHJva2U9IiMwMDAwMDAiIGZpbGw9IiNhOWRiYjciIHJ5PSI2IiByeD0iNiIgaGVpZ2h0PSI4MCIgd2lkdGg9IjQwIiB5PSI1MzAiIHg9IjM5MCIvPjxwYXRoIHBvaW50ZXItZXZlbnRzPSJub25lIiBzdHJva2UtbWl0ZXJsaW1pdD0iMTAiIHN0cm9rZT0icmdiKDAsIDAsIDApIiBmaWxsPSJub25lIiBkPSJNIDEwIDYzMCBMIDQ1MCA2MzAiLz48cGF0aCBwb2ludGVyLWV2ZW50cz0ibm9uZSIgc3Ryb2tlLW1pdGVybGltaXQ9IjEwIiBzdHJva2U9InJnYigwLCAwLCAwKSIgZmlsbD0ibm9uZSIgZD0iTSAzMCA2NDAgTCAzMCA2MjAiLz48cGF0aCBwb2ludGVyLWV2ZW50cz0ibm9uZSIgc3Ryb2tlLW1pdGVybGltaXQ9IjEwIiBzdHJva2U9InJnYigwLCAwLCAwKSIgZmlsbD0ibm9uZSIgZD0iTSA3MCA2NDAgTCA3MCA2MjAiLz48cGF0aCBwb2ludGVyLWV2ZW50cz0ibm9uZSIgc3Ryb2tlLW1pdGVybGltaXQ9IjEwIiBzdHJva2U9InJnYigwLCAwLCAwKSIgZmlsbD0ibm9uZSIgZD0iTSAxMDkuNjcgNjQwIEwgMTA5LjY3IDYyMCIvPjxwYXRoIHBvaW50ZXItZXZlbnRzPSJub25lIiBzdHJva2UtbWl0ZXJsaW1pdD0iMTAiIHN0cm9rZT0icmdiKDAsIDAsIDApIiBmaWxsPSJub25lIiBkPSJNIDE1MCA2NDAgTCAxNTAgNjIwIi8+PHBhdGggcG9pbnRlci1ldmVudHM9Im5vbmUiIHN0cm9rZS1taXRlcmxpbWl0PSIxMCIgc3Ryb2tlPSJyZ2IoMCwgMCwgMCkiIGZpbGw9Im5vbmUiIGQ9Ik0gMTg5LjY3IDY0MCBMIDE4OS42NyA2MjAiLz48cGF0aCBwb2ludGVyLWV2ZW50cz0ibm9uZSIgc3Ryb2tlLW1pdGVybGltaXQ9IjEwIiBzdHJva2U9InJnYigwLCAwLCAwKSIgZmlsbD0ibm9uZSIgZD0iTSAyMzAgNjQwIEwgMjMwIDYyMCIvPjxwYXRoIHBvaW50ZXItZXZlbnRzPSJub25lIiBzdHJva2UtbWl0ZXJsaW1pdD0iMTAiIHN0cm9rZT0icmdiKDAsIDAsIDApIiBmaWxsPSJub25lIiBkPSJNIDI2OS42NyA2NDAgTCAyNjkuNjcgNjIwIi8+PHBhdGggcG9pbnRlci1ldmVudHM9Im5vbmUiIHN0cm9rZS1taXRlcmxpbWl0PSIxMCIgc3Ryb2tlPSJyZ2IoMCwgMCwgMCkiIGZpbGw9Im5vbmUiIGQ9Ik0gMzEwIDY0MCBMIDMxMCA2MjAiLz48cGF0aCBwb2ludGVyLWV2ZW50cz0ibm9uZSIgc3Ryb2tlLW1pdGVybGltaXQ9IjEwIiBzdHJva2U9InJnYigwLCAwLCAwKSIgZmlsbD0ibm9uZSIgZD0iTSAzNDkuNjcgNjQwIEwgMzQ5LjY3IDYyMCIvPjxwYXRoIHBvaW50ZXItZXZlbnRzPSJub25lIiBzdHJva2UtbWl0ZXJsaW1pdD0iMTAiIHN0cm9rZT0icmdiKDAsIDAsIDApIiBmaWxsPSJub25lIiBkPSJNIDM5MCA2NDAgTCAzOTAgNjIwIi8+PHBhdGggcG9pbnRlci1ldmVudHM9Im5vbmUiIHN0cm9rZS1taXRlcmxpbWl0PSIxMCIgc3Ryb2tlPSJyZ2IoMCwgMCwgMCkiIGZpbGw9Im5vbmUiIGQ9Ik0gNDMwIDY0MCBMIDQzMCA2MjAiLz48ZyB0cmFuc2Zvcm09InRyYW5zbGF0ZSgtMC41IC0wLjUpIj48c3dpdGNoPjxmb3JlaWduT2JqZWN0IHN0eWxlPSJvdmVyZmxvdzogdmlzaWJsZTsgdGV4dC1hbGlnbjogbGVmdDsiIHJlcXVpcmVkRmVhdHVyZXM9Imh0dHA6Ly93d3cudzMub3JnL1RSL1NWRzExL2ZlYXR1cmUjRXh0ZW5zaWJpbGl0eSIgaGVpZ2h0PSIxMDAlIiB3aWR0aD0iMTAwJSIgcG9pbnRlci1ldmVudHM9Im5vbmUiPjxkaXYgeG1sbnM9Imh0dHA6Ly93d3cudzMub3JnLzE5OTkveGh0bWwiIHN0eWxlPSJkaXNwbGF5OiBmbGV4OyBhbGlnbi1pdGVtczogdW5zYWZlIGNlbnRlcjsganVzdGlmeS1jb250ZW50OiB1bnNhZmUgY2VudGVyOyB3aWR0aDogNThweDsgaGVpZ2h0OiAxcHg7IHBhZGRpbmctdG9wOiA2NTVweDsgbWFyZ2luLWxlZnQ6IDFweDsiPjxkaXYgc3R5bGU9ImJveC1zaXppbmc6IGJvcmRlci1ib3g7IGZvbnQtc2l6ZTogMHB4OyB0ZXh0LWFsaWduOiBjZW50ZXI7IiBkYXRhLWRyYXdpby1jb2xvcnM9ImNvbG9yOiByZ2IoMCwgMCwgMCk7Ij48ZGl2IHN0eWxlPSJkaXNwbGF5OiBpbmxpbmUtYmxvY2s7IGZvbnQtc2l6ZTogMTJweDsgZm9udC1mYW1pbHk6IEhlbHZldGljYTsgY29sb3I6IHJnYigwLCAwLCAwKTsgbGluZS1oZWlnaHQ6IDEuMjsgcG9pbnRlci1ldmVudHM6IG5vbmU7IHdoaXRlLXNwYWNlOiBub3JtYWw7IG92ZXJmbG93LXdyYXA6IG5vcm1hbDsiPiQyLDAwMDwvZGl2PjwvZGl2PjwvZGl2PjwvZm9yZWlnbk9iamVjdD48dGV4dCB0ZXh0LWFuY2hvcj0ibWlkZGxlIiBmb250LXNpemU9IjEycHgiIGZvbnQtZmFtaWx5PSJIZWx2ZXRpY2EiIGZpbGw9InJnYigwLCAwLCAwKSIgeT0iNjU5IiB4PSIzMCI+JDIsMDAwPC90ZXh0Pjwvc3dpdGNoPjwvZz48ZyB0cmFuc2Zvcm09InRyYW5zbGF0ZSgtMC41IC0wLjUpIj48c3dpdGNoPjxmb3JlaWduT2JqZWN0IHN0eWxlPSJvdmVyZmxvdzogdmlzaWJsZTsgdGV4dC1hbGlnbjogbGVmdDsiIHJlcXVpcmVkRmVhdHVyZXM9Imh0dHA6Ly93d3cudzMub3JnL1RSL1NWRzExL2ZlYXR1cmUjRXh0ZW5zaWJpbGl0eSIgaGVpZ2h0PSIxMDAlIiB3aWR0aD0iMTAwJSIgcG9pbnRlci1ldmVudHM9Im5vbmUiPjxkaXYgeG1sbnM9Imh0dHA6Ly93d3cudzMub3JnLzE5OTkveGh0bWwiIHN0eWxlPSJkaXNwbGF5OiBmbGV4OyBhbGlnbi1pdGVtczogdW5zYWZlIGNlbnRlcjsganVzdGlmeS1jb250ZW50OiB1bnNhZmUgY2VudGVyOyB3aWR0aDogNThweDsgaGVpZ2h0OiAxcHg7IHBhZGRpbmctdG9wOiA2NTVweDsgbWFyZ2luLWxlZnQ6IDQwMXB4OyI+PGRpdiBzdHlsZT0iYm94LXNpemluZzogYm9yZGVyLWJveDsgZm9udC1zaXplOiAwcHg7IHRleHQtYWxpZ246IGNlbnRlcjsiIGRhdGEtZHJhd2lvLWNvbG9ycz0iY29sb3I6IHJnYigwLCAwLCAwKTsiPjxkaXYgc3R5bGU9ImRpc3BsYXk6IGlubGluZS1ibG9jazsgZm9udC1zaXplOiAxMnB4OyBmb250LWZhbWlseTogSGVsdmV0aWNhOyBjb2xvcjogcmdiKDAsIDAsIDApOyBsaW5lLWhlaWdodDogMS4yOyBwb2ludGVyLWV2ZW50czogbm9uZTsgd2hpdGUtc3BhY2U6IG5vcm1hbDsgb3ZlcmZsb3ctd3JhcDogbm9ybWFsOyI+JDMsMDAwPC9kaXY+PC9kaXY+PC9kaXY+PC9mb3JlaWduT2JqZWN0Pjx0ZXh0IHRleHQtYW5jaG9yPSJtaWRkbGUiIGZvbnQtc2l6ZT0iMTJweCIgZm9udC1mYW1pbHk9IkhlbHZldGljYSIgZmlsbD0icmdiKDAsIDAsIDApIiB5PSI2NTkiIHg9IjQzMCI+JDMsMDAwPC90ZXh0Pjwvc3dpdGNoPjwvZz48ZyB0cmFuc2Zvcm09InRyYW5zbGF0ZSgtMC41IC0wLjUpIj48c3dpdGNoPjxmb3JlaWduT2JqZWN0IHN0eWxlPSJvdmVyZmxvdzogdmlzaWJsZTsgdGV4dC1hbGlnbjogbGVmdDsiIHJlcXVpcmVkRmVhdHVyZXM9Imh0dHA6Ly93d3cudzMub3JnL1RSL1NWRzExL2ZlYXR1cmUjRXh0ZW5zaWJpbGl0eSIgaGVpZ2h0PSIxMDAlIiB3aWR0aD0iMTAwJSIgcG9pbnRlci1ldmVudHM9Im5vbmUiPjxkaXYgeG1sbnM9Imh0dHA6Ly93d3cudzMub3JnLzE5OTkveGh0bWwiIHN0eWxlPSJkaXNwbGF5OiBmbGV4OyBhbGlnbi1pdGVtczogdW5zYWZlIGNlbnRlcjsganVzdGlmeS1jb250ZW50OiB1bnNhZmUgY2VudGVyOyB3aWR0aDogNThweDsgaGVpZ2h0OiAxcHg7IHBhZGRpbmctdG9wOiA2NTVweDsgbWFyZ2luLWxlZnQ6IDIwMXB4OyI+PGRpdiBzdHlsZT0iYm94LXNpemluZzogYm9yZGVyLWJveDsgZm9udC1zaXplOiAwcHg7IHRleHQtYWxpZ246IGNlbnRlcjsiIGRhdGEtZHJhd2lvLWNvbG9ycz0iY29sb3I6IHJnYigwLCAwLCAwKTsiPjxkaXYgc3R5bGU9ImRpc3BsYXk6IGlubGluZS1ibG9jazsgZm9udC1zaXplOiAxMnB4OyBmb250LWZhbWlseTogSGVsdmV0aWNhOyBjb2xvcjogcmdiKDAsIDAsIDApOyBsaW5lLWhlaWdodDogMS4yOyBwb2ludGVyLWV2ZW50czogbm9uZTsgd2hpdGUtc3BhY2U6IG5vcm1hbDsgb3ZlcmZsb3ctd3JhcDogbm9ybWFsOyI+JDIsNTAwPC9kaXY+PC9kaXY+PC9kaXY+PC9mb3JlaWduT2JqZWN0Pjx0ZXh0IHRleHQtYW5jaG9yPSJtaWRkbGUiIGZvbnQtc2l6ZT0iMTJweCIgZm9udC1mYW1pbHk9IkhlbHZldGljYSIgZmlsbD0icmdiKDAsIDAsIDApIiB5PSI2NTkiIHg9IjIzMCI+JDIsNTAwPC90ZXh0Pjwvc3dpdGNoPjwvZz48cGF0aCBwb2ludGVyLWV2ZW50cz0ibm9uZSIgc3Ryb2tlLW1pdGVybGltaXQ9IjEwIiBzdHJva2Utd2lkdGg9IjUiIHN0cm9rZT0iIzAwY2MwMCIgZmlsbD0ibm9uZSIgZD0iTSAzMzYuMTYgNTEwIEwgMzAgNTEwIi8+PHBhdGggcG9pbnRlci1ldmVudHM9Im5vbmUiIHN0cm9rZS1taXRlcmxpbWl0PSIxMCIgc3Ryb2tlLXdpZHRoPSI1IiBzdHJva2U9IiMwMGNjMDAiIGZpbGw9IiMwMGNjMDAiIGQ9Ik0gMzQ0LjQxIDUxMCBMIDMzMy40MSA1MTUuNSBMIDMzNi4xNiA1MTAgTCAzMzMuNDEgNTA0LjUgWiIvPjxyZWN0IHBvaW50ZXItZXZlbnRzPSJub25lIiBzdHJva2U9IiMwMDAwMDAiIGZpbGw9IiNhOWRiYjciIHJ5PSI2IiByeD0iNiIgaGVpZ2h0PSI4MCIgd2lkdGg9IjQwIiB5PSI1MzAiIHg9IjM1MCIvPjxnIHRyYW5zZm9ybT0idHJhbnNsYXRlKC0wLjUgLTAuNSkiPjxzd2l0Y2g+PGZvcmVpZ25PYmplY3Qgc3R5bGU9Im92ZXJmbG93OiB2aXNpYmxlOyB0ZXh0LWFsaWduOiBsZWZ0OyIgcmVxdWlyZWRGZWF0dXJlcz0iaHR0cDovL3d3dy53My5vcmcvVFIvU1ZHMTEvZmVhdHVyZSNFeHRlbnNpYmlsaXR5IiBoZWlnaHQ9IjEwMCUiIHdpZHRoPSIxMDAlIiBwb2ludGVyLWV2ZW50cz0ibm9uZSI+PGRpdiB4bWxucz0iaHR0cDovL3d3dy53My5vcmcvMTk5OS94aHRtbCIgc3R5bGU9ImRpc3BsYXk6IGZsZXg7IGFsaWduLWl0ZW1zOiB1bnNhZmUgY2VudGVyOyBqdXN0aWZ5LWNvbnRlbnQ6IHVuc2FmZSBjZW50ZXI7IHdpZHRoOiAzOThweDsgaGVpZ2h0OiAxcHg7IHBhZGRpbmctdG9wOiAxNXB4OyBtYXJnaW4tbGVmdDogMzFweDsiPjxkaXYgc3R5bGU9ImJveC1zaXppbmc6IGJvcmRlci1ib3g7IGZvbnQtc2l6ZTogMHB4OyB0ZXh0LWFsaWduOiBjZW50ZXI7IiBkYXRhLWRyYXdpby1jb2xvcnM9ImNvbG9yOiByZ2IoMCwgMCwgMCk7Ij48ZGl2IHN0eWxlPSJkaXNwbGF5OiBpbmxpbmUtYmxvY2s7IGZvbnQtc2l6ZTogMTJweDsgZm9udC1mYW1pbHk6IEhlbHZldGljYTsgY29sb3I6IHJnYigwLCAwLCAwKTsgbGluZS1oZWlnaHQ6IDEuMjsgcG9pbnRlci1ldmVudHM6IG5vbmU7IHdoaXRlLXNwYWNlOiBub3JtYWw7IG92ZXJmbG93LXdyYXA6IG5vcm1hbDsiPkVUSCBDb2xsYXRlcmFsIGlzIHNwbGl0IGV2ZW5seSBpbnRvIHRoZSBjaG9zZW4gbnVtYmVyIG9mIEJhbmRzIChOKSBpbiB0aGUgPGI+U29mdCBMaXF1aWRhdGlvbiBSYW5nZTwvYj48L2Rpdj48L2Rpdj48L2Rpdj48L2ZvcmVpZ25PYmplY3Q+PHRleHQgdGV4dC1hbmNob3I9Im1pZGRsZSIgZm9udC1zaXplPSIxMnB4IiBmb250LWZhbWlseT0iSGVsdmV0aWNhIiBmaWxsPSJyZ2IoMCwgMCwgMCkiIHk9IjE5IiB4PSIyMzAiPkVUSCBDb2xsYXRlcmFsIGlzIHNwbGl0IGV2ZW5seSBpbnRvIHRoZSBjaG9zZW4gbnVtYmVyIG9mIEJhbmRzIChOKS4uLjwvdGV4dD48L3N3aXRjaD48L2c+PGcgdHJhbnNmb3JtPSJ0cmFuc2xhdGUoLTAuNSAtMC41KSI+PHN3aXRjaD48Zm9yZWlnbk9iamVjdCBzdHlsZT0ib3ZlcmZsb3c6IHZpc2libGU7IHRleHQtYWxpZ246IGxlZnQ7IiByZXF1aXJlZEZlYXR1cmVzPSJodHRwOi8vd3d3LnczLm9yZy9UUi9TVkcxMS9mZWF0dXJlI0V4dGVuc2liaWxpdHkiIGhlaWdodD0iMTAwJSIgd2lkdGg9IjEwMCUiIHBvaW50ZXItZXZlbnRzPSJub25lIj48ZGl2IHhtbG5zPSJodHRwOi8vd3d3LnczLm9yZy8xOTk5L3hodG1sIiBzdHlsZT0iZGlzcGxheTogZmxleDsgYWxpZ24taXRlbXM6IHVuc2FmZSBjZW50ZXI7IGp1c3RpZnktY29udGVudDogdW5zYWZlIGNlbnRlcjsgd2lkdGg6IDM5OHB4OyBoZWlnaHQ6IDFweDsgcGFkZGluZy10b3A6IDIzNXB4OyBtYXJnaW4tbGVmdDogMzFweDsiPjxkaXYgc3R5bGU9ImJveC1zaXppbmc6IGJvcmRlci1ib3g7IGZvbnQtc2l6ZTogMHB4OyB0ZXh0LWFsaWduOiBjZW50ZXI7IiBkYXRhLWRyYXdpby1jb2xvcnM9ImNvbG9yOiByZ2IoMCwgMCwgMCk7Ij48ZGl2IHN0eWxlPSJkaXNwbGF5OiBpbmxpbmUtYmxvY2s7IGZvbnQtc2l6ZTogMTJweDsgZm9udC1mYW1pbHk6IEhlbHZldGljYTsgY29sb3I6IHJnYigwLCAwLCAwKTsgbGluZS1oZWlnaHQ6IDEuMjsgcG9pbnRlci1ldmVudHM6IG5vbmU7IHdoaXRlLXNwYWNlOiBub3JtYWw7IG92ZXJmbG93LXdyYXA6IG5vcm1hbDsiPjxiPlNvZnQtbGlxdWlkYXRpb246PC9iPiBBcyBFVEggUHJpY2UgZGVjcmVhc2VzLCBFVEggaXMgY29udmVydGVkIHRvIGNydlVTRCB0aHJvdWdoIGVhY2ggYmFuZDwvZGl2PjwvZGl2PjwvZGl2PjwvZm9yZWlnbk9iamVjdD48dGV4dCB0ZXh0LWFuY2hvcj0ibWlkZGxlIiBmb250LXNpemU9IjEycHgiIGZvbnQtZmFtaWx5PSJIZWx2ZXRpY2EiIGZpbGw9InJnYigwLCAwLCAwKSIgeT0iMjM5IiB4PSIyMzAiPlNvZnQtbGlxdWlkYXRpb246IEFzIEVUSCBQcmljZSBkZWNyZWFzZXMsIEVUSCBpcyBjb252ZXJ0ZWQgdG8gY3J2VS4uLjwvdGV4dD48L3N3aXRjaD48L2c+PGcgdHJhbnNmb3JtPSJ0cmFuc2xhdGUoLTAuNSAtMC41KSI+PHN3aXRjaD48Zm9yZWlnbk9iamVjdCBzdHlsZT0ib3ZlcmZsb3c6IHZpc2libGU7IHRleHQtYWxpZ246IGxlZnQ7IiByZXF1aXJlZEZlYXR1cmVzPSJodHRwOi8vd3d3LnczLm9yZy9UUi9TVkcxMS9mZWF0dXJlI0V4dGVuc2liaWxpdHkiIGhlaWdodD0iMTAwJSIgd2lkdGg9IjEwMCUiIHBvaW50ZXItZXZlbnRzPSJub25lIj48ZGl2IHhtbG5zPSJodHRwOi8vd3d3LnczLm9yZy8xOTk5L3hodG1sIiBzdHlsZT0iZGlzcGxheTogZmxleDsgYWxpZ24taXRlbXM6IHVuc2FmZSBjZW50ZXI7IGp1c3RpZnktY29udGVudDogdW5zYWZlIGNlbnRlcjsgd2lkdGg6IDM5OHB4OyBoZWlnaHQ6IDFweDsgcGFkZGluZy10b3A6IDQ3NXB4OyBtYXJnaW4tbGVmdDogMzFweDsiPjxkaXYgc3R5bGU9ImJveC1zaXppbmc6IGJvcmRlci1ib3g7IGZvbnQtc2l6ZTogMHB4OyB0ZXh0LWFsaWduOiBjZW50ZXI7IiBkYXRhLWRyYXdpby1jb2xvcnM9ImNvbG9yOiByZ2IoMCwgMCwgMCk7Ij48ZGl2IHN0eWxlPSJkaXNwbGF5OiBpbmxpbmUtYmxvY2s7IGZvbnQtc2l6ZTogMTJweDsgZm9udC1mYW1pbHk6IEhlbHZldGljYTsgY29sb3I6IHJnYigwLCAwLCAwKTsgbGluZS1oZWlnaHQ6IDEuMjsgcG9pbnRlci1ldmVudHM6IG5vbmU7IHdoaXRlLXNwYWNlOiBub3JtYWw7IG92ZXJmbG93LXdyYXA6IG5vcm1hbDsiPjxiPkRlLWxpcXVpZGF0aW9uOiA8L2I+QXMgRVRIIFByaWNlIGluY3JlYXNlcywgY3J2VVNEIGlzIHN3YXBwZWQgYmFjayB0byBFVEggdGhyb3VnaCBlYWNoIGJhbmQ8L2Rpdj48L2Rpdj48L2Rpdj48L2ZvcmVpZ25PYmplY3Q+PHRleHQgdGV4dC1hbmNob3I9Im1pZGRsZSIgZm9udC1zaXplPSIxMnB4IiBmb250LWZhbWlseT0iSGVsdmV0aWNhIiBmaWxsPSJyZ2IoMCwgMCwgMCkiIHk9IjQ3OSIgeD0iMjMwIj5EZS1saXF1aWRhdGlvbjogQXMgRVRIIFByaWNlIGluY3JlYXNlcywgY3J2VVNEIGlzIHN3YXBwZWQgYmFjayB0by4uLjwvdGV4dD48L3N3aXRjaD48L2c+PGcgdHJhbnNmb3JtPSJ0cmFuc2xhdGUoLTAuNSAtMC41KSI+PHN3aXRjaD48Zm9yZWlnbk9iamVjdCBzdHlsZT0ib3ZlcmZsb3c6IHZpc2libGU7IHRleHQtYWxpZ246IGxlZnQ7IiByZXF1aXJlZEZlYXR1cmVzPSJodHRwOi8vd3d3LnczLm9yZy9UUi9TVkcxMS9mZWF0dXJlI0V4dGVuc2liaWxpdHkiIGhlaWdodD0iMTAwJSIgd2lkdGg9IjEwMCUiIHBvaW50ZXItZXZlbnRzPSJub25lIj48ZGl2IHhtbG5zPSJodHRwOi8vd3d3LnczLm9yZy8xOTk5L3hodG1sIiBzdHlsZT0iZGlzcGxheTogZmxleDsgYWxpZ24taXRlbXM6IHVuc2FmZSBjZW50ZXI7IGp1c3RpZnktY29udGVudDogdW5zYWZlIGNlbnRlcjsgd2lkdGg6IDU4cHg7IGhlaWdodDogMXB4OyBwYWRkaW5nLXRvcDogNDE1cHg7IG1hcmdpbi1sZWZ0OiAxMDFweDsiPjxkaXYgc3R5bGU9ImJveC1zaXppbmc6IGJvcmRlci1ib3g7IGZvbnQtc2l6ZTogMHB4OyB0ZXh0LWFsaWduOiBjZW50ZXI7IiBkYXRhLWRyYXdpby1jb2xvcnM9ImNvbG9yOiAjMzMzM0ZGOyI+PGRpdiBzdHlsZT0iZGlzcGxheTogaW5saW5lLWJsb2NrOyBmb250LXNpemU6IDEycHg7IGZvbnQtZmFtaWx5OiBIZWx2ZXRpY2E7IGNvbG9yOiByZ2IoNTEsIDUxLCAyNTUpOyBsaW5lLWhlaWdodDogMS4yOyBwb2ludGVyLWV2ZW50czogbm9uZTsgZm9udC13ZWlnaHQ6IGJvbGQ7IHdoaXRlLXNwYWNlOiBub3JtYWw7IG92ZXJmbG93LXdyYXA6IG5vcm1hbDsiPiQyLDI1MDwvZGl2PjwvZGl2PjwvZGl2PjwvZm9yZWlnbk9iamVjdD48dGV4dCBmb250LXdlaWdodD0iYm9sZCIgdGV4dC1hbmNob3I9Im1pZGRsZSIgZm9udC1zaXplPSIxMnB4IiBmb250LWZhbWlseT0iSGVsdmV0aWNhIiBmaWxsPSIjMzMzM0ZGIiB5PSI0MTkiIHg9IjEzMCI+JDIsMjUwPC90ZXh0Pjwvc3dpdGNoPjwvZz48cGF0aCBwb2ludGVyLWV2ZW50cz0ibm9uZSIgc3Ryb2tlLWRhc2hhcnJheT0iMTIgMTIiIHN0cm9rZS1taXRlcmxpbWl0PSIxMCIgc3Ryb2tlLXdpZHRoPSI0IiBzdHJva2U9IiMzMzMzZmYiIGZpbGw9Im5vbmUiIGQ9Ik0gMzUwIDYzNyBMIDM1MCA1MDMiLz48ZWxsaXBzZSBwb2ludGVyLWV2ZW50cz0ibm9uZSIgc3Ryb2tlLXdpZHRoPSI0IiBzdHJva2U9IiMzMzMzZmYiIGZpbGw9IiMzMzMzZmYiIHJ5PSIzIiByeD0iMyIgY3k9IjY0MCIgY3g9IjM1MCIvPjxlbGxpcHNlIHBvaW50ZXItZXZlbnRzPSJub25lIiBzdHJva2Utd2lkdGg9IjQiIHN0cm9rZT0iIzMzMzNmZiIgZmlsbD0iIzMzMzNmZiIgcnk9IjMiIHJ4PSIzIiBjeT0iNTAwIiBjeD0iMzUwIi8+PGcgdHJhbnNmb3JtPSJ0cmFuc2xhdGUoLTAuNSAtMC41KSI+PHN3aXRjaD48Zm9yZWlnbk9iamVjdCBzdHlsZT0ib3ZlcmZsb3c6IHZpc2libGU7IHRleHQtYWxpZ246IGxlZnQ7IiByZXF1aXJlZEZlYXR1cmVzPSJodHRwOi8vd3d3LnczLm9yZy9UUi9TVkcxMS9mZWF0dXJlI0V4dGVuc2liaWxpdHkiIGhlaWdodD0iMTAwJSIgd2lkdGg9IjEwMCUiIHBvaW50ZXItZXZlbnRzPSJub25lIj48ZGl2IHhtbG5zPSJodHRwOi8vd3d3LnczLm9yZy8xOTk5L3hodG1sIiBzdHlsZT0iZGlzcGxheTogZmxleDsgYWxpZ24taXRlbXM6IHVuc2FmZSBjZW50ZXI7IGp1c3RpZnktY29udGVudDogdW5zYWZlIGNlbnRlcjsgd2lkdGg6IDU4cHg7IGhlaWdodDogMXB4OyBwYWRkaW5nLXRvcDogNjU1cHg7IG1hcmdpbi1sZWZ0OiAzMjFweDsiPjxkaXYgc3R5bGU9ImJveC1zaXppbmc6IGJvcmRlci1ib3g7IGZvbnQtc2l6ZTogMHB4OyB0ZXh0LWFsaWduOiBjZW50ZXI7IiBkYXRhLWRyYXdpby1jb2xvcnM9ImNvbG9yOiAjMzMzM0ZGOyI+PGRpdiBzdHlsZT0iZGlzcGxheTogaW5saW5lLWJsb2NrOyBmb250LXNpemU6IDEycHg7IGZvbnQtZmFtaWx5OiBIZWx2ZXRpY2E7IGNvbG9yOiByZ2IoNTEsIDUxLCAyNTUpOyBsaW5lLWhlaWdodDogMS4yOyBwb2ludGVyLWV2ZW50czogbm9uZTsgZm9udC13ZWlnaHQ6IGJvbGQ7IHdoaXRlLXNwYWNlOiBub3JtYWw7IG92ZXJmbG93LXdyYXA6IG5vcm1hbDsiPiQyLDgwMDwvZGl2PjwvZGl2PjwvZGl2PjwvZm9yZWlnbk9iamVjdD48dGV4dCBmb250LXdlaWdodD0iYm9sZCIgdGV4dC1hbmNob3I9Im1pZGRsZSIgZm9udC1zaXplPSIxMnB4IiBmb250LWZhbWlseT0iSGVsdmV0aWNhIiBmaWxsPSIjMzMzM0ZGIiB5PSI2NTkiIHg9IjM1MCI+JDIsODAwPC90ZXh0Pjwvc3dpdGNoPjwvZz48L2c+PHN3aXRjaD48ZyByZXF1aXJlZEZlYXR1cmVzPSJodHRwOi8vd3d3LnczLm9yZy9UUi9TVkcxMS9mZWF0dXJlI0V4dGVuc2liaWxpdHkiLz48YSB0YXJnZXQ9Il9ibGFuayIgeGxpbms6aHJlZj0iaHR0cHM6Ly93d3cuZHJhd2lvLmNvbS9kb2MvZmFxL3N2Zy1leHBvcnQtdGV4dC1wcm9ibGVtcyIgdHJhbnNmb3JtPSJ0cmFuc2xhdGUoMCwtNSkiPjx0ZXh0IHk9IjEwMCUiIHg9IjUwJSIgZm9udC1zaXplPSIxMHB4IiB0ZXh0LWFuY2hvcj0ibWlkZGxlIj5UZXh0IGlzIG5vdCBTVkcgLSBjYW5ub3QgZGlzcGxheTwvdGV4dD48L2E+PC9zd2l0Y2g+PC9zdmc+;" parent="JD0B_CTbyRRi6J4iVIu0-53" vertex="1">
          <mxGeometry y="107.5" width="466" height="675" as="geometry" />
        </mxCell>
        <mxCell id="JD0B_CTbyRRi6J4iVIu0-16" value="&lt;span style=&quot;color: rgba(0, 0, 0, 0.87); font-family: &amp;quot;Mona Sans&amp;quot;, -apple-system, BlinkMacSystemFont, Helvetica, Arial, sans-serif; font-style: normal; font-variant-ligatures: normal; font-variant-caps: normal; letter-spacing: normal; orphans: 2; text-align: start; text-indent: 0px; text-transform: none; widows: 2; word-spacing: 0px; -webkit-text-stroke-width: 0px; white-space: normal; background-color: rgb(250, 250, 250); text-decoration-thickness: initial; text-decoration-style: initial; text-decoration-color: initial; float: none; display: inline !important;&quot;&gt;&lt;font style=&quot;font-size: 23px;&quot;&gt;LLAMMA (Lending-Liquidating AMM Algorithm)&amp;nbsp;&lt;/font&gt;&lt;/span&gt;" style="text;whiteSpace=wrap;html=1;fillColor=#f5f5f5;fontColor=#333333;strokeColor=#666666;dashed=1;dashPattern=8 8;" parent="JD0B_CTbyRRi6J4iVIu0-53" vertex="1">
          <mxGeometry x="10" y="850" width="530" height="40" as="geometry" />
        </mxCell>
        <mxCell id="JD0B_CTbyRRi6J4iVIu0-54" value="" style="group" parent="1" vertex="1" connectable="0">
          <mxGeometry x="11985" y="58" width="680" height="985" as="geometry" />
        </mxCell>
        <mxCell id="JD0B_CTbyRRi6J4iVIu0-8" value="&lt;i&gt;&lt;span style=&quot;color: rgba(0, 0, 0, 0.87); font-family: &amp;quot;Mona Sans&amp;quot;, -apple-system, BlinkMacSystemFont, Helvetica, Arial, sans-serif; font-size: 16px; font-variant-ligatures: normal; font-variant-caps: normal; font-weight: 400; letter-spacing: normal; orphans: 2; text-align: start; text-indent: 0px; text-transform: none; widows: 2; word-spacing: 0px; -webkit-text-stroke-width: 0px; white-space: normal; background-color: rgb(250, 250, 250); text-decoration-thickness: initial; text-decoration-style: initial; text-decoration-color: initial; float: none; display: inline !important;&quot;&gt;&quot; This continuous buying and selling between the collateral asset and crvUSD leads to&amp;nbsp;&lt;/span&gt;&lt;strong style=&quot;box-sizing: inherit; color: rgba(0, 0, 0, 0.87); font-family: &amp;quot;Mona Sans&amp;quot;, -apple-system, BlinkMacSystemFont, Helvetica, Arial, sans-serif; font-size: 16px; font-variant-ligatures: normal; font-variant-caps: normal; letter-spacing: normal; orphans: 2; text-align: start; text-indent: 0px; text-transform: none; widows: 2; word-spacing: 0px; -webkit-text-stroke-width: 0px; white-space: normal; background-color: rgb(250, 250, 250); text-decoration-thickness: initial; text-decoration-style: initial; text-decoration-color: initial;&quot;&gt;losses&lt;/strong&gt;&lt;span style=&quot;color: rgba(0, 0, 0, 0.87); font-family: &amp;quot;Mona Sans&amp;quot;, -apple-system, BlinkMacSystemFont, Helvetica, Arial, sans-serif; font-size: 16px; font-variant-ligatures: normal; font-variant-caps: normal; font-weight: 400; letter-spacing: normal; orphans: 2; text-align: start; text-indent: 0px; text-transform: none; widows: 2; word-spacing: 0px; -webkit-text-stroke-width: 0px; white-space: normal; background-color: rgb(250, 250, 250); text-decoration-thickness: initial; text-decoration-style: initial; text-decoration-color: initial; float: none; display: inline !important;&quot;&gt;, due to price movement, fees, and rebalancing inefficiencies. Losses can occur both when the price decreases&lt;span&gt;&amp;nbsp;&lt;/span&gt;&lt;/span&gt;&lt;span style=&quot;box-sizing: inherit; color: rgba(0, 0, 0, 0.87); font-family: &amp;quot;Mona Sans&amp;quot;, -apple-system, BlinkMacSystemFont, Helvetica, Arial, sans-serif; font-size: 16px; font-variant-ligatures: normal; font-variant-caps: normal; font-weight: 400; letter-spacing: normal; orphans: 2; text-align: start; text-indent: 0px; text-transform: none; widows: 2; word-spacing: 0px; -webkit-text-stroke-width: 0px; white-space: normal; background-color: rgb(250, 250, 250); text-decoration-thickness: initial; text-decoration-style: initial; text-decoration-color: initial;&quot;&gt;and&lt;/span&gt;&lt;span style=&quot;color: rgba(0, 0, 0, 0.87); font-family: &amp;quot;Mona Sans&amp;quot;, -apple-system, BlinkMacSystemFont, Helvetica, Arial, sans-serif; font-size: 16px; font-variant-ligatures: normal; font-variant-caps: normal; font-weight: 400; letter-spacing: normal; orphans: 2; text-align: start; text-indent: 0px; text-transform: none; widows: 2; word-spacing: 0px; -webkit-text-stroke-width: 0px; white-space: normal; background-color: rgb(250, 250, 250); text-decoration-thickness: initial; text-decoration-style: initial; text-decoration-color: initial; float: none; display: inline !important;&quot;&gt;&amp;nbsp;when it increases, but only while the loan is inside the liquidation range.&quot;&lt;/span&gt;&lt;/i&gt;" style="text;whiteSpace=wrap;html=1;" parent="JD0B_CTbyRRi6J4iVIu0-54" vertex="1">
          <mxGeometry x="10" y="905" width="670" height="80" as="geometry" />
        </mxCell>
        <mxCell id="JD0B_CTbyRRi6J4iVIu0-9" value="&lt;ul&gt;&lt;li&gt;&lt;span style=&quot;color: rgba(0, 0, 0, 0.87); font-family: &amp;quot;Mona Sans&amp;quot;, -apple-system, BlinkMacSystemFont, Helvetica, Arial, sans-serif; font-size: 16px; font-style: normal; font-variant-ligatures: normal; font-variant-caps: normal; font-weight: 400; letter-spacing: normal; orphans: 2; text-align: start; text-indent: 0px; text-transform: none; widows: 2; word-spacing: 0px; -webkit-text-stroke-width: 0px; white-space: normal; background-color: rgb(250, 250, 250); text-decoration-thickness: initial; text-decoration-style: initial; text-decoration-color: initial; float: none; display: inline !important;&quot;&gt;&lt;span&gt;&amp;nbsp;&lt;/span&gt;the borrower can choose between 4 and 50 bands.&lt;/span&gt;&lt;/li&gt;&lt;li&gt;&lt;span style=&quot;color: rgba(0, 0, 0, 0.87); font-family: &amp;quot;Mona Sans&amp;quot;, -apple-system, BlinkMacSystemFont, Helvetica, Arial, sans-serif; font-size: 16px; font-style: normal; font-variant-ligatures: normal; font-variant-caps: normal; font-weight: 400; letter-spacing: normal; orphans: 2; text-align: start; text-indent: 0px; text-transform: none; widows: 2; word-spacing: 0px; -webkit-text-stroke-width: 0px; white-space: normal; background-color: rgb(250, 250, 250); text-decoration-thickness: initial; text-decoration-style: initial; text-decoration-color: initial; float: none; display: inline !important;&quot;&gt;The collateral is then distributed equally across all selected bands&lt;/span&gt;&lt;/li&gt;&lt;li&gt;&lt;span style=&quot;color: rgba(0, 0, 0, 0.87); font-family: &amp;quot;Mona Sans&amp;quot;, -apple-system, BlinkMacSystemFont, Helvetica, Arial, sans-serif; font-size: 16px; font-style: normal; font-variant-ligatures: normal; font-variant-caps: normal; font-weight: 400; letter-spacing: normal; orphans: 2; text-align: start; text-indent: 0px; text-transform: none; widows: 2; word-spacing: 0px; -webkit-text-stroke-width: 0px; white-space: normal; background-color: rgb(250, 250, 250); text-decoration-thickness: initial; text-decoration-style: initial; text-decoration-color: initial; float: none; display: inline !important;&quot;&gt;&amp;nbsp;Together, these bands make up the full liquidation range.&lt;/span&gt;&lt;/li&gt;&lt;li&gt;&lt;span style=&quot;color: rgba(0, 0, 0, 0.87); font-family: &amp;quot;Mona Sans&amp;quot;, -apple-system, BlinkMacSystemFont, Helvetica, Arial, sans-serif; font-size: 16px; font-style: normal; font-variant-ligatures: normal; font-variant-caps: normal; font-weight: 400; letter-spacing: normal; orphans: 2; text-align: start; text-indent: 0px; text-transform: none; widows: 2; word-spacing: 0px; -webkit-text-stroke-width: 0px; white-space: normal; background-color: rgb(250, 250, 250); text-decoration-thickness: initial; text-decoration-style: initial; text-decoration-color: initial; float: none; display: inline !important;&quot;&gt;hard liquidations triggered when health == 0%&lt;/span&gt;&lt;/li&gt;&lt;li&gt;&lt;span style=&quot;color: rgba(0, 0, 0, 0.87); font-family: &amp;quot;Mona Sans&amp;quot;, -apple-system, BlinkMacSystemFont, Helvetica, Arial, sans-serif; font-size: 16px; font-style: normal; font-variant-ligatures: normal; font-variant-caps: normal; font-weight: 400; letter-spacing: normal; orphans: 2; text-align: start; text-indent: 0px; text-transform: none; widows: 2; word-spacing: 0px; -webkit-text-stroke-width: 0px; white-space: normal; background-color: rgb(250, 250, 250); text-decoration-thickness: initial; text-decoration-style: initial; text-decoration-color: initial; float: none; display: inline !important;&quot;&gt;self liquidations are supported to allow users to save liquidation penalties&lt;br&gt;&lt;br&gt;&lt;/span&gt;&lt;/li&gt;&lt;/ul&gt;" style="text;whiteSpace=wrap;html=1;" parent="JD0B_CTbyRRi6J4iVIu0-54" vertex="1">
          <mxGeometry width="400" height="200" as="geometry" />
        </mxCell>
        <mxCell id="JD0B_CTbyRRi6J4iVIu0-18" value="- alice creates debt position with 10 bands&#xa;&#xa;- bands span from $2000 - $3000 &#xa;&#xa;- i.e , $100 per band&#xa;&#xa;- alice&#39;s collateral == $100 ETH @3100&#xa;&#xa;- alice&#39;s debt == $80 crvUSD&#xa;&#xa;- now lets abstract away, liquidity threshold, health factors and penalties....&#xa;&#xa;- suppose ETH drops to $2900&#xa;&#xa;- band no 10 of alice will get liquidated (converted into crvUSD), taking away $10 eth collateral + liquidation penalties&#xa;&#xa;- Now alice&#39;s collateral would be:&#xa;- y0 == $100 ETH - $10 ETH - penalty&#xa;&#xa;- Eth rises to $3100 again&#xa;&#xa;- alice is now outside of liquidation range&#xa;&#xa;- so the earlier liquidated amount $10 crvUSD will be again converted into ETH and added to alice&#39;s position as collateral&#xa;&#xa;- but considering slippage and fees, alice&#39;s actual collateral would be:&#xa;- y1 == y0 + ($10 ETH -  (slippage + amm_fees) )" style="text;whiteSpace=wrap;fontSize=16;align=left;fontStyle=2" parent="JD0B_CTbyRRi6J4iVIu0-54" vertex="1">
          <mxGeometry x="25" y="295" width="640" height="575" as="geometry" />
        </mxCell>
        <mxCell id="JD0B_CTbyRRi6J4iVIu0-21" value="&lt;font face=&quot;Helvetica&quot; style=&quot;font-size: 20px;&quot;&gt;EXAMPLE&lt;/font&gt;" style="rounded=0;whiteSpace=wrap;html=1;fillColor=#d5e8d4;strokeColor=#82b366;" parent="JD0B_CTbyRRi6J4iVIu0-54" vertex="1">
          <mxGeometry x="25" y="240" width="120" height="35" as="geometry" />
        </mxCell>
        <mxCell id="JD0B_CTbyRRi6J4iVIu0-55" value="" style="group" parent="1" vertex="1" connectable="0">
          <mxGeometry x="12840" y="120" width="517.5" height="517.5" as="geometry" />
        </mxCell>
        <mxCell id="JD0B_CTbyRRi6J4iVIu0-4" value="&lt;font face=&quot;Garamond&quot; style=&quot;font-size: 20px;&quot;&gt;&lt;b&gt;RESEARCH:&lt;/b&gt; How arbitrages rebalance pools ? how is then positions liquidated and deliquidated accordingly? how will this system work when the price of debt asset will rise ? since crvUSD is stablecoin, this will require extra research to find out !&lt;/font&gt;" style="rounded=0;whiteSpace=wrap;html=1;fillColor=#fff2cc;strokeColor=#d6b656;" parent="JD0B_CTbyRRi6J4iVIu0-55" vertex="1">
          <mxGeometry y="355" width="517.5" height="105" as="geometry" />
        </mxCell>
        <UserObject label="https://resources.curve.finance/crvusd/advanced-liquidation/" link="https://resources.curve.finance/crvusd/advanced-liquidation/" id="JD0B_CTbyRRi6J4iVIu0-12">
          <mxCell style="text;whiteSpace=wrap;fillColor=#e1d5e7;strokeColor=#9673a6;dashed=1;" parent="JD0B_CTbyRRi6J4iVIu0-55" vertex="1">
            <mxGeometry x="1" y="492.5" width="332.5" height="25" as="geometry" />
          </mxCell>
        </UserObject>
        <mxCell id="JD0B_CTbyRRi6J4iVIu0-22" value="&lt;span style=&quot;font-size: 20px;&quot;&gt;&lt;font face=&quot;Helvetica&quot;&gt;DISADVANTAGES&lt;/font&gt;&lt;/span&gt;" style="rounded=0;whiteSpace=wrap;html=1;fillColor=#f8cecc;strokeColor=#b85450;" parent="JD0B_CTbyRRi6J4iVIu0-55" vertex="1">
          <mxGeometry x="2" width="220" height="67.5" as="geometry" />
        </mxCell>
        <mxCell id="JD0B_CTbyRRi6J4iVIu0-23" value="- liquidations and deliquidations accumulate losses : penalty, amm_fees, slippage&#xa;&#xa;&#xa;- dependence on arbitragers for pool rebalancing&#xa;&#xa;&#xa;- single collateral and debt restriction, ETH &lt;-&gt; USDC " style="text;whiteSpace=wrap;fontSize=16;fontStyle=2" parent="JD0B_CTbyRRi6J4iVIu0-55" vertex="1">
          <mxGeometry x="1" y="105" width="470" height="172.5" as="geometry" />
        </mxCell>
        <mxCell id="JD0B_CTbyRRi6J4iVIu0-56" value="" style="group" parent="1" vertex="1" connectable="0">
          <mxGeometry x="1750" y="160" width="560" height="590" as="geometry" />
        </mxCell>
        <mxCell id="JD0B_CTbyRRi6J4iVIu0-37" value="Lets give example of usdc and bonk, where alice puts $100 eth as collateral and alice takes $20 worth of debt:&#xa;&#xa;&#xa;- usdc&#xa;LTV = $20 USDC * 1 BF / $100 ETH * 100&#xa;LTV = 20%    &#xa;&#xa;&#xa;- bonk&#xa;LTV = $20 BONK * 2 BF / $100 ETH * 100&#xa;LTV = 40%&#xa;&#xa;&#xa;Notice how the LTV changes depending on the borrow factor: even though the debt amount is the same ($20), different borrow factors produce different effective LTVs." style="text;whiteSpace=wrap;fontFamily=Helvetica;fontSize=14;" parent="JD0B_CTbyRRi6J4iVIu0-56" vertex="1">
          <mxGeometry y="60" width="560" height="250" as="geometry" />
        </mxCell>
        <mxCell id="JD0B_CTbyRRi6J4iVIu0-39" value="&lt;font face=&quot;Helvetica&quot; style=&quot;font-size: 20px;&quot;&gt;EXAMPLE&lt;/font&gt;" style="rounded=0;whiteSpace=wrap;html=1;fillColor=#d5e8d4;strokeColor=#82b366;" parent="JD0B_CTbyRRi6J4iVIu0-56" vertex="1">
          <mxGeometry width="120" height="35" as="geometry" />
        </mxCell>
        <mxCell id="JD0B_CTbyRRi6J4iVIu0-41" value="&quot;&quot;&quot;   Note these &#xa;- LTV = Current position health&#xa;- Max LTV = Borrowing limit of your position - gives a buffer between Liquidation LTV&#xa;- Liquidation LTV = The LTV at which your position becomes eligible for liquidation&#xa;&#xa;&#xa;Note that Max LTV is set by governance, example SOL has Max LTV of 80%, different assets can have different LTVS&#xa;&#xa;&#xa;Suppose alice took Sol as debt, since sol has max_ltv of 80%, therefore until his LTV remains under 80% his position is safe, as the LTV crosses this threshold , he is eligible for liquidations     &quot;&quot;&quot;" style="text;whiteSpace=wrap;fontStyle=2;fillColor=#f5f5f5;fontColor=#333333;strokeColor=none;" parent="JD0B_CTbyRRi6J4iVIu0-56" vertex="1">
          <mxGeometry y="390" width="560" height="200" as="geometry" />
        </mxCell>
        <mxCell id="JD0B_CTbyRRi6J4iVIu0-57" value="" style="group" parent="1" vertex="1" connectable="0">
          <mxGeometry x="920" y="205" width="560" height="325" as="geometry" />
        </mxCell>
        <mxCell id="Ft7cri6jm7fnDjUre7Sv-14" value="&lt;span style=&quot;color: rgb(28, 29, 31); font-family: &amp;quot;Source Sans 3&amp;quot;, &amp;quot;Source Sans 3 Fallback&amp;quot;, system-ui, arial; font-weight: 600; letter-spacing: -0.3px; text-align: start; white-space-collapse: preserve;&quot;&gt;&lt;font style=&quot;font-size: 18px;&quot;&gt;BORROW FACTOR&lt;/font&gt;&lt;/span&gt;" style="rounded=0;whiteSpace=wrap;html=1;fillColor=#f8cecc;strokeColor=#b85450;" parent="JD0B_CTbyRRi6J4iVIu0-57" vertex="1">
          <mxGeometry width="200" height="60" as="geometry" />
        </mxCell>
        <UserObject label="&lt;i&gt;&lt;span style=&quot;color: rgb(28, 29, 31); font-size: medium; font-variant-ligatures: normal; font-variant-caps: normal; font-weight: 400; letter-spacing: normal; orphans: 2; text-align: start; text-indent: 0px; text-transform: none; widows: 2; word-spacing: 0px; -webkit-text-stroke-width: 0px; white-space: pre-wrap; background-color: rgb(255, 255, 255); text-decoration-thickness: initial; text-decoration-style: initial; text-decoration-color: initial; float: none; display: inline !important;&quot;&gt;&quot; Borrow factors (BFs) are risk-adjusted borrow values assigned to each asset on K-Lend. This determines the borrowing capacity of a debt asset within a loan, based on its &lt;/span&gt;&lt;a class=&quot;underline decoration-[max(0.07em,1px)] underline-offset-2 links-accent:underline-offset-4 links-default:decoration-primary/6 links-default:text-primary-subtle hover:links-default:text-primary-strong contrast-more:links-default:text-primary contrast-more:hover:links-default:text-primary-strong links-accent:decoration-primary-subtle hover:links-accent:decoration-[3px] hover:links-accent:[text-decoration-skip-ink:none] transition-all duration-100&quot; data-state=&quot;closed&quot; href=&quot;https://docs.kamino.finance/risk/liquidity-risk/introduction&quot; style=&quot;box-sizing: border-box; border: 0px solid oklch(0.928 0.006 264.531); margin: 0px; padding: 0px; scrollbar-color: rgb(213, 217, 224) rgba(0, 0, 0, 0); scrollbar-width: thin; color: rgb(52, 109, 219); text-decoration-line: underline; text-decoration-thickness: max(0.07em, 1px); text-decoration-style: inherit; text-decoration-color: oklab(0.537319 -0.00985357 -0.0711012 / 0.4); text-underline-offset: 2px; transition-property: all; transition-timing-function: cubic-bezier(0.4, 0, 0.2, 1); transition-duration: 0.1s; --tw-duration: .1s; font-size: medium; font-variant-ligatures: normal; font-variant-caps: normal; font-weight: 400; letter-spacing: normal; orphans: 2; text-align: start; text-indent: 0px; text-transform: none; widows: 2; word-spacing: 0px; -webkit-text-stroke-width: 0px; white-space: pre-wrap; background-color: rgb(255, 255, 255);&quot;&gt;Asset Risk Score&lt;/a&gt;&lt;span style=&quot;color: rgb(28, 29, 31); font-size: medium; font-variant-ligatures: normal; font-variant-caps: normal; font-weight: 400; letter-spacing: normal; orphans: 2; text-align: start; text-indent: 0px; text-transform: none; widows: 2; word-spacing: 0px; -webkit-text-stroke-width: 0px; white-space: pre-wrap; background-color: rgb(255, 255, 255); text-decoration-thickness: initial; text-decoration-style: initial; text-decoration-color: initial; float: none; display: inline !important;&quot;&gt;. &quot;&lt;/span&gt;&lt;/i&gt;&lt;div&gt;&lt;font size=&quot;3&quot; face=&quot;Source Sans 3, Source Sans 3 Fallback, system-ui, arial&quot; color=&quot;#1c1d1f&quot;&gt;&lt;span style=&quot;white-space-collapse: preserve;&quot;&gt;&lt;br&gt;&lt;/span&gt;&lt;/font&gt;&lt;/div&gt;&lt;div&gt;&lt;font size=&quot;3&quot; face=&quot;Source Sans 3, Source Sans 3 Fallback, system-ui, arial&quot; color=&quot;#1c1d1f&quot;&gt;&lt;span style=&quot;white-space-collapse: preserve;&quot;&gt;Example : &lt;/span&gt;&lt;/font&gt;&lt;/div&gt;&lt;div&gt;&lt;font size=&quot;3&quot; face=&quot;Source Sans 3, Source Sans 3 Fallback, system-ui, arial&quot; color=&quot;#1c1d1f&quot;&gt;&lt;span style=&quot;white-space-collapse: preserve;&quot;&gt;&lt;br&gt;&lt;/span&gt;&lt;/font&gt;&lt;/div&gt;&lt;div&gt;&lt;span style=&quot;color: rgb(28, 29, 31); font-family: &amp;quot;Source Sans 3&amp;quot;, &amp;quot;Source Sans 3 Fallback&amp;quot;, system-ui, arial; font-size: medium; white-space-collapse: preserve; background-color: rgb(255, 255, 255);&quot;&gt;USDC is deemed a less risky asset than BONK.&lt;/span&gt;&lt;font size=&quot;3&quot; face=&quot;Source Sans 3, Source Sans 3 Fallback, system-ui, arial&quot; color=&quot;#1c1d1f&quot;&gt;&lt;span style=&quot;white-space-collapse: preserve;&quot;&gt;&lt;/span&gt;&lt;/font&gt;&lt;/div&gt;&lt;div&gt;&lt;font size=&quot;3&quot; face=&quot;Source Sans 3, Source Sans 3 Fallback, system-ui, arial&quot; color=&quot;#1c1d1f&quot;&gt;&lt;span style=&quot;white-space-collapse: preserve; background-color: rgb(255, 255, 255);&quot;&gt;- USDC BF == 1&lt;/span&gt;&lt;/font&gt;&lt;/div&gt;&lt;div&gt;&lt;font size=&quot;3&quot; face=&quot;Source Sans 3, Source Sans 3 Fallback, system-ui, arial&quot; color=&quot;#1c1d1f&quot;&gt;&lt;span style=&quot;white-space-collapse: preserve; background-color: rgb(255, 255, 255);&quot;&gt;- BONK BF == 2&lt;/span&gt;&lt;/font&gt;&lt;/div&gt;&lt;div&gt;&lt;font size=&quot;3&quot; face=&quot;Source Sans 3, Source Sans 3 Fallback, system-ui, arial&quot; color=&quot;#1c1d1f&quot;&gt;&lt;span style=&quot;white-space-collapse: preserve;&quot;&gt;&lt;br&gt;&lt;/span&gt;&lt;/font&gt;&lt;div&gt;&lt;span style=&quot;background-color: light-dark(rgb(255, 255, 255), rgb(18, 18, 18)); white-space-collapse: preserve; color: light-dark(rgb(28, 29, 31), rgb(211, 212, 214)); font-size: medium;&quot;&gt;Note : these are assigned by governance&lt;/span&gt;&lt;/div&gt;&lt;/div&gt;" link="&lt;span style=&quot;color: rgb(28, 29, 31); font-family: &amp;quot;Source Sans 3&amp;quot;, &amp;quot;Source Sans 3 Fallback&amp;quot;, system-ui, arial; font-size: medium; font-style: normal; font-variant-ligatures: normal; font-variant-caps: normal; font-weight: 400; letter-spacing: normal; orphans: 2; text-align: start; text-indent: 0px; text-transform: none; widows: 2; word-spacing: 0px; -webkit-text-stroke-width: 0px; white-space: pre-wrap; background-color: rgb(255, 255, 255); text-decoration-thickness: initial; text-decoration-style: initial; text-decoration-color: initial; display: inline !important; float: none;&quot;&gt;Borrow factors (BFs) are risk-adjusted borrow values assigned to each asset on K-Lend. This determines the borrowing capacity of a debt asset within a loan, based on its &lt;/span&gt;&lt;a class=&quot;underline decoration-[max(0.07em,1px)] underline-offset-2 links-accent:underline-offset-4 links-default:decoration-primary/6 links-default:text-primary-subtle hover:links-default:text-primary-strong contrast-more:links-default:text-primary contrast-more:hover:links-default:text-primary-strong links-accent:decoration-primary-subtle hover:links-accent:decoration-[3px] hover:links-accent:[text-decoration-skip-ink:none] transition-all duration-100&quot; data-state=&quot;closed&quot; href=&quot;https://docs.kamino.finance/risk/liquidity-risk/introduction&quot; style=&quot;box-sizing: border-box; border: 0px solid oklch(0.928 0.006 264.531); margin: 0px; padding: 0px; scrollbar-color: rgb(213, 217, 224) rgba(0, 0, 0, 0); scrollbar-width: thin; color: rgb(52, 109, 219); text-decoration-line: underline; text-decoration-thickness: max(0.07em, 1px); text-decoration-style: inherit; text-decoration-color: oklab(0.537319 -0.00985357 -0.0711012 / 0.4); text-underline-offset: 2px; transition-property: all; transition-timing-function: cubic-bezier(0.4, 0, 0.2, 1); transition-duration: 0.1s; --tw-duration: .1s; font-family: &amp;quot;Source Sans 3&amp;quot;, &amp;quot;Source Sans 3 Fallback&amp;quot;, system-ui, arial; font-size: medium; font-style: normal; font-variant-ligatures: normal; font-variant-caps: normal; font-weight: 400; letter-spacing: normal; orphans: 2; text-align: start; text-indent: 0px; text-transform: none; widows: 2; word-spacing: 0px; -webkit-text-stroke-width: 0px; white-space: pre-wrap; background-color: rgb(255, 255, 255);&quot;&gt;Asset Risk Score&lt;/a&gt;&lt;span style=&quot;color: rgb(28, 29, 31); font-family: &amp;quot;Source Sans 3&amp;quot;, &amp;quot;Source Sans 3 Fallback&amp;quot;, system-ui, arial; font-size: medium; font-style: normal; font-variant-ligatures: normal; font-variant-caps: normal; font-weight: 400; letter-spacing: normal; orphans: 2; text-align: start; text-indent: 0px; text-transform: none; widows: 2; word-spacing: 0px; -webkit-text-stroke-width: 0px; white-space: pre-wrap; background-color: rgb(255, 255, 255); text-decoration-thickness: initial; text-decoration-style: initial; text-decoration-color: initial; display: inline !important; float: none;&quot;&gt;.&lt;/span&gt;" id="JD0B_CTbyRRi6J4iVIu0-27">
          <mxCell style="text;whiteSpace=wrap;html=1;" parent="JD0B_CTbyRRi6J4iVIu0-57" vertex="1">
            <mxGeometry y="85" width="560" height="240" as="geometry" />
          </mxCell>
        </UserObject>
        <mxCell id="JD0B_CTbyRRi6J4iVIu0-58" value="" style="group" parent="1" vertex="1" connectable="0">
          <mxGeometry x="930" y="560" width="650" height="440" as="geometry" />
        </mxCell>
        <mxCell id="JD0B_CTbyRRi6J4iVIu0-29" style="edgeStyle=orthogonalEdgeStyle;rounded=0;orthogonalLoop=1;jettySize=auto;html=1;exitX=0.5;exitY=1;exitDx=0;exitDy=0;entryX=0.5;entryY=0;entryDx=0;entryDy=0;" parent="JD0B_CTbyRRi6J4iVIu0-58" source="Ft7cri6jm7fnDjUre7Sv-4" target="Ft7cri6jm7fnDjUre7Sv-19" edge="1">
          <mxGeometry relative="1" as="geometry" />
        </mxCell>
        <mxCell id="Ft7cri6jm7fnDjUre7Sv-4" value="&lt;font style=&quot;font-size: 22px;&quot;&gt;LTV&lt;/font&gt;" style="rounded=0;whiteSpace=wrap;html=1;fillColor=#fff2cc;strokeColor=#d6b656;" parent="JD0B_CTbyRRi6J4iVIu0-58" vertex="1">
          <mxGeometry width="120" height="60" as="geometry" />
        </mxCell>
        <mxCell id="JD0B_CTbyRRi6J4iVIu0-30" style="edgeStyle=orthogonalEdgeStyle;rounded=0;orthogonalLoop=1;jettySize=auto;html=1;exitX=0.5;exitY=1;exitDx=0;exitDy=0;" parent="JD0B_CTbyRRi6J4iVIu0-58" source="Ft7cri6jm7fnDjUre7Sv-19" target="Ft7cri6jm7fnDjUre7Sv-21" edge="1">
          <mxGeometry relative="1" as="geometry" />
        </mxCell>
        <mxCell id="Ft7cri6jm7fnDjUre7Sv-19" value="&lt;i&gt;ratio of debt and collateral&lt;/i&gt;" style="whiteSpace=wrap;html=1;fillColor=#f5f5f5;strokeColor=#666666;fontColor=#333333;" parent="JD0B_CTbyRRi6J4iVIu0-58" vertex="1">
          <mxGeometry x="80" y="105" width="180" height="25" as="geometry" />
        </mxCell>
        <mxCell id="JD0B_CTbyRRi6J4iVIu0-33" style="edgeStyle=orthogonalEdgeStyle;rounded=0;orthogonalLoop=1;jettySize=auto;html=1;exitX=0.25;exitY=1;exitDx=0;exitDy=0;entryX=0;entryY=0.5;entryDx=0;entryDy=0;" parent="JD0B_CTbyRRi6J4iVIu0-58" source="Ft7cri6jm7fnDjUre7Sv-21" target="JD0B_CTbyRRi6J4iVIu0-31" edge="1">
          <mxGeometry relative="1" as="geometry" />
        </mxCell>
        <mxCell id="JD0B_CTbyRRi6J4iVIu0-36" style="edgeStyle=orthogonalEdgeStyle;rounded=0;orthogonalLoop=1;jettySize=auto;html=1;exitX=1;exitY=0.5;exitDx=0;exitDy=0;entryX=1;entryY=0.5;entryDx=0;entryDy=0;" parent="JD0B_CTbyRRi6J4iVIu0-58" source="Ft7cri6jm7fnDjUre7Sv-21" target="JD0B_CTbyRRi6J4iVIu0-34" edge="1">
          <mxGeometry relative="1" as="geometry" />
        </mxCell>
        <mxCell id="Ft7cri6jm7fnDjUre7Sv-21" value="&lt;span style=&quot;color: rgb(28, 29, 31); font-size: 14px; text-align: start; white-space-collapse: preserve;&quot;&gt;&lt;i style=&quot;&quot;&gt;&lt;font face=&quot;Courier New&quot;&gt;risk_adjusted_debt_value / collateral_value * 100&lt;/font&gt;&lt;/i&gt;&lt;/span&gt;" style="whiteSpace=wrap;html=1;rounded=0;fillColor=#f5f5f5;fontColor=#333333;strokeColor=#666666;" parent="JD0B_CTbyRRi6J4iVIu0-58" vertex="1">
          <mxGeometry x="160" y="170" width="410" height="40" as="geometry" />
        </mxCell>
        <mxCell id="JD0B_CTbyRRi6J4iVIu0-31" value="Note risk adjusted debt value is the product of borrow factor and the value of debt asset" style="text;whiteSpace=wrap;fontSize=14;fontStyle=2;fillColor=none;strokeColor=default;" parent="JD0B_CTbyRRi6J4iVIu0-58" vertex="1">
          <mxGeometry y="262.5" width="500" height="45" as="geometry" />
        </mxCell>
        <mxCell id="JD0B_CTbyRRi6J4iVIu0-34" value="&lt;i style=&quot;&quot;&gt;&lt;font style=&quot;font-size: 16px;&quot;&gt;value(debt) * BF(debt_asset) / collateral_value * 100&lt;/font&gt;&lt;/i&gt;&lt;div style=&quot;forced-color-adjust: none; padding: 0px; margin: 0px;&quot;&gt;&lt;br style=&quot;forced-color-adjust: none; padding: 0px; margin: 0px; color: rgb(0, 0, 0); font-family: Helvetica; font-size: 14px; font-style: italic; font-variant-ligatures: normal; font-variant-caps: normal; font-weight: 400; letter-spacing: normal; orphans: 2; text-align: left; text-indent: 0px; text-transform: none; widows: 2; word-spacing: 0px; -webkit-text-stroke-width: 0px; white-space: normal; background-color: rgb(236, 236, 236); text-decoration-thickness: initial; text-decoration-style: initial; text-decoration-color: initial;&quot;&gt;&lt;br&gt;&lt;br&gt;&lt;/div&gt;" style="text;whiteSpace=wrap;html=1;strokeColor=#666666;fillColor=#f5f5f5;fontColor=#333333;" parent="JD0B_CTbyRRi6J4iVIu0-58" vertex="1">
          <mxGeometry x="250" y="400" width="400" height="40" as="geometry" />
        </mxCell>
        <mxCell id="JD0B_CTbyRRi6J4iVIu0-59" value="HIGHER THE LTV , WORSE THE POSITION FOR PROTOCOL" style="text;whiteSpace=wrap;fillColor=#e1d5e7;strokeColor=none;" parent="JD0B_CTbyRRi6J4iVIu0-58" vertex="1">
          <mxGeometry x="280" width="370" height="30" as="geometry" />
        </mxCell>
        <mxCell id="3ofdXOLbKWFfFdMxITbS-5" value="" style="group" vertex="1" connectable="0" parent="1">
          <mxGeometry x="2685" y="190" width="580" height="418" as="geometry" />
        </mxCell>
        <mxCell id="JD0B_CTbyRRi6J4iVIu0-51" value="" style="group" parent="3ofdXOLbKWFfFdMxITbS-5" vertex="1" connectable="0">
          <mxGeometry x="10" width="570" height="230" as="geometry" />
        </mxCell>
        <mxCell id="JD0B_CTbyRRi6J4iVIu0-45" style="edgeStyle=orthogonalEdgeStyle;rounded=0;orthogonalLoop=1;jettySize=auto;html=1;exitX=0;exitY=0.5;exitDx=0;exitDy=0;entryX=0;entryY=0.5;entryDx=0;entryDy=0;" parent="JD0B_CTbyRRi6J4iVIu0-51" source="Ft7cri6jm7fnDjUre7Sv-25" target="JD0B_CTbyRRi6J4iVIu0-44" edge="1">
          <mxGeometry relative="1" as="geometry" />
        </mxCell>
        <mxCell id="Ft7cri6jm7fnDjUre7Sv-25" value="&lt;span style=&quot;color: rgb(28, 29, 31); font-family: &amp;quot;Source Sans 3&amp;quot;, &amp;quot;Source Sans 3 Fallback&amp;quot;, system-ui, arial; font-weight: 600; letter-spacing: -0.3px; text-align: start; white-space-collapse: preserve;&quot;&gt;&lt;font style=&quot;font-size: 18px;&quot;&gt;BORROW CAPACITY&lt;/font&gt;&lt;/span&gt;" style="rounded=0;whiteSpace=wrap;html=1;fillColor=#dae8fc;strokeColor=#6c8ebf;" parent="JD0B_CTbyRRi6J4iVIu0-51" vertex="1">
          <mxGeometry x="10" width="170" height="40" as="geometry" />
        </mxCell>
        <mxCell id="JD0B_CTbyRRi6J4iVIu0-42" value="&quot;&quot;&quot; K-Lend combines LTV and BF to express a weighted borrowing capacity based on the asset composition of a position. This allows the protocol much more flexibility in assessing the risk of each position on the platform. &quot;&quot;&quot;" style="text;whiteSpace=wrap;fillColor=#f5f5f5;fontColor=#333333;strokeColor=none;" parent="JD0B_CTbyRRi6J4iVIu0-51" vertex="1">
          <mxGeometry x="10" y="60" width="560" height="70" as="geometry" />
        </mxCell>
        <mxCell id="JD0B_CTbyRRi6J4iVIu0-43" value="&lt;u&gt;borrow capacity gives the dollar value of how much of debt can be taken at a given value of collateral&lt;/u&gt;" style="text;html=1;align=center;verticalAlign=middle;resizable=0;points=[];autosize=1;strokeColor=none;fillColor=none;" parent="JD0B_CTbyRRi6J4iVIu0-51" vertex="1">
          <mxGeometry y="150" width="560" height="30" as="geometry" />
        </mxCell>
        <mxCell id="JD0B_CTbyRRi6J4iVIu0-44" value="(Collateral Value * Collateral MAX_LTV) / Debt Borrow_Factor" style="text;whiteSpace=wrap;fillColor=#f5f5f5;fontColor=#333333;strokeColor=#666666;fontFamily=Helvetica;fontSize=13;" parent="JD0B_CTbyRRi6J4iVIu0-51" vertex="1">
          <mxGeometry x="20" y="200" width="370" height="30" as="geometry" />
        </mxCell>
        <mxCell id="JD0B_CTbyRRi6J4iVIu0-52" value="" style="group" parent="3ofdXOLbKWFfFdMxITbS-5" vertex="1" connectable="0">
          <mxGeometry y="313" width="520" height="105" as="geometry" />
        </mxCell>
        <mxCell id="JD0B_CTbyRRi6J4iVIu0-48" value="" style="edgeStyle=orthogonalEdgeStyle;rounded=0;orthogonalLoop=1;jettySize=auto;html=1;" parent="JD0B_CTbyRRi6J4iVIu0-52" source="JD0B_CTbyRRi6J4iVIu0-46" target="JD0B_CTbyRRi6J4iVIu0-47" edge="1">
          <mxGeometry relative="1" as="geometry" />
        </mxCell>
        <mxCell id="JD0B_CTbyRRi6J4iVIu0-46" value="&lt;span style=&quot;color: rgb(28, 29, 31); letter-spacing: -0.3px; text-align: start; white-space-collapse: preserve;&quot;&gt;&lt;font face=&quot;Helvetica&quot; style=&quot;font-size: 14px;&quot;&gt;question&lt;/font&gt;&lt;/span&gt;" style="rounded=0;whiteSpace=wrap;html=1;fillColor=#f8cecc;strokeColor=#b85450;" parent="JD0B_CTbyRRi6J4iVIu0-52" vertex="1">
          <mxGeometry y="20" width="80" height="30" as="geometry" />
        </mxCell>
        <mxCell id="JD0B_CTbyRRi6J4iVIu0-50" value="" style="edgeStyle=orthogonalEdgeStyle;rounded=0;orthogonalLoop=1;jettySize=auto;html=1;" parent="JD0B_CTbyRRi6J4iVIu0-52" source="JD0B_CTbyRRi6J4iVIu0-47" target="JD0B_CTbyRRi6J4iVIu0-49" edge="1">
          <mxGeometry relative="1" as="geometry" />
        </mxCell>
        <mxCell id="JD0B_CTbyRRi6J4iVIu0-47" value="&lt;font style=&quot;font-size: 11px;&quot;&gt;COLLATERAL == $38 SOL&lt;/font&gt;&lt;div&gt;&lt;font style=&quot;font-size: 11px;&quot;&gt;&lt;br&gt;&lt;/font&gt;&lt;div&gt;&lt;font style=&quot;font-size: 11px;&quot;&gt;SOL MAX_LTV == 80%&lt;/font&gt;&lt;/div&gt;&lt;/div&gt;&lt;div&gt;&lt;font style=&quot;font-size: 11px;&quot;&gt;&lt;br&gt;&lt;/font&gt;&lt;/div&gt;&lt;div&gt;&lt;font style=&quot;font-size: 11px;&quot;&gt;DEBT == BONK&lt;/font&gt;&lt;/div&gt;&lt;div&gt;&lt;font style=&quot;font-size: 11px;&quot;&gt;&lt;br&gt;&lt;/font&gt;&lt;/div&gt;&lt;div&gt;&lt;font style=&quot;font-size: 11px;&quot;&gt;BONK BORROW_FACTOR == 2&lt;/font&gt;&lt;/div&gt;" style="whiteSpace=wrap;html=1;fillColor=#f8cecc;strokeColor=#b85450;rounded=0;align=left;" parent="JD0B_CTbyRRi6J4iVIu0-52" vertex="1">
          <mxGeometry x="120" width="230" height="105" as="geometry" />
        </mxCell>
        <mxCell id="JD0B_CTbyRRi6J4iVIu0-49" value="&lt;span style=&quot;font-size: 10px;&quot;&gt;BORROW&lt;br&gt;CAPACITY ??&lt;/span&gt;" style="rhombus;whiteSpace=wrap;html=1;align=center;fillColor=#f8cecc;strokeColor=#b85450;rounded=0;" parent="JD0B_CTbyRRi6J4iVIu0-52" vertex="1">
          <mxGeometry x="430" y="11.25" width="90" height="82.5" as="geometry" />
        </mxCell>
        <mxCell id="3ofdXOLbKWFfFdMxITbS-11" value="&lt;span style=&quot;color: rgb(28, 29, 31); font-family: &amp;quot;Source Sans 3&amp;quot;, &amp;quot;Source Sans 3 Fallback&amp;quot;, system-ui, arial; font-weight: 600; letter-spacing: -0.3px; text-align: start; white-space-collapse: preserve;&quot;&gt;&lt;font style=&quot;font-size: 18px;&quot;&gt;LIQUIDATIONS&lt;/font&gt;&lt;/span&gt;" style="rounded=0;whiteSpace=wrap;html=1;fillColor=#d5e8d4;strokeColor=#82b366;" vertex="1" parent="1">
          <mxGeometry x="3650" y="120" width="272.5" height="40" as="geometry" />
        </mxCell>
        <mxCell id="3ofdXOLbKWFfFdMxITbS-22" value="" style="group" vertex="1" connectable="0" parent="1">
          <mxGeometry x="4320" y="280" width="560" height="767.5" as="geometry" />
        </mxCell>
        <mxCell id="3ofdXOLbKWFfFdMxITbS-16" value="LIQUIDATION PENALTIES " style="text;whiteSpace=wrap;fontSize=16;fillColor=#f8cecc;strokeColor=#b85450;" vertex="1" parent="3ofdXOLbKWFfFdMxITbS-22">
          <mxGeometry width="210" height="30" as="geometry" />
        </mxCell>
        <mxCell id="3ofdXOLbKWFfFdMxITbS-25" value="" style="edgeStyle=orthogonalEdgeStyle;rounded=0;orthogonalLoop=1;jettySize=auto;html=1;" edge="1" parent="3ofdXOLbKWFfFdMxITbS-22" source="3ofdXOLbKWFfFdMxITbS-17" target="3ofdXOLbKWFfFdMxITbS-19">
          <mxGeometry relative="1" as="geometry" />
        </mxCell>
        <mxCell id="3ofdXOLbKWFfFdMxITbS-17" value="- penalties imposed on borrowers for having bad position&#xa;&#xa;- act as rewards for liquidator &#xa;&#xa;- often in  ranges of 5%-10% of debt settled by liquidator" style="text;whiteSpace=wrap;fontSize=14;fontStyle=2" vertex="1" parent="3ofdXOLbKWFfFdMxITbS-22">
          <mxGeometry y="65" width="350" height="140" as="geometry" />
        </mxCell>
        <mxCell id="3ofdXOLbKWFfFdMxITbS-18" value="DYNAMIC LIQUIDATION PENALTIES" style="text;whiteSpace=wrap;fontSize=14;fillColor=#f8cecc;strokeColor=#b85450;" vertex="1" parent="3ofdXOLbKWFfFdMxITbS-22">
          <mxGeometry y="227.5" width="240" height="30" as="geometry" />
        </mxCell>
        <UserObject label="- Kamino employes dynamic liquidation penalties&#xa;- i.e -&gt; worse the position ltv, more the liquidation penalties&#xa;&#xa;- example of dynamic liquidty penalties from kamino:&#xa;     SOL -&gt; 5% - 10%&#xa;     BONK -&gt; 5% - 25%&#xa;&#xa;- read more : https://docs.kamino.finance/products/borrow-lend/position-risk-and-liquidations#liquidation-penalty-parameters\" link="- Kamino employes dynamic liquidation penalties&#xa;- i.e -&gt; worse the position ltv, more the liquidation penalties&#xa;- example of dynamic liquidty penalties from kamino:&#xa;- SOL -&gt; 5% - 10%&#xa;- BONK -&gt; 5% - 25%&#xa;- read more : https://docs.kamino.finance/products/borrow-lend/position-risk-and-liquidations#liquidation-penalty-parameters\" id="3ofdXOLbKWFfFdMxITbS-19">
          <mxCell style="text;whiteSpace=wrap;fontSize=14;fontStyle=2" vertex="1" parent="3ofdXOLbKWFfFdMxITbS-22">
            <mxGeometry y="287.5" width="560" height="170" as="geometry" />
          </mxCell>
        </UserObject>
        <mxCell id="3ofdXOLbKWFfFdMxITbS-20" value="EXAMPLE" style="text;whiteSpace=wrap;fontSize=14;fillColor=#d5e8d4;strokeColor=#82b366;" vertex="1" parent="3ofdXOLbKWFfFdMxITbS-22">
          <mxGeometry y="487.5" width="70" height="30" as="geometry" />
        </mxCell>
        <mxCell id="3ofdXOLbKWFfFdMxITbS-21" value="- for example liquidator repays $10 from your debt&#xa;&#xa;- assuming your collateral == $100, and liquidity penalty is 10%&#xa;&#xa;- first liquidator will get  $10 of assets from your collateral , (equivalent to how much debt he repaid in debt asset)&#xa;&#xa;- then he will get 10% of repaid debt from your collateral&#xa;- i.e --&gt; 10% * 10$ == $1 &#xa;&#xa;- liquidator total == $11 collateral_asset&#xa;&#xa;- your collateral will now be $100 - $11 ==&gt; $89" style="text;whiteSpace=wrap;fontSize=14;fontStyle=2" vertex="1" parent="3ofdXOLbKWFfFdMxITbS-22">
          <mxGeometry y="537.5" width="560" height="230" as="geometry" />
        </mxCell>
        <mxCell id="3ofdXOLbKWFfFdMxITbS-45" value="" style="group" vertex="1" connectable="0" parent="1">
          <mxGeometry x="3640" y="260" width="315" height="239.5" as="geometry" />
        </mxCell>
        <mxCell id="3ofdXOLbKWFfFdMxITbS-29" style="edgeStyle=orthogonalEdgeStyle;rounded=0;orthogonalLoop=1;jettySize=auto;html=1;exitX=0;exitY=1;exitDx=0;exitDy=0;" edge="1" parent="3ofdXOLbKWFfFdMxITbS-45" source="3ofdXOLbKWFfFdMxITbS-26">
          <mxGeometry relative="1" as="geometry">
            <mxPoint x="35" y="60" as="targetPoint" />
          </mxGeometry>
        </mxCell>
        <mxCell id="3ofdXOLbKWFfFdMxITbS-31" value="DEBT" style="edgeLabel;html=1;align=center;verticalAlign=middle;resizable=0;points=[];" vertex="1" connectable="0" parent="3ofdXOLbKWFfFdMxITbS-29">
          <mxGeometry x="0.1423" y="3" relative="1" as="geometry">
            <mxPoint as="offset" />
          </mxGeometry>
        </mxCell>
        <mxCell id="3ofdXOLbKWFfFdMxITbS-42" style="edgeStyle=orthogonalEdgeStyle;rounded=0;orthogonalLoop=1;jettySize=auto;html=1;exitX=0.75;exitY=1;exitDx=0;exitDy=0;" edge="1" parent="3ofdXOLbKWFfFdMxITbS-45" source="3ofdXOLbKWFfFdMxITbS-26" target="3ofdXOLbKWFfFdMxITbS-33">
          <mxGeometry relative="1" as="geometry" />
        </mxCell>
        <mxCell id="3ofdXOLbKWFfFdMxITbS-44" value="Rewarded" style="edgeLabel;html=1;align=center;verticalAlign=middle;resizable=0;points=[];" vertex="1" connectable="0" parent="3ofdXOLbKWFfFdMxITbS-42">
          <mxGeometry x="-0.0211" y="2" relative="1" as="geometry">
            <mxPoint x="1" as="offset" />
          </mxGeometry>
        </mxCell>
        <mxCell id="3ofdXOLbKWFfFdMxITbS-26" value="POOL" style="rounded=0;whiteSpace=wrap;html=1;fillColor=#dae8fc;strokeColor=#6c8ebf;" vertex="1" parent="3ofdXOLbKWFfFdMxITbS-45">
          <mxGeometry x="195" width="120" height="60" as="geometry" />
        </mxCell>
        <mxCell id="3ofdXOLbKWFfFdMxITbS-28" style="edgeStyle=orthogonalEdgeStyle;rounded=0;orthogonalLoop=1;jettySize=auto;html=1;entryX=0;entryY=0;entryDx=0;entryDy=0;exitX=0.75;exitY=0.1;exitDx=0;exitDy=0;exitPerimeter=0;" edge="1" parent="3ofdXOLbKWFfFdMxITbS-45" source="3ofdXOLbKWFfFdMxITbS-34" target="3ofdXOLbKWFfFdMxITbS-26">
          <mxGeometry relative="1" as="geometry">
            <mxPoint x="75" y="5" as="sourcePoint" />
          </mxGeometry>
        </mxCell>
        <mxCell id="3ofdXOLbKWFfFdMxITbS-30" value="COLLATERAL" style="edgeLabel;html=1;align=center;verticalAlign=middle;resizable=0;points=[];" vertex="1" connectable="0" parent="3ofdXOLbKWFfFdMxITbS-28">
          <mxGeometry x="0.0301" relative="1" as="geometry">
            <mxPoint as="offset" />
          </mxGeometry>
        </mxCell>
        <mxCell id="3ofdXOLbKWFfFdMxITbS-40" style="edgeStyle=orthogonalEdgeStyle;rounded=0;orthogonalLoop=1;jettySize=auto;html=1;exitX=0.75;exitY=0.1;exitDx=0;exitDy=0;exitPerimeter=0;entryX=0.5;entryY=1;entryDx=0;entryDy=0;" edge="1" parent="3ofdXOLbKWFfFdMxITbS-45" source="3ofdXOLbKWFfFdMxITbS-33" target="3ofdXOLbKWFfFdMxITbS-26">
          <mxGeometry relative="1" as="geometry" />
        </mxCell>
        <mxCell id="3ofdXOLbKWFfFdMxITbS-41" value="BORROWER DEBT" style="edgeLabel;html=1;align=center;verticalAlign=middle;resizable=0;points=[];" vertex="1" connectable="0" parent="3ofdXOLbKWFfFdMxITbS-40">
          <mxGeometry x="-0.468" y="1" relative="1" as="geometry">
            <mxPoint as="offset" />
          </mxGeometry>
        </mxCell>
        <mxCell id="3ofdXOLbKWFfFdMxITbS-33" value="LIQUIDATOR" style="shape=umlActor;verticalLabelPosition=bottom;verticalAlign=top;html=1;outlineConnect=0;fillColor=#d5e8d4;strokeColor=#82b366;" vertex="1" parent="3ofdXOLbKWFfFdMxITbS-45">
          <mxGeometry x="85" y="182.5" width="30" height="57" as="geometry" />
        </mxCell>
        <mxCell id="3ofdXOLbKWFfFdMxITbS-34" value="BORROWER" style="shape=umlActor;verticalLabelPosition=bottom;verticalAlign=top;html=1;outlineConnect=0;fillColor=#f8cecc;strokeColor=#b85450;" vertex="1" parent="3ofdXOLbKWFfFdMxITbS-45">
          <mxGeometry width="30" height="60" as="geometry" />
        </mxCell>
        <mxCell id="3ofdXOLbKWFfFdMxITbS-50" value="&lt;span style=&quot;color: rgb(28, 29, 31); font-family: &amp;quot;Source Sans 3&amp;quot;, &amp;quot;Source Sans 3 Fallback&amp;quot;, system-ui, arial; font-weight: 600; letter-spacing: -0.3px; text-align: start; white-space-collapse: preserve;&quot;&gt;&lt;font style=&quot;font-size: 18px;&quot;&gt;HOW DO LIQUIDATORS MAKE MONEY&lt;/font&gt;&lt;/span&gt;" style="rounded=0;whiteSpace=wrap;html=1;fillColor=#d5e8d4;strokeColor=#82b366;" vertex="1" parent="1">
          <mxGeometry x="4315" y="165" width="360" height="40" as="geometry" />
        </mxCell>
        <mxCell id="3ofdXOLbKWFfFdMxITbS-58" value="" style="group" vertex="1" connectable="0" parent="1">
          <mxGeometry x="3650" y="730" width="250" height="250" as="geometry" />
        </mxCell>
        <mxCell id="3ofdXOLbKWFfFdMxITbS-57" value="" style="whiteSpace=wrap;html=1;aspect=fixed;fillColor=#f5f5f5;strokeColor=none;fontColor=#333333;" vertex="1" parent="3ofdXOLbKWFfFdMxITbS-58">
          <mxGeometry width="250" height="250" as="geometry" />
        </mxCell>
        <mxCell id="3ofdXOLbKWFfFdMxITbS-53" value="&lt;div style=&quot;text-align: start;&quot;&gt;&lt;span style=&quot;background-color: transparent; letter-spacing: -0.3px; white-space-collapse: preserve;&quot;&gt;&lt;font style=&quot;font-size: 14px;&quot; face=&quot;Source Sans 3, Source Sans 3 Fallback, system-ui, arial&quot; color=&quot;#1c1d1f&quot;&gt;FULL/ HARD LIQUIDATION&lt;/font&gt;&lt;/span&gt;&lt;/div&gt;" style="rounded=0;whiteSpace=wrap;html=1;fillColor=#d5e8d4;strokeColor=#82b366;" vertex="1" parent="3ofdXOLbKWFfFdMxITbS-58">
          <mxGeometry x="30" y="45" width="188" height="40" as="geometry" />
        </mxCell>
        <mxCell id="3ofdXOLbKWFfFdMxITbS-54" value="&lt;span style=&quot;color: rgb(28, 29, 31); font-family: &amp;quot;Source Sans 3&amp;quot;, &amp;quot;Source Sans 3 Fallback&amp;quot;, system-ui, arial; letter-spacing: -0.3px; text-align: start; white-space-collapse: preserve;&quot;&gt;&lt;font style=&quot;font-size: 14px;&quot;&gt;PARITAL / SOFT LIQUIDATION&lt;/font&gt;&lt;/span&gt;" style="rounded=0;whiteSpace=wrap;html=1;fillColor=#d5e8d4;strokeColor=#82b366;" vertex="1" parent="3ofdXOLbKWFfFdMxITbS-58">
          <mxGeometry x="30" y="105" width="190" height="40" as="geometry" />
        </mxCell>
        <mxCell id="3ofdXOLbKWFfFdMxITbS-55" value="&lt;span style=&quot;color: rgb(28, 29, 31); font-family: &amp;quot;Source Sans 3&amp;quot;, &amp;quot;Source Sans 3 Fallback&amp;quot;, system-ui, arial; letter-spacing: -0.3px; text-align: start; white-space-collapse: preserve;&quot;&gt;&lt;font style=&quot;font-size: 14px;&quot;&gt;SELF LIQUIDATION&lt;/font&gt;&lt;/span&gt;" style="rounded=0;whiteSpace=wrap;html=1;fillColor=#d5e8d4;strokeColor=#82b366;" vertex="1" parent="3ofdXOLbKWFfFdMxITbS-58">
          <mxGeometry x="30" y="165" width="190" height="40" as="geometry" />
        </mxCell>
        <mxCell id="3ofdXOLbKWFfFdMxITbS-59" value="&lt;span style=&quot;color: rgb(28, 29, 31); font-family: &amp;quot;Source Sans 3&amp;quot;, &amp;quot;Source Sans 3 Fallback&amp;quot;, system-ui, arial; font-weight: 600; letter-spacing: -0.3px; text-align: start; white-space-collapse: preserve;&quot;&gt;&lt;font style=&quot;font-size: 18px;&quot;&gt;HARD LIQUIDATION&lt;/font&gt;&lt;/span&gt;" style="rounded=0;whiteSpace=wrap;html=1;fillColor=#f8cecc;strokeColor=#b85450;" vertex="1" parent="1">
          <mxGeometry x="5345" y="125" width="360" height="40" as="geometry" />
        </mxCell>
        <mxCell id="3ofdXOLbKWFfFdMxITbS-60" value="- Also known as full liquidations&#xa;&#xa;- all the collaterals are diluted in repaying user debt and liquidators rewards" style="text;whiteSpace=wrap;fontSize=14;fontStyle=2" vertex="1" parent="1">
          <mxGeometry x="5150" y="240" width="430" height="60" as="geometry" />
        </mxCell>
        <mxCell id="3ofdXOLbKWFfFdMxITbS-74" value="&lt;span style=&quot;color: rgb(28, 29, 31); font-family: &amp;quot;Source Sans 3&amp;quot;, &amp;quot;Source Sans 3 Fallback&amp;quot;, system-ui, arial; font-weight: 600; letter-spacing: -0.3px; text-align: start; white-space-collapse: preserve;&quot;&gt;&lt;font style=&quot;font-size: 18px;&quot;&gt;PARTIAL LIQUIDATION&lt;/font&gt;&lt;/span&gt;" style="rounded=0;whiteSpace=wrap;html=1;fillColor=#d5e8d4;strokeColor=#82b366;" vertex="1" parent="1">
          <mxGeometry x="6020" y="128.75" width="360" height="40" as="geometry" />
        </mxCell>
        <mxCell id="3ofdXOLbKWFfFdMxITbS-75" value="- also known as soft liquidation&#xa;- instead of closing entire borrower&#39;s position, portion of debt is repaid," style="text;whiteSpace=wrap;" vertex="1" parent="1">
          <mxGeometry x="6010" y="230" width="410" height="50" as="geometry" />
        </mxCell>
        <mxCell id="3ofdXOLbKWFfFdMxITbS-76" value="- user has borrowed $85 usdc with $100 eth&#xa;- LTV_0 = 85% allowed max_ltv == 80%, eligible for liquidation&#xa;&#xa;&#xa;- since it is just slighty above threshold, he wont be liquidated hardly&#xa;so it is up to the protocol on how much partial liquidation is allowed at different levels&#xa;&#xa;&#xa;so , &#xa;- liquidator will pay 40% of 85 to pool&#xa;- liquidator --&gt; $34 ---&gt; pool&#xa;- assuming liquidity penalty is 10%&#xa;- he will get $34 worth of eth collateral back + 10% * $34 (borrowers eth collateral as rewards for liquidator)&#xa;- liquidator gets :: $34.4 == $34  + $3.4&#xa;- users debt === $85 - $34 ==&gt; $51&#xa;- users collateral === $100 - $34.4 ==&gt; $65.6&#xa;- LTV_1 = $51/$65.6 ==&gt; 77.74%" style="text;whiteSpace=wrap;" vertex="1" parent="1">
          <mxGeometry x="6010" y="380" width="560" height="280" as="geometry" />
        </mxCell>
        <mxCell id="3ofdXOLbKWFfFdMxITbS-77" value="EXAMPLE" style="text;whiteSpace=wrap;fontSize=14;fillColor=#d5e8d4;strokeColor=#82b366;" vertex="1" parent="1">
          <mxGeometry x="6010" y="322.5" width="70" height="30" as="geometry" />
        </mxCell>
        <mxCell id="3ofdXOLbKWFfFdMxITbS-78" value="liquidator pays $5 usdc&#xa;liquidator == 5 + 0.5 --&gt; $5.5 eth&#xa;user debt == $85 - $5 = $80 usdc&#xa;user collateral == $100 - $5.5 = $94.5&#xa;LTV === $80/$94.5 ==&gt; 84% " style="text;whiteSpace=wrap;fontStyle=2" vertex="1" parent="1">
          <mxGeometry x="6010" y="800" width="210" height="90" as="geometry" />
        </mxCell>
        <mxCell id="3ofdXOLbKWFfFdMxITbS-82" value="" style="edgeStyle=orthogonalEdgeStyle;rounded=0;orthogonalLoop=1;jettySize=auto;html=1;" edge="1" parent="1" source="3ofdXOLbKWFfFdMxITbS-80" target="3ofdXOLbKWFfFdMxITbS-81">
          <mxGeometry relative="1" as="geometry" />
        </mxCell>
        <mxCell id="3ofdXOLbKWFfFdMxITbS-83" value="" style="edgeStyle=orthogonalEdgeStyle;rounded=0;orthogonalLoop=1;jettySize=auto;html=1;entryX=0;entryY=0;entryDx=0;entryDy=0;" edge="1" parent="1" source="3ofdXOLbKWFfFdMxITbS-80" target="3ofdXOLbKWFfFdMxITbS-78">
          <mxGeometry relative="1" as="geometry" />
        </mxCell>
        <mxCell id="3ofdXOLbKWFfFdMxITbS-80" value="&lt;span style=&quot;color: rgb(28, 29, 31); letter-spacing: -0.3px; text-align: start; white-space-collapse: preserve;&quot;&gt;&lt;font face=&quot;Helvetica&quot; style=&quot;font-size: 14px;&quot;&gt;question&lt;/font&gt;&lt;/span&gt;" style="rounded=0;whiteSpace=wrap;html=1;fillColor=#f8cecc;strokeColor=#b85450;" vertex="1" parent="1">
          <mxGeometry x="6010" y="710" width="80" height="30" as="geometry" />
        </mxCell>
        <mxCell id="3ofdXOLbKWFfFdMxITbS-81" value="&lt;font style=&quot;font-size: 14px;&quot;&gt;&lt;span style=&quot;color: rgb(0, 0, 0); font-family: Helvetica; font-style: normal; font-variant-ligatures: normal; font-variant-caps: normal; letter-spacing: normal; orphans: 2; text-align: left; text-indent: 0px; text-transform: none; widows: 2; word-spacing: 0px; -webkit-text-stroke-width: 0px; white-space: normal; background-color: rgb(236, 236, 236); text-decoration-thickness: initial; text-decoration-style: initial; text-decoration-color: initial; float: none; display: inline !important;&quot;&gt;&lt;b&gt;&amp;nbsp;what will happen if liquidator instead of paying 40% of debt , he just pays the exact undercollateralized debt ?&amp;nbsp;&lt;/b&gt;&lt;/span&gt;&lt;/font&gt;&lt;div&gt;&lt;font style=&quot;font-size: 14px;&quot;&gt;&lt;span style=&quot;color: rgb(0, 0, 0); font-family: Helvetica; font-style: normal; font-variant-ligatures: normal; font-variant-caps: normal; letter-spacing: normal; orphans: 2; text-align: left; text-indent: 0px; text-transform: none; widows: 2; word-spacing: 0px; -webkit-text-stroke-width: 0px; white-space: normal; background-color: rgb(236, 236, 236); text-decoration-thickness: initial; text-decoration-style: initial; text-decoration-color: initial; float: none; display: inline !important;&quot;&gt;&lt;b&gt;i.e liquidator only liquidates $5 , wouldn&#39;t just debt come back to 80$ usdc ??&lt;/b&gt;&lt;/span&gt;&lt;/font&gt;&lt;/div&gt;" style="text;whiteSpace=wrap;html=1;" vertex="1" parent="1">
          <mxGeometry x="6140" y="695" width="560" height="60" as="geometry" />
        </mxCell>
        <mxCell id="3ofdXOLbKWFfFdMxITbS-84" value="&lt;span style=&quot;color: rgb(0, 0, 0); font-family: Helvetica; font-variant-ligatures: normal; font-variant-caps: normal; font-weight: 400; letter-spacing: normal; orphans: 2; text-align: left; text-indent: 0px; text-transform: none; widows: 2; word-spacing: 0px; -webkit-text-stroke-width: 0px; white-space: normal; background-color: rgb(236, 236, 236); text-decoration-thickness: initial; text-decoration-style: initial; text-decoration-color: initial; float: none; display: inline !important;&quot;&gt;&lt;font style=&quot;font-size: 14px;&quot;&gt;&lt;i&gt;So that is why protocols need to be very precise with these levels. so that liquidations calls are efficient.&lt;/i&gt;&lt;/font&gt;&lt;/span&gt;" style="text;whiteSpace=wrap;html=1;" vertex="1" parent="1">
          <mxGeometry x="6000" y="920" width="560" height="50" as="geometry" />
        </mxCell>
        <mxCell id="3ofdXOLbKWFfFdMxITbS-87" value="" style="edgeStyle=orthogonalEdgeStyle;rounded=0;orthogonalLoop=1;jettySize=auto;html=1;" edge="1" parent="1" source="3ofdXOLbKWFfFdMxITbS-85" target="3ofdXOLbKWFfFdMxITbS-86">
          <mxGeometry relative="1" as="geometry" />
        </mxCell>
        <mxCell id="3ofdXOLbKWFfFdMxITbS-85" value="&lt;span style=&quot;color: rgb(28, 29, 31); font-family: &amp;quot;Source Sans 3&amp;quot;, &amp;quot;Source Sans 3 Fallback&amp;quot;, system-ui, arial; font-weight: 600; letter-spacing: -0.3px; text-align: start; white-space-collapse: preserve;&quot;&gt;&lt;font style=&quot;font-size: 18px;&quot;&gt;SELF LIQUIDATION&lt;/font&gt;&lt;/span&gt;" style="rounded=0;whiteSpace=wrap;html=1;fillColor=#d5e8d4;strokeColor=#82b366;" vertex="1" parent="1">
          <mxGeometry x="6870" y="125" width="360" height="40" as="geometry" />
        </mxCell>
        <mxCell id="3ofdXOLbKWFfFdMxITbS-86" value="when borrower himself liquidates his position " style="text;whiteSpace=wrap;fontSize=16;fontStyle=2" vertex="1" parent="1">
          <mxGeometry x="6865" y="220" width="370" height="40" as="geometry" />
        </mxCell>
        <mxCell id="3ofdXOLbKWFfFdMxITbS-90" value="" style="edgeStyle=orthogonalEdgeStyle;rounded=0;orthogonalLoop=1;jettySize=auto;html=1;" edge="1" parent="1" source="3ofdXOLbKWFfFdMxITbS-88" target="3ofdXOLbKWFfFdMxITbS-89">
          <mxGeometry relative="1" as="geometry" />
        </mxCell>
        <mxCell id="3ofdXOLbKWFfFdMxITbS-88" value="&lt;span style=&quot;color: rgb(28, 29, 31); letter-spacing: -0.3px; text-align: start; white-space-collapse: preserve;&quot;&gt;&lt;font face=&quot;Helvetica&quot; style=&quot;font-size: 14px;&quot;&gt;question&lt;/font&gt;&lt;/span&gt;" style="rounded=0;whiteSpace=wrap;html=1;fillColor=#f8cecc;strokeColor=#b85450;" vertex="1" parent="1">
          <mxGeometry x="6870" y="322.5" width="80" height="30" as="geometry" />
        </mxCell>
        <mxCell id="3ofdXOLbKWFfFdMxITbS-89" value="why ?" style="text;whiteSpace=wrap;fontSize=16;fontStyle=2;fillColor=#f5f5f5;fontColor=#333333;strokeColor=#666666;align=center;" vertex="1" parent="1">
          <mxGeometry x="7000" y="380" width="70" height="40" as="geometry" />
        </mxCell>
        <mxCell id="3ofdXOLbKWFfFdMxITbS-92" value="&lt;div style=&quot;text-align: start;&quot;&gt;&lt;span style=&quot;background-color: transparent; font-size: 18px; letter-spacing: -0.3px; white-space-collapse: preserve;&quot;&gt;&lt;font face=&quot;Source Sans 3, Source Sans 3 Fallback, system-ui, arial&quot; color=&quot;#1c1d1f&quot;&gt;&lt;b&gt;LIQUIDATORS VS GAS COSTS&lt;/b&gt;&lt;/font&gt;&lt;/span&gt;&lt;/div&gt;" style="rounded=0;whiteSpace=wrap;html=1;fillColor=#ffe6cc;strokeColor=#d79b00;" vertex="1" parent="1">
          <mxGeometry x="6865" y="530" width="360" height="40" as="geometry" />
        </mxCell>
        <mxCell id="3ofdXOLbKWFfFdMxITbS-93" value="- Assume liquidator gets $5 as liquidation bonus for liquidating a position &quot;X&quot;&#xa;&#xa;- but gas costs are $50&#xa;&#xa;- so for liquidating position X you are loosing $45" style="text;whiteSpace=wrap;fontSize=15;fontStyle=2" vertex="1" parent="1">
          <mxGeometry x="6865" y="608" width="440" height="125" as="geometry" />
        </mxCell>
        <mxCell id="3ofdXOLbKWFfFdMxITbS-96" value="" style="edgeStyle=orthogonalEdgeStyle;rounded=0;orthogonalLoop=1;jettySize=auto;html=1;" edge="1" parent="1" source="3ofdXOLbKWFfFdMxITbS-94" target="3ofdXOLbKWFfFdMxITbS-95">
          <mxGeometry relative="1" as="geometry" />
        </mxCell>
        <mxCell id="3ofdXOLbKWFfFdMxITbS-94" value="&lt;span style=&quot;color: rgb(28, 29, 31); letter-spacing: -0.3px; text-align: start; white-space-collapse: preserve;&quot;&gt;&lt;font face=&quot;Helvetica&quot; style=&quot;font-size: 14px;&quot;&gt;question&lt;/font&gt;&lt;/span&gt;" style="rounded=0;whiteSpace=wrap;html=1;fillColor=#f8cecc;strokeColor=#b85450;" vertex="1" parent="1">
          <mxGeometry x="6870" y="780" width="80" height="30" as="geometry" />
        </mxCell>
        <mxCell id="3ofdXOLbKWFfFdMxITbS-95" value="Who is the actual looser when gas costs are high" style="text;whiteSpace=wrap;fontSize=16;fontStyle=2;fillColor=#f5f5f5;fontColor=#333333;strokeColor=#666666;align=center;" vertex="1" parent="1">
          <mxGeometry x="7030" y="770" width="230" height="50" as="geometry" />
        </mxCell>
        <mxCell id="3ofdXOLbKWFfFdMxITbS-97" value="despite having low gas fees sometimes liquidatons can still be unprofitable&#xa;- assume position Y has 100% ltv&#xa;- that is for each $1 debt there is equivalent $1 collateral&#xa;- if liquidator takes this position, he will only get invested capital back&#xa;- and will loose amount paid in gas costs &#xa;- because there are no more collaterals that can be penalized with liquidation penalty" style="text;whiteSpace=wrap;fillColor=default;strokeColor=none;fontStyle=2;fontColor=#333333;" vertex="1" parent="1">
          <mxGeometry x="6865" y="910" width="480" height="110" as="geometry" />
        </mxCell>
        <mxCell id="3ofdXOLbKWFfFdMxITbS-98" value="&lt;div class=&quot;admonition warning&quot; style=&quot;box-sizing: inherit; background-color: rgb(250, 250, 250); border: 0.075rem solid rgb(255, 145, 0); border-radius: 0.2rem; box-shadow: rgba(0, 0, 0, 0.05) 0px 4px 10px 0px, rgba(0, 0, 0, 0.1) 0px 0px 1px 0px; color: rgba(0, 0, 0, 0.87); display: flow-root; font-size: 0.64rem; margin: 1.5625em 0px; padding: 0px 0.6rem; break-inside: avoid; transition: box-shadow 125ms; font-family: &amp;quot;Mona Sans&amp;quot;, -apple-system, BlinkMacSystemFont, Helvetica, Arial, sans-serif; font-style: normal; font-variant-ligatures: normal; font-variant-caps: normal; font-weight: 400; letter-spacing: normal; orphans: 2; text-align: start; text-indent: 0px; text-transform: none; widows: 2; word-spacing: 0px; -webkit-text-stroke-width: 0px; white-space: normal; text-decoration-thickness: initial; text-decoration-style: initial; text-decoration-color: initial;&quot;&gt;&lt;p style=&quot;box-sizing: border-box; margin-bottom: 0.6rem;&quot;&gt;After a hard-liquidation: - The loan is&lt;span&gt;&amp;nbsp;&lt;/span&gt;&lt;strong style=&quot;box-sizing: inherit;&quot;&gt;closed&lt;/strong&gt;&lt;span&gt;&amp;nbsp;&lt;/span&gt;permanently. You cannot repay or recover any part of your collateral. - The position is effectively over — your only remaining asset is the borrowed crvUSD. - Even if the market later recovers, the collateral is not returned.&lt;/p&gt;&lt;/div&gt;&lt;br class=&quot;Apple-interchange-newline&quot;&gt;" style="text;whiteSpace=wrap;html=1;fillColor=none;strokeColor=none;" vertex="1" parent="1">
          <mxGeometry x="5230" y="960" width="560" height="80" as="geometry" />
        </mxCell>
        <mxCell id="3ofdXOLbKWFfFdMxITbS-99" value="" style="group" vertex="1" connectable="0" parent="1">
          <mxGeometry x="5160" y="380" width="380" height="360" as="geometry" />
        </mxCell>
        <mxCell id="3ofdXOLbKWFfFdMxITbS-61" value="- suppose you usdc has max_ltv of 80%&#xa;&#xa;- your current ltv == 85%&#xa;&#xa;- debt : $85 usdc ; collateral : $100 eth&#xa;&#xa;- liquidator will pay $85 usdc on your behalf to the pool&#xa;&#xa;- pool will give $85 of eth to liquidator plus&#xa;&#xa;- all remaining collateral will also be given to liquidator as rewards&#xa;&#xa;- therefore, liquidator gets $100 eth, profiting 15$&#xa;&#xa;- while you just hold $85 usdc as settled debt, at the loss of $15" style="text;whiteSpace=wrap;fontSize=14;fontStyle=2" vertex="1" parent="3ofdXOLbKWFfFdMxITbS-99">
          <mxGeometry y="50" width="380" height="310" as="geometry" />
        </mxCell>
        <mxCell id="3ofdXOLbKWFfFdMxITbS-70" value="EXAMPLE" style="text;whiteSpace=wrap;fontSize=14;fillColor=#d5e8d4;strokeColor=#82b366;" vertex="1" parent="3ofdXOLbKWFfFdMxITbS-99">
          <mxGeometry width="70" height="30" as="geometry" />
        </mxCell>
        <mxCell id="3ofdXOLbKWFfFdMxITbS-101" value="&lt;span style=&quot;color: rgb(28, 29, 31); font-family: &amp;quot;Source Sans 3&amp;quot;, &amp;quot;Source Sans 3 Fallback&amp;quot;, system-ui, arial; font-weight: 600; letter-spacing: -0.3px; text-align: start; white-space-collapse: preserve;&quot;&gt;&lt;font style=&quot;font-size: 16px;&quot;&gt;LIQUIDITY THRESHOLD&lt;/font&gt;&lt;/span&gt;" style="rounded=0;whiteSpace=wrap;html=1;fillColor=#f8cecc;strokeColor=#b85450;" vertex="1" parent="1">
          <mxGeometry x="7690" y="200" width="190" height="60" as="geometry" />
        </mxCell>
        <mxCell id="3ofdXOLbKWFfFdMxITbS-102" value="&lt;span style=&quot;color: rgb(0, 0, 0); font-size: 48px; font-style: normal; font-variant-ligatures: normal; font-variant-caps: normal; font-weight: 400; letter-spacing: normal; orphans: 2; text-align: center; text-indent: 0px; text-transform: none; widows: 2; word-spacing: 0px; -webkit-text-stroke-width: 0px; white-space: normal; background-color: rgb(236, 236, 236); text-decoration-thickness: initial; text-decoration-style: initial; text-decoration-color: initial; float: none; display: inline !important;&quot;&gt;&lt;font face=&quot;Helvetica&quot;&gt;AAVE&lt;/font&gt;&lt;/span&gt;" style="text;whiteSpace=wrap;html=1;fillColor=none;strokeColor=none;rounded=0;shadow=0;glass=0;" vertex="1" parent="1">
          <mxGeometry x="8003" y="80" width="145" height="65" as="geometry" />
        </mxCell>
        <mxCell id="3ofdXOLbKWFfFdMxITbS-105" value="&lt;span style=&quot;color: rgb(28, 29, 31); font-family: &amp;quot;Source Sans 3&amp;quot;, &amp;quot;Source Sans 3 Fallback&amp;quot;, system-ui, arial; font-size: 24px; font-weight: 600; letter-spacing: -0.3px; text-align: start; white-space-collapse: preserve;&quot;&gt;HEALTH FACTOR&lt;/span&gt;" style="rounded=0;whiteSpace=wrap;html=1;fillColor=#f8cecc;strokeColor=#b85450;" vertex="1" parent="1">
          <mxGeometry x="8540" y="50" width="360" height="60" as="geometry" />
        </mxCell>
        <mxCell id="3ofdXOLbKWFfFdMxITbS-107" value="" style="shape=image;verticalLabelPosition=bottom;labelBackgroundColor=default;verticalAlign=top;aspect=fixed;imageAspect=0;image=data:image/png,iVBORw0KGgoAAAANSUhEUgAAAsgAAAA3CAMAAAAmLkyhAAAC7lBMVEX///+5vL9DS1NCSVFASFA/R08/Rk4+Rk49RU1tc3nv8PBPV16bn6Tn6Ono6erm5+jk5ebh4+TZ29zEx8mvsraKj5NaYWf9/v7O0NKtsLSMkZZ2fIGFio++wcT8/Pyhpan+/v7i4+TR09XCxce0t7rx8vLa293KzM67vcD9/f33+Pj4+Pnq6+vu7/Dx8fLw8PH09PX6+/vy8/P09fX39/f29vfz8/Ts7e7r7O3p6uvU1tjIys26vb/S1Nbe3+DAwsWytbjW2NnHysy4u77MztDb3d7P0dPBxMb5+fnLzdBFTFTf4OJWXWSfo6fHyctfZmxeZWyHjJF5f4RNVFxnbXNVXGOUmZ3Kzc/FyMppb3VkanGxtLeWmp+9wMJFTVVGTlVHTlZLU1qNkpaTl5yCh4xobnTq6+yhpahIUFeLj5SOk5j7+/yXm5/6+vqjp6tXXmVudHpUW2L19vZ1e4FgZ21SWWDDxcieoqba3N1RWF+RlZqws7bNz9G2ubyusrWYnKCxtbi3ur1vdXuOkpe8v8K0uLuZnaHd3uDt7e7g4eJhZ27Q0tTc3d98goeIjJHj5OXU1dfJy81zeX+qrbG1uLuusbS+wMOrr7J4foPX2dvu7u/V19llbHKUmJ27vsFJUVicoKRSWWGQlZnk5eeRlpqkqKxwdnzR0tRob3VTWmFxd33T1ddhaG9eZGtBSVCnqq6Sl5trcXiPlJiprbBETFNla3Gkp6vX2NpjaXBrcXdxd3xKUVnGyMtyeH6ipqpLUlq/wsSorK+bn6PBw8ZMVFuJjpOEiY5scnhiaW9qcHZIT1d3fIKYnaGLkJWVmp5mbHNZYGdYX2adoaVCSlLl5udQV16ztrnY2ttcY2rExsmIjZKanqJbYmmBhotYX2Wmqq2oq6+AhYp4fYNbYWh+hImDiI10eX9OVl2gpKisr7N9goh+g4h/hIrh4uOBh4x7gIZ1eoClqa16f4VOVVyrrrF7gYZdZGqGi5De4OH29/d16VHUAAAZ2ElEQVR42u1de1xVxfYfkXPOQsMXBXRFOr4DEuEgPsB8ohIaakEa6QFNDCUSNTQ188lNURPNa2oaooaPlKtF+YCkxHzm+11mDzUss5txr/X77zeP/ZjZex/gCEgQ389H98zeM2uvPTN7zZq153xBqA51qINTqOdS39VktlhAA7fqVqwOdXAGDRoCPOTu3qiRO0bjJk2beTz8iCceyBZ3XVEv70f/0dynhS9CjR/TXrO2bNW6TUucaNuu/eOPV45qFRHl5y/Cy1HBgCc6BLZt27FDEELBHWwhnUI7d+xc/tt06doxpFNI2w7drBV7VPew8O5PVk6rOURwD++evYKcrta1d5++EY4uarvIv1//AW0iq/hBHOApC0QN1JzrOQjgaW3B6MFgHjL0mWdjujWOfU57cRix4sNx4nl8jKsczUoR5f6CrfS6IzQTzEjUxs4jPmHUaFrwRalALEJjpGRiuTW0mWT5Y8uvmkGxLq5YxEtOVCgdvp7isyY1bILPPk307OJsJwTYca1xjq5qu2g8zrskO3uPSsLLAIO1L1HKK5YJVuFM71SY2HMSTgRNfjUNpmiFWJtMBUtbnLC9Ng2mG96n84wU5xRzLKptFEwtvW6T12fiwRkd4R0RPuCNwQDeKBFGzZo9p95cgHnzR6b/syGMYKIG4ndwYsSbC/CTLXwcIGNRj47lV7Hl4iUAb7VavNQJ1QyKefWYQVQ0QPtM5+RSLANY/vaKev/CDzZzZfd3VoGlEz7bcfVymOBcDxAMXAnQ19FFbReteTem+pzS5LW4b3Vn10ErPvuexTw9lCVDssBi0NfrYQg9BtSHnka38c2GRU5q5kgU6g2uYWVVbgWwQb71ctjoDj5BJD0XzPTYHtLVgpuk5HyA953UMQfMgc6qZlBsCtQPMCj2AqQ6J5diaBJ9KTYDsJlzy1Z2fhsMdfLpCD4AaOTwoq6LtsP6+7hH5WBjAkBr7cmUHY9wufa58G8lsxN2GEjZBR/S4+tgaWB0lyfBEoicgyNR+Eq3Mis/xj3UR+bgf8f6k1RwHnxMTzWATOniJ6BMMHhm3O2cir522OO0agbFdsJeo1L7VHtXTrkYyflv0ONLAAU0Me9Tdt7u2LSWgv2l2XFtF9nMEFGWwKpDPYBCXTP12K+md9thiZqbrZg6DvjV/Iwm1hsOc+KiDXZWL0eiyoV9YFacygHTUMznNIXNL3Mp3CFIujiZ+UQEr0KSn3N32S1bvQpiOxwwOJviAkXOywo/yHy4HDCF0ITPTnrI5F358uNT+MLxRW0XTYFc/8poj/vEIYBdpfRgg4MQO0nNFujtN0Le8qt5GMYbCpnrwN8tBY5ElQfJUXCEHIOPdkaozfNPuLDpAFupPjQRMU0q6HcMtkvJQAsc14hp96VVSdtOdNLd5t+y1asY2lpgmMHpzc7PYhhfnKQHPPmcYif29qKHV+D0/TSkHUoJHWm7aCc8XwnNcd8IPQOlLSW+BHibyw4wKwGqwCktFrLUWenVjDwnWWaMlGbhQSwVZOsYBTPb2qzSFdvwPuzNWDMMrzOTl2320lURRQkI6yElzrcmq/CUzGH6ZeSTAOvIcfgF/F/7i4seYqfngiu7sfcIqeAlqSBGT4DPNWJsQ3xk1QKPHLLqbnNctnpa1TC6LluMK6wmTxIun/bTF2tU9GRwa8jtpG2AFJvtLFwOtAVoK6itbr3yri8+dLvSmNfhK7b0xC7yy+yED4tKfQonUMdlYdLzWL03khYs6qA8qtwnBO4eiyTLiu14F983p/CrIq/VI/sE6LrIt39RN5QBX6PqxKX6YNrs6GLbBLAHcfkm3eVah3PjdkAiXQocllxkxTIjrzcOXk3Nv7LzGyt6XI5SMQemYI9pe8w58m70unbN3mfRtD0ZEydpqgiiBHQdcsayhRZocfrauQLrt/E52QlfaAPF2EX2wIduE77hz+K5OkZT8DvVpmIXuZn2bmuujmGDLzDje/2k5ZUEaw1VQ2jpD/E5SXObJM7Fo+X65awYquCBvP6aYgtvJOUkbbkJW7Rthk5LbfaWWIFr9c4/Jpr3RTZZO8HNNLi/TrenAcL5PHbnZ3yVtDyp+FuSCzpy1LQ8dOiofVkfafqEtJqbZUus6wqafgWu99l6JM60S17xpdwqfDYnL/5zTW//FHv1VO5HFmiPqhWfA2x1FKd8iTamHrfMa8cSRyO7E3012er1rBS8QGg0vIJQtAXy/FBgWKYP7AgLu0QbYgn8vAahOa4D0YJjC73hWFaf0G/goqaKIIpH8o6HvLZR/yC0+Hx7yJ58+zzyy4Z6mmL7AMbN2nnoAszmz/YHmKUpeBzglxOj5xFMgyz9h5MF138hVi8w4xcD5+uSYvVE1RC6k3/aHYUOMeFFfGTG+9Yf6GsVmgurxWKZWbQYwD+1bYb6hXmb4O2wsDVCBb7Vp55AW+Cb2L5+eNlyTadbKriG8vkwgPgvbairxUIM9M6b2PYcXDXJIy3bKvQJRlDaaXyLr1yo2VkO9sveCI2DX5gY9zOuD1tR523wDt9Fvr8SzecAuOrdrwcK648A/3Fw7TdQQlU8VkAGnV8mwrf01WSTj5tkmdFdFlCMgcM0mwM72XmvJdAcNx3aCK3Q/t9Ra4AVZLVZpK+iiEI2rke6NwxAZ4Csyx++TSKmn5Lx9QycFJULjoLCXc/HFQO05E9P1VgpalNLmlNMPgrwg8FzdvG84YvH8W2jRcR3ssutUQ2tiaVx4ZUAT6F07DZuBTKNRUO8r1CsnV0utsygzVpJ61WuAt/qvmkDUSK4EgGvAYRqVMOmRfyy8wnAl+SYDfPx2vxYP+wGXPZH18ganO8TjK+hF1nGmhfgtG88FBNb3AauUymThsB75JgOowK4LvqVam7dId/TplXngaFDQ4AZxpdiAfrpz2bmAvuoegOeISNksNx8bJ3dx2Kmbt12oN4pXnlIK8RHwUTGVsiPbla0pzv2vz2tqMfg0QG6Kooo9IT9d/W+W97GbWwhbXtqJL5tNu3qRK2L3wrY0I6ZJpx201gpalNlb7lI7yJT4JG8JmOJr9El0UVWVcNj8QY5DCeL+MQVqDdYyKg4CdvEYoflYlQtTQPgqTBDK5dv9T5XUco5FhZdBiatft7SuFXwI+yz4oNvHpkcPM6gTq5kFbfu42Fin9BWwm3XYfl/SfpdYIN7vxRmPE4fAbtEAK+pXeQNTPM46Z5Cjz1gDMMT2lKjCwEWOMd/dQxiLsgP8CrLzyWRWTcpJOctr7ObswcPMbG4Yis5xuU1ATyji2ZMn7gNL1DeTEF71fCVpooiCrm7cUt6XGce5JDUHT88fb5IUpNcmUVTcUsylePH4P/8h0r666wUDTsMl5IbDFxkii6e9v8YjmO/Y1JUGqPgcU611cxDR88R3xeffpH5wB/DLeEJWivFEg0aAM9imzSPLLS6rSt2ldjCe5b+u/pZENsEm1YaRf6AurW2jSgCTNKiXegTRL2tiUMlI/K+FEXexsITzQAG0PxmsrSQu8h6hGkeZJbuKfQYXrAcG3Uhe+vErWkXSo7irE9JWuw1z+tnYrOLDX3WCmIE5G80Ou+P3Wc+P5SuS7uaiFOEEemCJ2Tl1ZQtsy2XxQLCpS9WL8kdsBvgTOrxQ4+tZtmA+spSS1tlqqPAc0q+HNjHazf6LWMKnNO4ZnPBRJeP/yO+8+dHpbOva60UiSIrMZjBkGS8t8jhQOaiyNYhn3GqnZSkxjHf12sa9SjxCPUWnuAZpdgsgwbAs9gAzSOLrU4WdCx0aBCG3qWZfHpLS+2pcrRxvfISavoEFZjJInMVbYzf2PooMo+19GhICJY6Gr/1che9JoeIdBMew9RTrz5LROZfXkva/0TMq8dI9sKQmHqo8hGe+7rxhVGQy4W3bPF0X9x/Adgn06cAPsGWQbKeqZJlXiHZmi+lL1Y5chQZz9/8px9vdW7WVkk1+u5CsBLipWHbX7Lzv4JmJsMjnEUTrPhfcJocCF0PWsvtm8DCzcgwiszg2LW4K6mM4XEsklMtVrJQJna/TICuiLjI0ndofbFwgwZopUaR5Qpiq5M2oja7pd75wxZCNNLfSuvBeyBtXTzM+1Ti57jo30uA7bDwS2DL6BaQQFXPguWsyFHIilS6aI6k+UldTEjBIizwd6uSxRMhPIaqBE3zezm48gfAJTX3IfXqcGub2as5C+ovoK+mVzPpU9TSILKpjNmaGGwqGvxJjAu22NZ36TPzG0TPquErTRVFVINxx8X9ND/CHyiYBgunMjvvb4cWaBI/nfRXPV+E3ikJllJ7dRYDL+VflJI9Ab4zevxSFnvL1a+HW97iVAuRLFSBdL/9bKX0MnYw/HqrxQKUYnj6aOaraQA8ixF7d34N98hiq5M2GsDa4R5CA4N51SK0k09z+Ioc2gE0QY3XUDcrWrok9olfT+JgZabReAz2kZ4gJ1fBGGTtjVJAMv3YmdugdtEsSfOPcZ0GjfU9hvE2CHuPfsHZhagq0PaMw0+tm9nbzzAlllmJdyCfHm3FsJ9Yhg/RlFepiWyAtg8grtVVcjWIOK/zZpG1F3bMWsRRYUFM0nliit3UcIOmiizK6/kn/7jKq4On1/6oL/U5JYP0Gdgj0SFe/6ncB7eW8XKM3j9XZzH2qzZ1PMBqpEcp4bdku7QaI4POm1ctD0aSsyclq3gCbpLDKexBFJ0yKnYKdYkK0TQAnsXGk0DAcK6C2OrERaYz0g7sezeJEnZyHdDEZ7ySmGk9SWagIyuFuVDsEx+YSJKzsHEgYVlqx7HXcwVduYyshdRHIu12IVDX29h16oM11/UYwc8gvRIM2dixKM+wdBrJbqsc7j3Hr4/idXxW2I4lGgMsJsehMBd38DS8AL6B3cFecBotdAkhm8sOWnEv+ADYvIov0fOo41YsJeUCbhKC1klXqElRBpxBFSJqyjiUKARJV8BWK9pDdtIFuzBZ8/B8NzaK36K1S9rjhnEx3iTvI1kmRH0p5qo29TokGBjd0j6IbJb3zSW/THTiVNsCP+Hs7iTJKo6nrk8PE1bXZ4ZRsXXojePaBqCNit4/zMsVWx27yNQv6kAcjnmPCLolSosEGa9J42gPfpmWDfYidZV1qtgnSSxivKshsVjPMDvuQT6IJn5GRjkN0rZ0qb9M19t+hwBCsOa6HiNoiP1wNeeOh/UYZ8douTA0o5TAX+QWyEonC/+lY3Yo88E6+CYQLfgexhD/eRy8MHAUnp6eMKd5+ZDlrTUDW7pGY3aYLba+H5MuH4TGutFvEemwvBvy6/FiCQmsfgCuSvhKU0UW1WpsS3Fn4GrYhdavQlzt/bDT72d1J2pm0Ue5cLDII3r4lflT9wLb79Q0+sqKGID/jRyufs9+khQ81r0AKx7R8xZe074XvUDz6I4/UXcYPp/sbfYoaN133bPSdxZFtSI4HGqNTpCt4lPQsANqFjsKihofDNEVy78Hm4KvFmgbAL9kc6xztm4UHllodbSNOVD+SRZbGN08T+HXZ/hnTwPYXxgQfkdR9ydpo8UNKArZ40Hrqi+10CepV8fiLp+XRd+YUWyjxUDs5dSLw4/vnn8OTz3zG44ihkTs7ba3Jc11PYaoF89eCQbszLBPYJWNuxd0u98i73Dp/fFQmLjt2eIv1eBA8vpz507Z17JXefG9kq1UsXV5g7cH0W5Phcsu8yJnmGPTSIucNGWcYettNHNPbpz92XnUEL7H75DVVFFE/RPEaMoqy+W1Xfjaa/ZEZW9QJpSQeLP6C0SLKTePBl5zXKPiExLsLrnm+vIKyr8wz56QEJ9nmYnc7SRpd7E8pWkFx5uG1tc3yfexmF3zeoiq9bUXbnV7WXHJH0twuZod3qMwf+JwXbHTmwMH5054RN8AG9OSdiy/I8oVWh15SvPj5wkTYhcrmrWynLPHJ8RHnXO1qO7WdDOLkfeOHVTyNF9X1ydBOaaJO0omf0C7xHyNOSyP5G2/2oQkLu2B09fsz7EXnu/tHVGq5toew/MibiYuQjEUZw1DZBVEa7t+G+7dVD7XoPUn4/d7iD9imbR7kbLjBC2W9q2E9pcn4AWvk8/wQZtZS9h6q65Ll/5yveR2gkSxiiTKK20vEjcFubfz09S+I+yaqUbIqiHf1c2w+VRccq9+l7Cn7bf6vK7Ybiu2aAN3GzWAtVkHnVyh1RvLe1H8e5e1eXKSPJVamwWKdRnUPsF2q9kdq5RcLP92qEE/SQFr44g/lWWlcW/rewzdBBa4kRCrCelWEtrFt9CdazpqdhXc6X7QHi76KjtmahSO6FzyvwcMegwv7q6rufN4WB+q/Pt2TdNH9BptdXXip2tVirtgS59T3UrcDzpalADX3wv6HtuIR+5oNZsOxtt3Kgb/ON3L4bVyEHxa3c0ho0n+jdteFRfz4NEGLE4wC9Qi6HusDR65N9vMnNOXIQdnz4t1Ag/8nB7gxD30sC45Kvozya89erqqFpX3heCqWBZUOX7LNgMUewZXXFLNg67Hbmr5f1isWkXX4l1nLdrfdnyRYIysdkY3/RqG7HJLTZ2bk5MzN9Vt7+ALrvRGrvfxG5s6cKh3MX1m+uzuFRdUG4Bd5AnpEtpcPIDHl49Y4EfInKYGtiWEb+AxfdOmnS+uW/fcyRGzggxu0SqPp8yyWMxmk8k1N7f+5Op+9jrUHjQBgXFips5Fdoc8/yzzo9WtZx3qUCpIFHmlmv1D5yJ/BKfQgr9KCLUOdXCAX/HI5b6Z6qPIzeER5yTqAHWoQ1VBGWUXADzVMUc2WmgCZRfg4ep+2epQh7LQFI9czuKSjRZtuMuTbC0BotsG1cgYax3+RngYj1yO5MUHhI0W7vLOmPe09cSoBQf38ty1tsCAXbkBJYF2b9Rt7IJq+5GvDg+Iybk6cRuEjRYTAdK4q8mrw0ZDbFhYbx3LjsM48upy3PSvBQekxuWBnl3ZL0p13yxxD1sfyBM4z+RszG5cQSbn6oT1oOAik1jcr2KJX3lqwVoJB6TGIoyJlw3YlTe++QXAjH49/uz3wRKA/1kfwAPcB5OzMbtxRZmcqxHtRBf5BZydLZa4VxbLeU2HY1JjDo6Il43Ylb+HY9KPSJdDadx8lYb7YHJ2xG5cUSbnasPLwH//SN6Hs28KBQJMCiVDLYVjUmMOjoiXjdiVtyo/lH60lD8oUJlwmsn5/xywG6MKMjlXD7q7xU0gTlDW9sPko/SBvdsbkmxxnBv3Hu4WXOjaCMekxhwcES8bsCu7q1xC2Ezcre7HkyAyOTtiN0YVZHKuHtyMik/KLyzMSooyYzfYejoqAWfzs465WFTieDQbiqtbz6qFY1JjHo6Ilw3YleeoXEJDwLVqfo7uNDRMzo7Yjcticq7B+Af8Vt0qVC0ckxorDL0a4uWuy96UUobsym8pdJtfg2kk0goTOYO11M1csWF/yufwvxAP+ZYcq7AEmdbYmMiYQcPk7IjduCwm5xqMGEO6/toHHamxytD7uBy0op7o0h/i901sHpFDKXqN2JUnSHYs6GtI6q4TJnIGa6ibuWLuH1/O2kIm9s6Tz2DTmS1zW/OswhQKrXGpRMbGTM5P63hDy2JyrrHwyzP6Ewi1EFpSY46hVyBeppTEyXuB0aMZsCt3A0j95JP9t4ba773RSS9M4AzWUDdzxfyeJ3TH5HfM6SSm+4SrxHAlsAoTqLTGpRIZGzM5p+pp1Mpicq6p6CFQt9RiaEiNRYZelXhZoiQOl/5incqurKAvwKHpmzZNH10S1zdYL0zgDBapm/livRS64++BGNGHJKJMnlWYQqE1LpXI2JjJ2YA3tGwm5xqKOTx1S22GhtRYYOjliJclSmLpL9ap7MoqhlKebYyQ21B8SSdM4AwWqZv5YjEK3XFDeAERwuEPJTVVVmEKhda4VCJjYyZnbz1vaDmYnGsmNmhZ2mspNMZJZOhViZdlSuIRbKb3Noguxyq/qMWGcYhOmMAZLFA3C8UUuuOmAE3JyXvsF8M8q7AsgtEal0pkfMuQyfmsjje0XEzONQ9LG2ALVNV/hvuvAQ2pscjQqxIvn1S4LB9iV3XRZXcA5W8HlgB01AvjOIMF6mZNMa80+leuZkNDci4kl23G4lmFJahMzo6JjI2ZnHfpXeTyMDnXOLxvSYs8l11LHqYMaEiNRYZelXhZ4hoOdWVcvwbsyitAefVTXKF+pF4Yxxks0FVqir3LVidj4HtybsBlqZTKKixDZXJ2SGRszOSsYzcuH5NzzcNpuF7wN4lZaEiNRYZelXhZpiQOh9wAlBmpUPdyOAR58o/zIwB26YXxnME8dbO22F0YRHKDKJcmGkevCazCMhQmZ8dExsZMzhF6F7kcTM41ECdML3l+U3ExNQEaUmORoZcjXpa4hkdgU9YlKkSh7uWQpvyF8sjrUH+1XhhvhHnqZm2x6Yxb1USdW/8S+gVDYBWWoDI5OyYyNmZyPqCPIpfN5FwT0fajJf+qEd/aKw4tqbHA0MsRLzOu4X7x2NV447hK3aviDtA/RYPRNRVMFw2E8ZzBAnWzpth3QLyJhexvqn3LVoQCq7AElcnZMZGxMZOzlt0YlYPJuQ5/XRiRGgsMvRzxMuEa9i0qkbiGFepeCZ0LRj4DMGtKQXTB/C8KwfNdI2ECZzBP3awpdscFe+22HbHwvRUNG8RGnMAqLEGlNTYmMjZkcjZkNy4Hk3Md/sIwIDXWMPRyxMt97YUXVK5hhbqX4adchczYlH1oRYCxMJ4zWKBuFoshj1jwtG/wHedanPGbNNp4VmEFCq2xMZGxIZOzEbtxeZic61DjIDD0csTLItewSt1bfmE8Z7BI3SzeE/kOjCA+b+TuTPUcxyqsQKY1doLIuDbh/wGpPz1eiUNI8AAAAABJRU5ErkJggg==;" vertex="1" parent="1">
          <mxGeometry x="8530" y="175" width="712" height="55" as="geometry" />
        </mxCell>
        <mxCell id="3ofdXOLbKWFfFdMxITbS-108" value="- how much of your collateral counts as the borrowable value&#xa;- borrowing power of collateral&#xa;&#xa;- liquidity threshold of 80% means: For every $100 worth of collateral, you can borrow $80 worth of debt&#xa;&#xa;- these liquidity thresholds can vary per assets according to their risk factors&#xa;&#xa;- note that governance sets these liquidity threshold parameters for each assets&#xa;&#xa;- suppose : &#xa;  - sol has 80% liquidity threshold, that means for $100 worth of sol you can borrow $80 worth of debt asset&#xa;  - bonk has 60% liquidity threshold, that means for $100 worth of bonk you can borrow $60 worth of debt asset" style="text;whiteSpace=wrap;fontSize=12;fontStyle=2" vertex="1" parent="1">
          <mxGeometry x="7690" y="309" width="560" height="231" as="geometry" />
        </mxCell>
        <mxCell id="3ofdXOLbKWFfFdMxITbS-109" value="&lt;span style=&quot;color: rgb(28, 29, 31); font-family: &amp;quot;Source Sans 3&amp;quot;, &amp;quot;Source Sans 3 Fallback&amp;quot;, system-ui, arial; font-weight: 600; letter-spacing: -0.3px; text-align: start; white-space-collapse: preserve;&quot;&gt;&lt;font style=&quot;font-size: 16px;&quot;&gt;WEIGHTED AVERAGE LIQUIDITY THRESHOLD&lt;/font&gt;&lt;/span&gt;" style="rounded=0;whiteSpace=wrap;html=1;fillColor=#f8cecc;strokeColor=#b85450;" vertex="1" parent="1">
          <mxGeometry x="7690" y="608" width="190" height="60" as="geometry" />
        </mxCell>
        <mxCell id="3ofdXOLbKWFfFdMxITbS-111" value="&#xa;- suppose you put $50 sol + $50 bonk as collateral&#xa;&#xa;- since both assets have different lts, therefore, we calculate their weighted average&#xa;&#xa;==&gt; assuming sol has 80% lt and bonk has 60% lt&#xa;walt ==&gt; 80% + 60% / 2&#xa;     ==&gt; 140%/2&#xa;     ==&gt; 70%&#xa;&#xa;that means $70 of your collateral from ($50 sol and $50 bonk) will be counted as borrowing power, in simpler terms you can borrower $70 dollar worth of against this collateral composition&#xa;&#xa;&#xa;So, LT VS WALT --&gt;&#xa;$100 sol ------&gt; $80 borrowing power  (LT)&#xa;$100 bonk ------&gt; $60 borrowing power (LT)&#xa;$50 sol + $50 bonk ----&gt; $70 borrowing power (WALT)" style="text;whiteSpace=wrap;fontStyle=2;fontSize=12;" vertex="1" parent="1">
          <mxGeometry x="7690" y="760" width="541.25" height="270" as="geometry" />
        </mxCell>
        <mxCell id="3ofdXOLbKWFfFdMxITbS-112" value="&lt;span style=&quot;color: rgb(0, 0, 0); font-family: Helvetica; font-size: 12px; font-style: normal; font-variant-ligatures: normal; font-variant-caps: normal; font-weight: 400; letter-spacing: normal; orphans: 2; text-align: left; text-indent: 0px; text-transform: none; widows: 2; word-spacing: 0px; -webkit-text-stroke-width: 0px; white-space: normal; background-color: rgb(236, 236, 236); text-decoration-thickness: initial; text-decoration-style: initial; text-decoration-color: initial; float: none; display: inline !important;&quot;&gt;ratio of summation of liquidity thresholds of different assets and the no of collateral assets&lt;/span&gt;&lt;div&gt;&lt;br style=&quot;forced-color-adjust: none; padding: 0px; margin: 0px; color: rgb(0, 0, 0); font-family: Helvetica; font-size: 12px; font-style: normal; font-variant-ligatures: normal; font-variant-caps: normal; font-weight: 400; letter-spacing: normal; orphans: 2; text-align: left; text-indent: 0px; text-transform: none; widows: 2; word-spacing: 0px; -webkit-text-stroke-width: 0px; white-space: normal; background-color: rgb(236, 236, 236); text-decoration-thickness: initial; text-decoration-style: initial; text-decoration-color: initial;&quot;&gt;&lt;div&gt;&lt;span style=&quot;background-color: transparent; color: light-dark(rgb(0, 0, 0), rgb(255, 255, 255));&quot;&gt;&lt;i&gt;sum of LTs of collateral asset&amp;nbsp; / total no of collateral assets&lt;/i&gt;&lt;/span&gt;&lt;/div&gt;&lt;/div&gt;" style="text;whiteSpace=wrap;html=1;fillColor=#f5f5f5;fontColor=#333333;strokeColor=none;" vertex="1" parent="1">
          <mxGeometry x="7690" y="695" width="520" height="65" as="geometry" />
        </mxCell>
        <mxCell id="3ofdXOLbKWFfFdMxITbS-113" value="(Total Collateral Value * Weighted Average Liquidation Threshold) / Total Borrow Value" style="text;whiteSpace=wrap;fontSize=18;fillColor=#fff2cc;strokeColor=none;align=center;verticalAlign=middle;" vertex="1" parent="1">
          <mxGeometry x="8543" y="300" width="765" height="100" as="geometry" />
        </mxCell>
        <mxCell id="3ofdXOLbKWFfFdMxITbS-114" value="- alice put $50 bonk and $50 sol as collateral&#xa;&#xa;- alice takes $20 usdc as debt&#xa;&#xa;- taking 70% as WALT from previous sections example&#xa;&#xa;- HF = $100 * 70% / $20&#xa;&#xa;- HF = 3.5" style="text;whiteSpace=wrap;fontSize=14;fontStyle=2" vertex="1" parent="1">
          <mxGeometry x="8570" y="510" width="340" height="190" as="geometry" />
        </mxCell>
        <mxCell id="3ofdXOLbKWFfFdMxITbS-115" value="That is why aave considers weighted average lts, because your position are allowed to have combined collateral composition." style="text;whiteSpace=wrap;fontStyle=4" vertex="1" parent="1">
          <mxGeometry x="7688.75" y="1050" width="560" height="50" as="geometry" />
        </mxCell>
        <mxCell id="3ofdXOLbKWFfFdMxITbS-116" value="EXAMPLE" style="text;whiteSpace=wrap;fontSize=14;fillColor=#d5e8d4;strokeColor=#82b366;" vertex="1" parent="1">
          <mxGeometry x="8570" y="469.5" width="70" height="30" as="geometry" />
        </mxCell>
        <mxCell id="3ofdXOLbKWFfFdMxITbS-120" value="" style="edgeStyle=orthogonalEdgeStyle;rounded=0;orthogonalLoop=1;jettySize=auto;html=1;" edge="1" parent="1" source="3ofdXOLbKWFfFdMxITbS-118" target="3ofdXOLbKWFfFdMxITbS-119">
          <mxGeometry relative="1" as="geometry" />
        </mxCell>
        <mxCell id="3ofdXOLbKWFfFdMxITbS-122" style="edgeStyle=orthogonalEdgeStyle;rounded=0;orthogonalLoop=1;jettySize=auto;html=1;exitX=0.25;exitY=1;exitDx=0;exitDy=0;" edge="1" parent="1" source="3ofdXOLbKWFfFdMxITbS-118" target="3ofdXOLbKWFfFdMxITbS-121">
          <mxGeometry relative="1" as="geometry" />
        </mxCell>
        <mxCell id="3ofdXOLbKWFfFdMxITbS-118" value="WHEN AND HOW DOES LIQUIDATIONS TAKE PLACE ?" style="text;whiteSpace=wrap;fontSize=14;fillColor=#d5e8d4;strokeColor=#82b366;align=center;verticalAlign=middle;" vertex="1" parent="1">
          <mxGeometry x="8560" y="770" width="610" height="30" as="geometry" />
        </mxCell>
        <mxCell id="3ofdXOLbKWFfFdMxITbS-119" value="HF &amp;lt; 1" style="whiteSpace=wrap;html=1;fontSize=14;fillColor=#f8cecc;strokeColor=#b85450;" vertex="1" parent="1">
          <mxGeometry x="8910" y="840" width="120" height="60" as="geometry" />
        </mxCell>
        <mxCell id="3ofdXOLbKWFfFdMxITbS-121" value=" PARTIAL VS FULL LIQUIDATION ?&#xa;&#xa;&#xa;- CLOSE_FACTOR_HF_THRESHOLD &lt; HF &lt; 1 ------&gt; DEFAULT_LIQUIDATION_CLOSE_FACTOR gets liquidated&#xa;- HF &lt; CLOSE_FACTOR_HF_THRESHOLD    --------&gt; MAX_LIQUIDATION_CLOSE_FACTOR&#xa;&#xa;&#xa;- CLOSE_FACTOR_HF_THRESHOLD = 0.95 //@VALIDATE&#xa;- DEFAULT_LIQUIDATION_CLOSE_FACTOR = 50%&#xa;- MAX_LIQUIDATION_CLOSE_FACTOR = 100%" style="text;whiteSpace=wrap;fillColor=#f5f5f5;fontColor=#333333;strokeColor=none;" vertex="1" parent="1">
          <mxGeometry x="8550" y="900" width="560" height="180" as="geometry" />
        </mxCell>
        <mxCell id="3ofdXOLbKWFfFdMxITbS-124" value="&lt;span style=&quot;color: rgb(0, 0, 0); font-size: 48px; font-style: normal; font-variant-ligatures: normal; font-variant-caps: normal; font-weight: 400; letter-spacing: normal; orphans: 2; text-align: center; text-indent: 0px; text-transform: none; widows: 2; word-spacing: 0px; -webkit-text-stroke-width: 0px; white-space: normal; background-color: rgb(236, 236, 236); text-decoration-thickness: initial; text-decoration-style: initial; text-decoration-color: initial; float: none; display: inline !important;&quot;&gt;&lt;font face=&quot;Helvetica&quot;&gt;FLUID VAULT T1&lt;/font&gt;&lt;/span&gt;" style="text;whiteSpace=wrap;html=1;fillColor=none;strokeColor=none;rounded=0;shadow=0;glass=0;" vertex="1" parent="1">
          <mxGeometry x="9480" y="100" width="490" height="65" as="geometry" />
        </mxCell>
        <mxCell id="3ofdXOLbKWFfFdMxITbS-125" value="- the liquidation process --&gt; cost-effective and highly efficient&#xa;&#xa;- full soft liquidatio, just enough to keep position in safer bounds&#xa;&#xa;- low fees as low as 0.1%&#xa;&#xa;- Now you might ask if liquidation penalties are as low as 0.1% , how are liquidations even profitable?&#xa;&#xa;- multi-poisition liquidation to combat gas costs&#xa;&#xa;- dex aggreagator integration: traders act as liquidators, due to the presence of arbitrage opportunity in fluid&#39;s virtual pool, where collateral assets being in surplus than debt asset are cheaper as compared to market prices" style="text;whiteSpace=wrap;fontSize=14;fontStyle=2" vertex="1" parent="1">
          <mxGeometry x="9400" y="252.25" width="560" height="255" as="geometry" />
        </mxCell>
        <mxCell id="3ofdXOLbKWFfFdMxITbS-126" value="" style="shape=image;verticalLabelPosition=bottom;labelBackgroundColor=default;verticalAlign=top;aspect=fixed;imageAspect=0;editableCssRules=.*;image=data:image/svg+xml,PHN2ZyB4bWxucz0iaHR0cDovL3d3dy53My5vcmcvMjAwMC9zdmciIHhtbG5zOnhsaW5rPSJodHRwOi8vd3d3LnczLm9yZy8xOTk5L3hsaW5rIiBpZD0ibWVybWFpZC1kaWFncmFtLW1lcm1haWQtanFkMXZ6cCIgd2lkdGg9Ijk3Ni43Mzc0ODc3OTI5Njg4IiBjbGFzcz0iZmxvd2NoYXJ0IiBzdHlsZT0ibWF4LXdpZHRoOiA5OTIuNzM3NDg3NzkyOTY4OHB4OyIgdmlld0JveD0iOCA4IDk3Ni43Mzc0ODc3OTI5Njg4IDg5IiByb2xlPSJncmFwaGljcy1kb2N1bWVudCBkb2N1bWVudCIgYXJpYS1yb2xlZGVzY3JpcHRpb249ImZsb3djaGFydC12MiIgaGVpZ2h0PSI4OSI+PHN0eWxlPiNtZXJtYWlkLWRpYWdyYW0tbWVybWFpZC1qcWQxdnpwe2ZvbnQtZmFtaWx5OiJ0cmVidWNoZXQgbXMiLHZlcmRhbmEsYXJpYWwsc2Fucy1zZXJpZjtmb250LXNpemU6MTZweDtmaWxsOiMwMDAwMDA7fUBrZXlmcmFtZXMgZWRnZS1hbmltYXRpb24tZnJhbWV7ZnJvbXtzdHJva2UtZGFzaG9mZnNldDowO319QGtleWZyYW1lcyBkYXNoe3Rve3N0cm9rZS1kYXNob2Zmc2V0OjA7fX0jbWVybWFpZC1kaWFncmFtLW1lcm1haWQtanFkMXZ6cCAuZWRnZS1hbmltYXRpb24tc2xvd3tzdHJva2UtZGFzaGFycmF5OjksNSFpbXBvcnRhbnQ7c3Ryb2tlLWRhc2hvZmZzZXQ6OTAwO2FuaW1hdGlvbjpkYXNoIDUwcyBsaW5lYXIgaW5maW5pdGU7c3Ryb2tlLWxpbmVjYXA6cm91bmQ7fSNtZXJtYWlkLWRpYWdyYW0tbWVybWFpZC1qcWQxdnpwIC5lZGdlLWFuaW1hdGlvbi1mYXN0e3N0cm9rZS1kYXNoYXJyYXk6OSw1IWltcG9ydGFudDtzdHJva2UtZGFzaG9mZnNldDo5MDA7YW5pbWF0aW9uOmRhc2ggMjBzIGxpbmVhciBpbmZpbml0ZTtzdHJva2UtbGluZWNhcDpyb3VuZDt9I21lcm1haWQtZGlhZ3JhbS1tZXJtYWlkLWpxZDF2enAgLmVycm9yLWljb257ZmlsbDojNTUyMjIyO30jbWVybWFpZC1kaWFncmFtLW1lcm1haWQtanFkMXZ6cCAuZXJyb3ItdGV4dHtmaWxsOiM1NTIyMjI7c3Ryb2tlOiM1NTIyMjI7fSNtZXJtYWlkLWRpYWdyYW0tbWVybWFpZC1qcWQxdnpwIC5lZGdlLXRoaWNrbmVzcy1ub3JtYWx7c3Ryb2tlLXdpZHRoOjFweDt9I21lcm1haWQtZGlhZ3JhbS1tZXJtYWlkLWpxZDF2enAgLmVkZ2UtdGhpY2tuZXNzLXRoaWNre3N0cm9rZS13aWR0aDozLjVweDt9I21lcm1haWQtZGlhZ3JhbS1tZXJtYWlkLWpxZDF2enAgLmVkZ2UtcGF0dGVybi1zb2xpZHtzdHJva2UtZGFzaGFycmF5OjA7fSNtZXJtYWlkLWRpYWdyYW0tbWVybWFpZC1qcWQxdnpwIC5lZGdlLXRoaWNrbmVzcy1pbnZpc2libGV7c3Ryb2tlLXdpZHRoOjA7ZmlsbDpub25lO30jbWVybWFpZC1kaWFncmFtLW1lcm1haWQtanFkMXZ6cCAuZWRnZS1wYXR0ZXJuLWRhc2hlZHtzdHJva2UtZGFzaGFycmF5OjM7fSNtZXJtYWlkLWRpYWdyYW0tbWVybWFpZC1qcWQxdnpwIC5lZGdlLXBhdHRlcm4tZG90dGVke3N0cm9rZS1kYXNoYXJyYXk6Mjt9I21lcm1haWQtZGlhZ3JhbS1tZXJtYWlkLWpxZDF2enAgLm1hcmtlcntmaWxsOiM2NjY7c3Ryb2tlOiM2NjY7fSNtZXJtYWlkLWRpYWdyYW0tbWVybWFpZC1qcWQxdnpwIC5tYXJrZXIuY3Jvc3N7c3Ryb2tlOiM2NjY7fSNtZXJtYWlkLWRpYWdyYW0tbWVybWFpZC1qcWQxdnpwIHN2Z3tmb250LWZhbWlseToidHJlYnVjaGV0IG1zIix2ZXJkYW5hLGFyaWFsLHNhbnMtc2VyaWY7Zm9udC1zaXplOjE2cHg7fSNtZXJtYWlkLWRpYWdyYW0tbWVybWFpZC1qcWQxdnpwIHB7bWFyZ2luOjA7fSNtZXJtYWlkLWRpYWdyYW0tbWVybWFpZC1qcWQxdnpwIC5sYWJlbHtmb250LWZhbWlseToidHJlYnVjaGV0IG1zIix2ZXJkYW5hLGFyaWFsLHNhbnMtc2VyaWY7Y29sb3I6IzAwMDAwMDt9I21lcm1haWQtZGlhZ3JhbS1tZXJtYWlkLWpxZDF2enAgLmNsdXN0ZXItbGFiZWwgdGV4dHtmaWxsOiMzMzM7fSNtZXJtYWlkLWRpYWdyYW0tbWVybWFpZC1qcWQxdnpwIC5jbHVzdGVyLWxhYmVsIHNwYW57Y29sb3I6IzMzMzt9I21lcm1haWQtZGlhZ3JhbS1tZXJtYWlkLWpxZDF2enAgLmNsdXN0ZXItbGFiZWwgc3BhbiBwe2JhY2tncm91bmQtY29sb3I6dHJhbnNwYXJlbnQ7fSNtZXJtYWlkLWRpYWdyYW0tbWVybWFpZC1qcWQxdnpwIC5sYWJlbCB0ZXh0LCNtZXJtYWlkLWRpYWdyYW0tbWVybWFpZC1qcWQxdnpwIHNwYW57ZmlsbDojMDAwMDAwO2NvbG9yOiMwMDAwMDA7fSNtZXJtYWlkLWRpYWdyYW0tbWVybWFpZC1qcWQxdnpwIC5ub2RlIHJlY3QsI21lcm1haWQtZGlhZ3JhbS1tZXJtYWlkLWpxZDF2enAgLm5vZGUgY2lyY2xlLCNtZXJtYWlkLWRpYWdyYW0tbWVybWFpZC1qcWQxdnpwIC5ub2RlIGVsbGlwc2UsI21lcm1haWQtZGlhZ3JhbS1tZXJtYWlkLWpxZDF2enAgLm5vZGUgcG9seWdvbiwjbWVybWFpZC1kaWFncmFtLW1lcm1haWQtanFkMXZ6cCAubm9kZSBwYXRoe2ZpbGw6I2VlZTtzdHJva2U6Izk5OTtzdHJva2Utd2lkdGg6MXB4O30jbWVybWFpZC1kaWFncmFtLW1lcm1haWQtanFkMXZ6cCAucm91Z2gtbm9kZSAubGFiZWwgdGV4dCwjbWVybWFpZC1kaWFncmFtLW1lcm1haWQtanFkMXZ6cCAubm9kZSAubGFiZWwgdGV4dCwjbWVybWFpZC1kaWFncmFtLW1lcm1haWQtanFkMXZ6cCAuaW1hZ2Utc2hhcGUgLmxhYmVsLCNtZXJtYWlkLWRpYWdyYW0tbWVybWFpZC1qcWQxdnpwIC5pY29uLXNoYXBlIC5sYWJlbHt0ZXh0LWFuY2hvcjptaWRkbGU7fSNtZXJtYWlkLWRpYWdyYW0tbWVybWFpZC1qcWQxdnpwIC5ub2RlIC5rYXRleCBwYXRoe2ZpbGw6IzAwMDtzdHJva2U6IzAwMDtzdHJva2Utd2lkdGg6MXB4O30jbWVybWFpZC1kaWFncmFtLW1lcm1haWQtanFkMXZ6cCAucm91Z2gtbm9kZSAubGFiZWwsI21lcm1haWQtZGlhZ3JhbS1tZXJtYWlkLWpxZDF2enAgLm5vZGUgLmxhYmVsLCNtZXJtYWlkLWRpYWdyYW0tbWVybWFpZC1qcWQxdnpwIC5pbWFnZS1zaGFwZSAubGFiZWwsI21lcm1haWQtZGlhZ3JhbS1tZXJtYWlkLWpxZDF2enAgLmljb24tc2hhcGUgLmxhYmVse3RleHQtYWxpZ246Y2VudGVyO30jbWVybWFpZC1kaWFncmFtLW1lcm1haWQtanFkMXZ6cCAubm9kZS5jbGlja2FibGV7Y3Vyc29yOnBvaW50ZXI7fSNtZXJtYWlkLWRpYWdyYW0tbWVybWFpZC1qcWQxdnpwIC5yb290IC5hbmNob3IgcGF0aHtmaWxsOiM2NjYhaW1wb3J0YW50O3N0cm9rZS13aWR0aDowO3N0cm9rZTojNjY2O30jbWVybWFpZC1kaWFncmFtLW1lcm1haWQtanFkMXZ6cCAuYXJyb3doZWFkUGF0aHtmaWxsOiMzMzMzMzM7fSNtZXJtYWlkLWRpYWdyYW0tbWVybWFpZC1qcWQxdnpwIC5lZGdlUGF0aCAucGF0aHtzdHJva2U6IzY2NjtzdHJva2Utd2lkdGg6Mi4wcHg7fSNtZXJtYWlkLWRpYWdyYW0tbWVybWFpZC1qcWQxdnpwIC5mbG93Y2hhcnQtbGlua3tzdHJva2U6IzY2NjtmaWxsOm5vbmU7fSNtZXJtYWlkLWRpYWdyYW0tbWVybWFpZC1qcWQxdnpwIC5lZGdlTGFiZWx7YmFja2dyb3VuZC1jb2xvcjp3aGl0ZTt0ZXh0LWFsaWduOmNlbnRlcjt9I21lcm1haWQtZGlhZ3JhbS1tZXJtYWlkLWpxZDF2enAgLmVkZ2VMYWJlbCBwe2JhY2tncm91bmQtY29sb3I6d2hpdGU7fSNtZXJtYWlkLWRpYWdyYW0tbWVybWFpZC1qcWQxdnpwIC5lZGdlTGFiZWwgcmVjdHtvcGFjaXR5OjAuNTtiYWNrZ3JvdW5kLWNvbG9yOndoaXRlO2ZpbGw6d2hpdGU7fSNtZXJtYWlkLWRpYWdyYW0tbWVybWFpZC1qcWQxdnpwIC5sYWJlbEJrZ3tiYWNrZ3JvdW5kLWNvbG9yOnJnYmEoMjU1LCAyNTUsIDI1NSwgMC41KTt9I21lcm1haWQtZGlhZ3JhbS1tZXJtYWlkLWpxZDF2enAgLmNsdXN0ZXIgcmVjdHtmaWxsOmhzbCgwLCAwJSwgOTguOTIxNTY4NjI3NSUpO3N0cm9rZTojNzA3MDcwO3N0cm9rZS13aWR0aDoxcHg7fSNtZXJtYWlkLWRpYWdyYW0tbWVybWFpZC1qcWQxdnpwIC5jbHVzdGVyIHRleHR7ZmlsbDojMzMzO30jbWVybWFpZC1kaWFncmFtLW1lcm1haWQtanFkMXZ6cCAuY2x1c3RlciBzcGFue2NvbG9yOiMzMzM7fSNtZXJtYWlkLWRpYWdyYW0tbWVybWFpZC1qcWQxdnpwIGRpdi5tZXJtYWlkVG9vbHRpcHtwb3NpdGlvbjphYnNvbHV0ZTt0ZXh0LWFsaWduOmNlbnRlcjttYXgtd2lkdGg6MjAwcHg7cGFkZGluZzoycHg7Zm9udC1mYW1pbHk6InRyZWJ1Y2hldCBtcyIsdmVyZGFuYSxhcmlhbCxzYW5zLXNlcmlmO2ZvbnQtc2l6ZToxMnB4O2JhY2tncm91bmQ6aHNsKC0xNjAsIDAlLCA5My4zMzMzMzMzMzMzJSk7Ym9yZGVyOjFweCBzb2xpZCAjNzA3MDcwO2JvcmRlci1yYWRpdXM6MnB4O3BvaW50ZXItZXZlbnRzOm5vbmU7ei1pbmRleDoxMDA7fSNtZXJtYWlkLWRpYWdyYW0tbWVybWFpZC1qcWQxdnpwIC5mbG93Y2hhcnRUaXRsZVRleHR7dGV4dC1hbmNob3I6bWlkZGxlO2ZvbnQtc2l6ZToxOHB4O2ZpbGw6IzAwMDAwMDt9I21lcm1haWQtZGlhZ3JhbS1tZXJtYWlkLWpxZDF2enAgcmVjdC50ZXh0e2ZpbGw6bm9uZTtzdHJva2Utd2lkdGg6MDt9I21lcm1haWQtZGlhZ3JhbS1tZXJtYWlkLWpxZDF2enAgLmljb24tc2hhcGUsI21lcm1haWQtZGlhZ3JhbS1tZXJtYWlkLWpxZDF2enAgLmltYWdlLXNoYXBle2JhY2tncm91bmQtY29sb3I6d2hpdGU7dGV4dC1hbGlnbjpjZW50ZXI7fSNtZXJtYWlkLWRpYWdyYW0tbWVybWFpZC1qcWQxdnpwIC5pY29uLXNoYXBlIHAsI21lcm1haWQtZGlhZ3JhbS1tZXJtYWlkLWpxZDF2enAgLmltYWdlLXNoYXBlIHB7YmFja2dyb3VuZC1jb2xvcjp3aGl0ZTtwYWRkaW5nOjJweDt9I21lcm1haWQtZGlhZ3JhbS1tZXJtYWlkLWpxZDF2enAgLmljb24tc2hhcGUgcmVjdCwjbWVybWFpZC1kaWFncmFtLW1lcm1haWQtanFkMXZ6cCAuaW1hZ2Utc2hhcGUgcmVjdHtvcGFjaXR5OjAuNTtiYWNrZ3JvdW5kLWNvbG9yOndoaXRlO2ZpbGw6d2hpdGU7fSNtZXJtYWlkLWRpYWdyYW0tbWVybWFpZC1qcWQxdnpwIDpyb290ey0tbWVybWFpZC1mb250LWZhbWlseToidHJlYnVjaGV0IG1zIix2ZXJkYW5hLGFyaWFsLHNhbnMtc2VyaWY7fTwvc3R5bGU+PGc+PG1hcmtlciBpZD0ibWVybWFpZC1kaWFncmFtLW1lcm1haWQtanFkMXZ6cF9mbG93Y2hhcnQtdjItcG9pbnRFbmQiIGNsYXNzPSJtYXJrZXIgZmxvd2NoYXJ0LXYyIiB2aWV3Qm94PSIwIDAgMTAgMTAiIHJlZlg9IjUiIHJlZlk9IjUiIG1hcmtlclVuaXRzPSJ1c2VyU3BhY2VPblVzZSIgbWFya2VyV2lkdGg9IjgiIG1hcmtlckhlaWdodD0iOCIgb3JpZW50PSJhdXRvIj48cGF0aCBkPSJNIDAgMCBMIDEwIDUgTCAwIDEwIHoiIGNsYXNzPSJhcnJvd01hcmtlclBhdGgiIHN0eWxlPSJzdHJva2Utd2lkdGg6IDE7IHN0cm9rZS1kYXNoYXJyYXk6IDEsIDA7Ii8+PC9tYXJrZXI+PG1hcmtlciBpZD0ibWVybWFpZC1kaWFncmFtLW1lcm1haWQtanFkMXZ6cF9mbG93Y2hhcnQtdjItcG9pbnRTdGFydCIgY2xhc3M9Im1hcmtlciBmbG93Y2hhcnQtdjIiIHZpZXdCb3g9IjAgMCAxMCAxMCIgcmVmWD0iNC41IiByZWZZPSI1IiBtYXJrZXJVbml0cz0idXNlclNwYWNlT25Vc2UiIG1hcmtlcldpZHRoPSI4IiBtYXJrZXJIZWlnaHQ9IjgiIG9yaWVudD0iYXV0byI+PHBhdGggZD0iTSAwIDUgTCAxMCAxMCBMIDEwIDAgeiIgY2xhc3M9ImFycm93TWFya2VyUGF0aCIgc3R5bGU9InN0cm9rZS13aWR0aDogMTsgc3Ryb2tlLWRhc2hhcnJheTogMSwgMDsiLz48L21hcmtlcj48bWFya2VyIGlkPSJtZXJtYWlkLWRpYWdyYW0tbWVybWFpZC1qcWQxdnpwX2Zsb3djaGFydC12Mi1jaXJjbGVFbmQiIGNsYXNzPSJtYXJrZXIgZmxvd2NoYXJ0LXYyIiB2aWV3Qm94PSIwIDAgMTAgMTAiIHJlZlg9IjExIiByZWZZPSI1IiBtYXJrZXJVbml0cz0idXNlclNwYWNlT25Vc2UiIG1hcmtlcldpZHRoPSIxMSIgbWFya2VySGVpZ2h0PSIxMSIgb3JpZW50PSJhdXRvIj48Y2lyY2xlIGN4PSI1IiBjeT0iNSIgcj0iNSIgY2xhc3M9ImFycm93TWFya2VyUGF0aCIgc3R5bGU9InN0cm9rZS13aWR0aDogMTsgc3Ryb2tlLWRhc2hhcnJheTogMSwgMDsiLz48L21hcmtlcj48bWFya2VyIGlkPSJtZXJtYWlkLWRpYWdyYW0tbWVybWFpZC1qcWQxdnpwX2Zsb3djaGFydC12Mi1jaXJjbGVTdGFydCIgY2xhc3M9Im1hcmtlciBmbG93Y2hhcnQtdjIiIHZpZXdCb3g9IjAgMCAxMCAxMCIgcmVmWD0iLTEiIHJlZlk9IjUiIG1hcmtlclVuaXRzPSJ1c2VyU3BhY2VPblVzZSIgbWFya2VyV2lkdGg9IjExIiBtYXJrZXJIZWlnaHQ9IjExIiBvcmllbnQ9ImF1dG8iPjxjaXJjbGUgY3g9IjUiIGN5PSI1IiByPSI1IiBjbGFzcz0iYXJyb3dNYXJrZXJQYXRoIiBzdHlsZT0ic3Ryb2tlLXdpZHRoOiAxOyBzdHJva2UtZGFzaGFycmF5OiAxLCAwOyIvPjwvbWFya2VyPjxtYXJrZXIgaWQ9Im1lcm1haWQtZGlhZ3JhbS1tZXJtYWlkLWpxZDF2enBfZmxvd2NoYXJ0LXYyLWNyb3NzRW5kIiBjbGFzcz0ibWFya2VyIGNyb3NzIGZsb3djaGFydC12MiIgdmlld0JveD0iMCAwIDExIDExIiByZWZYPSIxMiIgcmVmWT0iNS4yIiBtYXJrZXJVbml0cz0idXNlclNwYWNlT25Vc2UiIG1hcmtlcldpZHRoPSIxMSIgbWFya2VySGVpZ2h0PSIxMSIgb3JpZW50PSJhdXRvIj48cGF0aCBkPSJNIDEsMSBsIDksOSBNIDEwLDEgbCAtOSw5IiBjbGFzcz0iYXJyb3dNYXJrZXJQYXRoIiBzdHlsZT0ic3Ryb2tlLXdpZHRoOiAyOyBzdHJva2UtZGFzaGFycmF5OiAxLCAwOyIvPjwvbWFya2VyPjxtYXJrZXIgaWQ9Im1lcm1haWQtZGlhZ3JhbS1tZXJtYWlkLWpxZDF2enBfZmxvd2NoYXJ0LXYyLWNyb3NzU3RhcnQiIGNsYXNzPSJtYXJrZXIgY3Jvc3MgZmxvd2NoYXJ0LXYyIiB2aWV3Qm94PSIwIDAgMTEgMTEiIHJlZlg9Ii0xIiByZWZZPSI1LjIiIG1hcmtlclVuaXRzPSJ1c2VyU3BhY2VPblVzZSIgbWFya2VyV2lkdGg9IjExIiBtYXJrZXJIZWlnaHQ9IjExIiBvcmllbnQ9ImF1dG8iPjxwYXRoIGQ9Ik0gMSwxIGwgOSw5IE0gMTAsMSBsIC05LDkiIGNsYXNzPSJhcnJvd01hcmtlclBhdGgiIHN0eWxlPSJzdHJva2Utd2lkdGg6IDI7IHN0cm9rZS1kYXNoYXJyYXk6IDEsIDA7Ii8+PC9tYXJrZXI+PGcgY2xhc3M9InJvb3QiPjxnIGNsYXNzPSJjbHVzdGVycyIvPjxnIGNsYXNzPSJlZGdlUGF0aHMiPjxwYXRoIGQ9Ik0xNDkuNzg4LDQzLjA4MkwxNTMuOTU0LDQxLjczNUMxNTguMTIxLDQwLjM4OCwxNjYuNDU0LDM3LjY5NCwxNzQuMTIxLDM2LjM0N0MxODEuNzg4LDM1LDE4OC43ODgsMzUsMTkyLjI4OCwzNUwxOTUuNzg4LDM1IiBpZD0iTF9BX0JfMCIgY2xhc3M9ImVkZ2UtdGhpY2tuZXNzLW5vcm1hbCBlZGdlLXBhdHRlcm4tc29saWQgZWRnZS10aGlja25lc3Mtbm9ybWFsIGVkZ2UtcGF0dGVybi1zb2xpZCBmbG93Y2hhcnQtbGluayIgc3R5bGU9IiIgbWFya2VyLWVuZD0idXJsKCNtZXJtYWlkLWRpYWdyYW0tbWVybWFpZC1qcWQxdnpwX2Zsb3djaGFydC12Mi1wb2ludEVuZCkiLz48cGF0aCBkPSJNMzQ1LjgyNSwzNUwzNDkuOTkyLDM1QzM1NC4xNTgsMzUsMzYyLjQ5MiwzNSwzNzAuMTU4LDM1QzM3Ny44MjUsMzUsMzg0LjgyNSwzNSwzODguMzI1LDM1TDM5MS44MjUsMzUiIGlkPSJMX0JfQ18wIiBjbGFzcz0iZWRnZS10aGlja25lc3Mtbm9ybWFsIGVkZ2UtcGF0dGVybi1zb2xpZCBlZGdlLXRoaWNrbmVzcy1ub3JtYWwgZWRnZS1wYXR0ZXJuLXNvbGlkIGZsb3djaGFydC1saW5rIiBzdHlsZT0iIiBtYXJrZXItZW5kPSJ1cmwoI21lcm1haWQtZGlhZ3JhbS1tZXJtYWlkLWpxZDF2enBfZmxvd2NoYXJ0LXYyLXBvaW50RW5kKSIvPjxwYXRoIGQ9Ik01NjMuNjg4LDM1TDU2Ny44NTQsMzVDNTcyLjAyMSwzNSw1ODAuMzU0LDM1LDU4OC4wMjEsMzVDNTk1LjY4OCwzNSw2MDIuNjg4LDM1LDYwNi4xODgsMzVMNjA5LjY4OCwzNSIgaWQ9IkxfQ19EXzAiIGNsYXNzPSJlZGdlLXRoaWNrbmVzcy1ub3JtYWwgZWRnZS1wYXR0ZXJuLXNvbGlkIGVkZ2UtdGhpY2tuZXNzLW5vcm1hbCBlZGdlLXBhdHRlcm4tc29saWQgZmxvd2NoYXJ0LWxpbmsiIHN0eWxlPSIiIG1hcmtlci1lbmQ9InVybCgjbWVybWFpZC1kaWFncmFtLW1lcm1haWQtanFkMXZ6cF9mbG93Y2hhcnQtdjItcG9pbnRFbmQpIi8+PHBhdGggZD0iTTgyOS4zMTMsMzVMODMzLjQ3OSwzNUM4MzcuNjQ2LDM1LDg0NS45NzksMzUsODUzLjY5MywzNi40MTVDODYxLjQwNywzNy44Myw4NjguNTAyLDQwLjY2LDg3Mi4wNSw0Mi4wNzVMODc1LjU5Nyw0My40OTEiIGlkPSJMX0RfRV8wIiBjbGFzcz0iZWRnZS10aGlja25lc3Mtbm9ybWFsIGVkZ2UtcGF0dGVybi1zb2xpZCBlZGdlLXRoaWNrbmVzcy1ub3JtYWwgZWRnZS1wYXR0ZXJuLXNvbGlkIGZsb3djaGFydC1saW5rIiBzdHlsZT0iIiBtYXJrZXItZW5kPSJ1cmwoI21lcm1haWQtZGlhZ3JhbS1tZXJtYWlkLWpxZDF2enBfZmxvd2NoYXJ0LXYyLXBvaW50RW5kKSIvPjxwYXRoIGQ9Ik04NzkuMzEzLDg3LjAyN0w4NzUuMTQ2LDg4LjY4OUM4NzAuOTc5LDkwLjM1Miw4NjIuNjQ2LDkzLjY3Niw4MzYuMzQ0LDk1LjMzOEM4MTAuMDQyLDk3LDc2NS43NzEsOTcsNzIxLjUsOTdDNjc3LjIyOSw5Nyw2MzIuOTU4LDk3LDU5Mi42NjgsOTdDNTUyLjM3Nyw5Nyw1MTYuMDY3LDk3LDQ3OS43NTYsOTdDNDQzLjQ0Niw5Nyw0MDcuMTM1LDk3LDM3Mi42NDQsOTdDMzM4LjE1Miw5NywzMDUuNDc5LDk3LDI3Mi44MDYsOTdDMjQwLjEzMyw5NywyMDcuNDYsOTcsMTg3LjU5Miw5NS44NThDMTY3LjcyMyw5NC43MTYsMTYwLjY1OCw5Mi40MzIsMTU3LjEyNiw5MS4yOUwxNTMuNTk0LDkwLjE0OSIgaWQ9IkxfRV9BXzAiIGNsYXNzPSJlZGdlLXRoaWNrbmVzcy1ub3JtYWwgZWRnZS1wYXR0ZXJuLXNvbGlkIGVkZ2UtdGhpY2tuZXNzLW5vcm1hbCBlZGdlLXBhdHRlcm4tc29saWQgZmxvd2NoYXJ0LWxpbmsiIHN0eWxlPSIiIG1hcmtlci1lbmQ9InVybCgjbWVybWFpZC1kaWFncmFtLW1lcm1haWQtanFkMXZ6cF9mbG93Y2hhcnQtdjItcG9pbnRFbmQpIi8+PC9nPjxnIGNsYXNzPSJlZGdlTGFiZWxzIj48ZyBjbGFzcz0iZWRnZUxhYmVsIj48ZyBjbGFzcz0ibGFiZWwiIHRyYW5zZm9ybT0idHJhbnNsYXRlKDAsIDApIj48Zm9yZWlnbk9iamVjdCB3aWR0aD0iMCIgaGVpZ2h0PSIwIj48ZGl2IHhtbG5zPSJodHRwOi8vd3d3LnczLm9yZy8xOTk5L3hodG1sIiBzdHlsZT0iZGlzcGxheTogdGFibGUtY2VsbDsgd2hpdGUtc3BhY2U6IG5vd3JhcDsgbGluZS1oZWlnaHQ6IDEuNTsgbWF4LXdpZHRoOiAyMDBweDsgdGV4dC1hbGlnbjogY2VudGVyOyIgY2xhc3M9ImxhYmVsQmtnIj48c3BhbiBjbGFzcz0iZWRnZUxhYmVsIj48L3NwYW4+PC9kaXY+PC9mb3JlaWduT2JqZWN0PjwvZz48L2c+PGcgY2xhc3M9ImVkZ2VMYWJlbCI+PGcgY2xhc3M9ImxhYmVsIiB0cmFuc2Zvcm09InRyYW5zbGF0ZSgwLCAwKSI+PGZvcmVpZ25PYmplY3Qgd2lkdGg9IjAiIGhlaWdodD0iMCI+PGRpdiB4bWxucz0iaHR0cDovL3d3dy53My5vcmcvMTk5OS94aHRtbCIgc3R5bGU9ImRpc3BsYXk6IHRhYmxlLWNlbGw7IHdoaXRlLXNwYWNlOiBub3dyYXA7IGxpbmUtaGVpZ2h0OiAxLjU7IG1heC13aWR0aDogMjAwcHg7IHRleHQtYWxpZ246IGNlbnRlcjsiIGNsYXNzPSJsYWJlbEJrZyI+PHNwYW4gY2xhc3M9ImVkZ2VMYWJlbCI+PC9zcGFuPjwvZGl2PjwvZm9yZWlnbk9iamVjdD48L2c+PC9nPjxnIGNsYXNzPSJlZGdlTGFiZWwiPjxnIGNsYXNzPSJsYWJlbCIgdHJhbnNmb3JtPSJ0cmFuc2xhdGUoMCwgMCkiPjxmb3JlaWduT2JqZWN0IHdpZHRoPSIwIiBoZWlnaHQ9IjAiPjxkaXYgeG1sbnM9Imh0dHA6Ly93d3cudzMub3JnLzE5OTkveGh0bWwiIHN0eWxlPSJkaXNwbGF5OiB0YWJsZS1jZWxsOyB3aGl0ZS1zcGFjZTogbm93cmFwOyBsaW5lLWhlaWdodDogMS41OyBtYXgtd2lkdGg6IDIwMHB4OyB0ZXh0LWFsaWduOiBjZW50ZXI7IiBjbGFzcz0ibGFiZWxCa2ciPjxzcGFuIGNsYXNzPSJlZGdlTGFiZWwiPjwvc3Bhbj48L2Rpdj48L2ZvcmVpZ25PYmplY3Q+PC9nPjwvZz48ZyBjbGFzcz0iZWRnZUxhYmVsIj48ZyBjbGFzcz0ibGFiZWwiIHRyYW5zZm9ybT0idHJhbnNsYXRlKDAsIDApIj48Zm9yZWlnbk9iamVjdCB3aWR0aD0iMCIgaGVpZ2h0PSIwIj48ZGl2IHhtbG5zPSJodHRwOi8vd3d3LnczLm9yZy8xOTk5L3hodG1sIiBzdHlsZT0iZGlzcGxheTogdGFibGUtY2VsbDsgd2hpdGUtc3BhY2U6IG5vd3JhcDsgbGluZS1oZWlnaHQ6IDEuNTsgbWF4LXdpZHRoOiAyMDBweDsgdGV4dC1hbGlnbjogY2VudGVyOyIgY2xhc3M9ImxhYmVsQmtnIj48c3BhbiBjbGFzcz0iZWRnZUxhYmVsIj48L3NwYW4+PC9kaXY+PC9mb3JlaWduT2JqZWN0PjwvZz48L2c+PGcgY2xhc3M9ImVkZ2VMYWJlbCI+PGcgY2xhc3M9ImxhYmVsIiB0cmFuc2Zvcm09InRyYW5zbGF0ZSgwLCAwKSI+PGZvcmVpZ25PYmplY3Qgd2lkdGg9IjAiIGhlaWdodD0iMCI+PGRpdiB4bWxucz0iaHR0cDovL3d3dy53My5vcmcvMTk5OS94aHRtbCIgc3R5bGU9ImRpc3BsYXk6IHRhYmxlLWNlbGw7IHdoaXRlLXNwYWNlOiBub3dyYXA7IGxpbmUtaGVpZ2h0OiAxLjU7IG1heC13aWR0aDogMjAwcHg7IHRleHQtYWxpZ246IGNlbnRlcjsiIGNsYXNzPSJsYWJlbEJrZyI+PHNwYW4gY2xhc3M9ImVkZ2VMYWJlbCI+PC9zcGFuPjwvZGl2PjwvZm9yZWlnbk9iamVjdD48L2c+PC9nPjwvZz48ZyBjbGFzcz0ibm9kZXMiPjxnIGNsYXNzPSJub2RlIGRlZmF1bHQiIGlkPSJmbG93Y2hhcnQtQS0wIiB0cmFuc2Zvcm09InRyYW5zbGF0ZSg3OC44OTM3NTMwNTE3NTc4MSwgNjYpIj48cmVjdCBjbGFzcz0iYmFzaWMgbGFiZWwtY29udGFpbmVyIiBzdHlsZT0iIiB4PSItNzAuODkzNzQ5MjM3MDYwNTUiIHk9Ii0yNyIgd2lkdGg9IjE0MS43ODc0OTg0NzQxMjExIiBoZWlnaHQ9IjU0Ii8+PGcgY2xhc3M9ImxhYmVsIiBzdHlsZT0iIiB0cmFuc2Zvcm09InRyYW5zbGF0ZSgtNDAuODkzNzQ5MjM3MDYwNTUsIC0xMikiPjxyZWN0Lz48Zm9yZWlnbk9iamVjdCB3aWR0aD0iODEuNzg3NDk4NDc0MTIxMSIgaGVpZ2h0PSIyNCI+PGRpdiB4bWxucz0iaHR0cDovL3d3dy53My5vcmcvMTk5OS94aHRtbCIgc3R5bGU9ImRpc3BsYXk6IHRhYmxlLWNlbGw7IHdoaXRlLXNwYWNlOiBub3dyYXA7IGxpbmUtaGVpZ2h0OiAxLjU7IG1heC13aWR0aDogMjAwcHg7IHRleHQtYWxpZ246IGNlbnRlcjsiPjxzcGFuIGNsYXNzPSJub2RlTGFiZWwiPjxwPlZpcnR1YWwgUG9vbDwvcD48L3NwYW4+PC9kaXY+PC9mb3JlaWduT2JqZWN0PjwvZz48L2c+PGcgY2xhc3M9Im5vZGUgZGVmYXVsdCIgaWQ9ImZsb3djaGFydC1CLTEiIHRyYW5zZm9ybT0idHJhbnNsYXRlKDI3Mi44MDYyNTkxNTUyNzM0NCwgMzUpIj48cmVjdCBjbGFzcz0iYmFzaWMgbGFiZWwtY29udGFpbmVyIiBzdHlsZT0iIiB4PSItNzMuMDE4NzQ5MjM3MDYwNTUiIHk9Ii0yNyIgd2lkdGg9IjE0Ni4wMzc0OTg0NzQxMjExIiBoZWlnaHQ9IjU0Ii8+PGcgY2xhc3M9ImxhYmVsIiBzdHlsZT0iIiB0cmFuc2Zvcm09InRyYW5zbGF0ZSgtNDMuMDE4NzQ5MjM3MDYwNTUsIC0xMikiPjxyZWN0Lz48Zm9yZWlnbk9iamVjdCB3aWR0aD0iODYuMDM3NDk4NDc0MTIxMSIgaGVpZ2h0PSIyNCI+PGRpdiB4bWxucz0iaHR0cDovL3d3dy53My5vcmcvMTk5OS94aHRtbCIgc3R5bGU9ImRpc3BsYXk6IHRhYmxlLWNlbGw7IHdoaXRlLXNwYWNlOiBub3dyYXA7IGxpbmUtaGVpZ2h0OiAxLjU7IG1heC13aWR0aDogMjAwcHg7IHRleHQtYWxpZ246IGNlbnRlcjsiPjxzcGFuIGNsYXNzPSJub2RlTGFiZWwiPjxwPkJhZCBQb3NpdGlvbjwvcD48L3NwYW4+PC9kaXY+PC9mb3JlaWduT2JqZWN0PjwvZz48L2c+PGcgY2xhc3M9Im5vZGUgZGVmYXVsdCIgaWQ9ImZsb3djaGFydC1DLTMiIHRyYW5zZm9ybT0idHJhbnNsYXRlKDQ3OS43NTYyNjM3MzI5MTAxNiwgMzUpIj48cmVjdCBjbGFzcz0iYmFzaWMgbGFiZWwtY29udGFpbmVyIiBzdHlsZT0iIiB4PSItODMuOTMxMjUxNTI1ODc4OSIgeT0iLTI3IiB3aWR0aD0iMTY3Ljg2MjUwMzA1MTc1NzgiIGhlaWdodD0iNTQiLz48ZyBjbGFzcz0ibGFiZWwiIHN0eWxlPSIiIHRyYW5zZm9ybT0idHJhbnNsYXRlKC01My45MzEyNTE1MjU4Nzg5MDYsIC0xMikiPjxyZWN0Lz48Zm9yZWlnbk9iamVjdCB3aWR0aD0iMTA3Ljg2MjUwMzA1MTc1NzgxIiBoZWlnaHQ9IjI0Ij48ZGl2IHhtbG5zPSJodHRwOi8vd3d3LnczLm9yZy8xOTk5L3hodG1sIiBzdHlsZT0iZGlzcGxheTogdGFibGUtY2VsbDsgd2hpdGUtc3BhY2U6IG5vd3JhcDsgbGluZS1oZWlnaHQ6IDEuNTsgbWF4LXdpZHRoOiAyMDBweDsgdGV4dC1hbGlnbjogY2VudGVyOyI+PHNwYW4gY2xhc3M9Im5vZGVMYWJlbCI+PHA+REVYIEFnZ3JlZ2F0b3I8L3A+PC9zcGFuPjwvZGl2PjwvZm9yZWlnbk9iamVjdD48L2c+PC9nPjxnIGNsYXNzPSJub2RlIGRlZmF1bHQiIGlkPSJmbG93Y2hhcnQtRC01IiB0cmFuc2Zvcm09InRyYW5zbGF0ZSg3MjEuNTAwMDE1MjU4Nzg5MSwgMzUpIj48cmVjdCBjbGFzcz0iYmFzaWMgbGFiZWwtY29udGFpbmVyIiBzdHlsZT0iIiB4PSItMTA3LjgxMjUiIHk9Ii0yNyIgd2lkdGg9IjIxNS42MjUiIGhlaWdodD0iNTQiLz48ZyBjbGFzcz0ibGFiZWwiIHN0eWxlPSIiIHRyYW5zZm9ybT0idHJhbnNsYXRlKC03Ny44MTI1LCAtMTIpIj48cmVjdC8+PGZvcmVpZ25PYmplY3Qgd2lkdGg9IjE1NS42MjUiIGhlaWdodD0iMjQiPjxkaXYgeG1sbnM9Imh0dHA6Ly93d3cudzMub3JnLzE5OTkveGh0bWwiIHN0eWxlPSJkaXNwbGF5OiB0YWJsZS1jZWxsOyB3aGl0ZS1zcGFjZTogbm93cmFwOyBsaW5lLWhlaWdodDogMS41OyBtYXgtd2lkdGg6IDIwMHB4OyB0ZXh0LWFsaWduOiBjZW50ZXI7Ij48c3BhbiBjbGFzcz0ibm9kZUxhYmVsIj48cD5BcmJpdHJhZ2UgT3Bwb3J0dW5pdHk8L3A+PC9zcGFuPjwvZGl2PjwvZm9yZWlnbk9iamVjdD48L2c+PC9nPjxnIGNsYXNzPSJub2RlIGRlZmF1bHQiIGlkPSJmbG93Y2hhcnQtRS03IiB0cmFuc2Zvcm09InRyYW5zbGF0ZSg5MzIuMDI1MDE2Nzg0NjY4LCA2NikiPjxyZWN0IGNsYXNzPSJiYXNpYyBsYWJlbC1jb250YWluZXIiIHN0eWxlPSIiIHg9Ii01Mi43MTI0OTk2MTg1MzAyNyIgeT0iLTI3IiB3aWR0aD0iMTA1LjQyNDk5OTIzNzA2MDU1IiBoZWlnaHQ9IjU0Ii8+PGcgY2xhc3M9ImxhYmVsIiBzdHlsZT0iIiB0cmFuc2Zvcm09InRyYW5zbGF0ZSgtMjIuNzEyNDk5NjE4NTMwMjczLCAtMTIpIj48cmVjdC8+PGZvcmVpZ25PYmplY3Qgd2lkdGg9IjQ1LjQyNDk5OTIzNzA2MDU1IiBoZWlnaHQ9IjI0Ij48ZGl2IHhtbG5zPSJodHRwOi8vd3d3LnczLm9yZy8xOTk5L3hodG1sIiBzdHlsZT0iZGlzcGxheTogdGFibGUtY2VsbDsgd2hpdGUtc3BhY2U6IG5vd3JhcDsgbGluZS1oZWlnaHQ6IDEuNTsgbWF4LXdpZHRoOiAyMDBweDsgdGV4dC1hbGlnbjogY2VudGVyOyI+PHNwYW4gY2xhc3M9Im5vZGVMYWJlbCI+PHA+VHJhZGVyPC9wPjwvc3Bhbj48L2Rpdj48L2ZvcmVpZ25PYmplY3Q+PC9nPjwvZz48L2c+PC9nPjwvZz48L3N2Zz4=;" vertex="1" parent="1">
          <mxGeometry x="9402" y="703" width="735.49" height="67" as="geometry" />
        </mxCell>
        <mxCell id="3ofdXOLbKWFfFdMxITbS-127" value="VISUALIZING DEX AGGREGATOR STYLE LIQUIDATION" style="text;whiteSpace=wrap;fillColor=#f8cecc;strokeColor=none;verticalAlign=middle;align=center;" vertex="1" parent="1">
          <mxGeometry x="9400" y="591" width="340" height="40" as="geometry" />
        </mxCell>
        <mxCell id="3ofdXOLbKWFfFdMxITbS-128" value="Note both liquidation routes are open simulataneously, that means both traders and liquidators can liquidate positions" style="text;whiteSpace=wrap;fillColor=#ffe6cc;strokeColor=none;align=center;verticalAlign=middle;fontSize=13;" vertex="1" parent="1">
          <mxGeometry x="9495" y="870" width="560" height="50" as="geometry" />
        </mxCell>
        <mxCell id="3ofdXOLbKWFfFdMxITbS-129" value="ADVANTAGES" style="text;whiteSpace=wrap;fillColor=#d5e8d4;strokeColor=#82b366;verticalAlign=middle;align=center;" vertex="1" parent="1">
          <mxGeometry x="10290" y="120" width="125" height="40" as="geometry" />
        </mxCell>
        <mxCell id="3ofdXOLbKWFfFdMxITbS-130" value="DIS-ADVANTAGES" style="text;whiteSpace=wrap;fillColor=#f8cecc;strokeColor=none;verticalAlign=middle;align=center;" vertex="1" parent="1">
          <mxGeometry x="10280" y="420" width="125" height="40" as="geometry" />
        </mxCell>
        <mxCell id="3ofdXOLbKWFfFdMxITbS-131" value="- low fee &#xa;&#xa;- gas effective  ---&gt; multi-position liquidation&#xa;&#xa;- no need for liquidation tracking --&gt; dex aggregator intergration" style="text;whiteSpace=wrap;fontSize=14;fontStyle=2" vertex="1" parent="1">
          <mxGeometry x="10290" y="210" width="410" height="112.5" as="geometry" />
        </mxCell>
        <mxCell id="3ofdXOLbKWFfFdMxITbS-132" value="- supports only single collateral types&#xa;&#xa;- low penalty means low liquidator rewards&#xa;&#xa;- can&#39;t fine tune positions to prevent frequent liquidations due to volatility" style="text;whiteSpace=wrap;fontSize=14;fontStyle=2" vertex="1" parent="1">
          <mxGeometry x="10280" y="490" width="470" height="110" as="geometry" />
        </mxCell>
        <mxCell id="3ofdXOLbKWFfFdMxITbS-137" value="&lt;span style=&quot;font-size: 20px;&quot;&gt;Which protocol Do you feel has the better liquidation mechanism?&amp;nbsp;&lt;/span&gt;" style="rounded=0;whiteSpace=wrap;html=1;fillColor=#dae8fc;strokeColor=#6c8ebf;" vertex="1" parent="1">
          <mxGeometry x="13650" y="196.25" width="690" height="67.5" as="geometry" />
        </mxCell>
        <mxCell id="3ofdXOLbKWFfFdMxITbS-138" value="&lt;span style=&quot;font-size: 20px;&quot;&gt;What if we benchmark these mechanisms against historical data of their behaviour to different market risks ? How did these systems behave when gas costs were high? when liquidity was low ? when volatily of debt asset or collateral asset was out of control ?&lt;/span&gt;" style="rounded=0;whiteSpace=wrap;html=1;fillColor=#fff2cc;strokeColor=#d6b656;" vertex="1" parent="1">
          <mxGeometry x="13650" y="348.5" width="690" height="151" as="geometry" />
        </mxCell>
        <mxCell id="3ofdXOLbKWFfFdMxITbS-141" value="" style="edgeStyle=orthogonalEdgeStyle;rounded=0;orthogonalLoop=1;jettySize=auto;html=1;" edge="1" parent="1" source="3ofdXOLbKWFfFdMxITbS-139" target="3ofdXOLbKWFfFdMxITbS-140">
          <mxGeometry relative="1" as="geometry" />
        </mxCell>
        <mxCell id="3ofdXOLbKWFfFdMxITbS-139" value="&lt;span style=&quot;font-size: 20px;&quot;&gt;what are your thoughts about this system&lt;/span&gt;" style="rounded=0;whiteSpace=wrap;html=1;fillColor=#d5e8d4;strokeColor=#82b366;" vertex="1" parent="1">
          <mxGeometry x="13650" y="550" width="690" height="70.5" as="geometry" />
        </mxCell>
        <mxCell id="3ofdXOLbKWFfFdMxITbS-140" value="&lt;div&gt;&lt;font face=&quot;Helvetica&quot; style=&quot;font-size: 14px;&quot;&gt;&lt;i style=&quot;&quot;&gt;crvUSD style banded liquidations , 4-50 bands per liquidation range&lt;/i&gt;&lt;/font&gt;&lt;/div&gt;&lt;div&gt;&lt;font face=&quot;Helvetica&quot; style=&quot;font-size: 14px;&quot;&gt;&lt;i style=&quot;&quot;&gt;&lt;br&gt;&lt;/i&gt;&lt;/font&gt;&lt;/div&gt;&lt;div&gt;&lt;font face=&quot;Helvetica&quot; style=&quot;font-size: 14px;&quot;&gt;&lt;i&gt;Only liquidations and no deliquidations&lt;/i&gt;&lt;/font&gt;&lt;/div&gt;&lt;div&gt;&lt;font face=&quot;Helvetica&quot; style=&quot;font-size: 14px;&quot;&gt;&lt;i&gt;&lt;br&gt;&lt;/i&gt;&lt;/font&gt;&lt;/div&gt;&lt;div&gt;&lt;font face=&quot;Helvetica&quot; style=&quot;font-size: 14px;&quot;&gt;&lt;i&gt;moderate liquidation penalty of 3%-7%&lt;/i&gt;&lt;/font&gt;&lt;/div&gt;&lt;div&gt;&lt;font face=&quot;Helvetica&quot; style=&quot;font-size: 14px;&quot;&gt;&lt;i&gt;&lt;br&gt;&lt;/i&gt;&lt;/font&gt;&lt;/div&gt;&lt;div&gt;&lt;font face=&quot;Helvetica&quot; style=&quot;font-size: 14px;&quot;&gt;&lt;i&gt;hard liquidation beyond certain Health factor or LTV&lt;/i&gt;&lt;/font&gt;&lt;/div&gt;&lt;div&gt;&lt;font face=&quot;Helvetica&quot; style=&quot;font-size: 14px;&quot;&gt;&lt;i&gt;&lt;br&gt;&lt;/i&gt;&lt;/font&gt;&lt;/div&gt;&lt;div&gt;&lt;font face=&quot;Helvetica&quot; style=&quot;font-size: 14px;&quot;&gt;&lt;i&gt;Multi Position liquidation mechanism for minimizing liquidator&#39;s gas costs and keeping overall process efficient and fast&lt;/i&gt;&lt;/font&gt;&lt;/div&gt;&lt;div&gt;&lt;i style=&quot;font-size: 14px; background-color: transparent; color: light-dark(rgb(0, 0, 0), rgb(255, 255, 255));&quot;&gt;&lt;font face=&quot;Helvetica&quot;&gt;Dex integration for adding traders as secondary liquidators&lt;/font&gt;&lt;/i&gt;&lt;/div&gt;" style="whiteSpace=wrap;html=1;fillColor=#f5f5f5;strokeColor=none;rounded=0;fontColor=#333333;" vertex="1" parent="1">
          <mxGeometry x="13682.5" y="695" width="625" height="214.75" as="geometry" />
        </mxCell>
        <mxCell id="3ofdXOLbKWFfFdMxITbS-142" value="&lt;font face=&quot;Helvetica&quot; style=&quot;font-size: 16px;&quot;&gt;debt that cannot be fully repaid by selling the borrower’s collateral.&lt;/font&gt;" style="text;whiteSpace=wrap;html=1;" vertex="1" parent="1">
          <mxGeometry x="80" y="152.5" width="510" height="44.5" as="geometry" />
        </mxCell>
        <mxCell id="3ofdXOLbKWFfFdMxITbS-143" value="&lt;font face=&quot;Helvetica&quot; style=&quot;font-size: 16px;&quot;&gt;If protocol requires , $1.25 for every borrow of $1 , and user has only backed his debt 1:1 with collateral , will it be considered bad debt ? No&lt;/font&gt;" style="text;whiteSpace=wrap;html=1;" vertex="1" parent="1">
          <mxGeometry x="80" y="186.75" width="640" height="44.5" as="geometry" />
        </mxCell>
        <mxCell id="3ofdXOLbKWFfFdMxITbS-144" value="&lt;font face=&quot;Helvetica&quot; style=&quot;font-size: 16px;&quot;&gt;In order to Protect protocol from bad debt, we employ liquidation techniques.&lt;/font&gt;" style="text;whiteSpace=wrap;html=1;" vertex="1" parent="1">
          <mxGeometry x="80" y="253" width="640" height="44.5" as="geometry" />
        </mxCell>
        <mxCell id="3ofdXOLbKWFfFdMxITbS-145" value="&lt;div style=&quot;text-wrap-mode: nowrap;&quot;&gt;&lt;font style=&quot;font-size: 19px;&quot;&gt;GLOSSARY&lt;/font&gt;&lt;/div&gt;&lt;span style=&quot;font-size: 22px; text-wrap-mode: nowrap;&quot;&gt;&lt;/span&gt;" style="rounded=1;whiteSpace=wrap;html=1;fillColor=#d5e8d4;strokeColor=#82b366;verticalAlign=middle;" vertex="1" parent="1">
          <mxGeometry x="80" y="327.5" width="130" height="45" as="geometry" />
        </mxCell>
        <mxCell id="3ofdXOLbKWFfFdMxITbS-146" value="&lt;span style=&quot;font-size: 20px;&quot;&gt;DISCUSSION&lt;/span&gt;" style="rounded=0;whiteSpace=wrap;html=1;fillColor=#f8cecc;strokeColor=#b85450;" vertex="1" parent="1">
          <mxGeometry x="13900" y="61.25" width="220" height="67.5" as="geometry" />
        </mxCell>
        <mxCell id="3ofdXOLbKWFfFdMxITbS-147" value="KAMINO : &#xa;- explaination of borrow factor&#xa;- mathematical explanation of LTV, borrow capacity&#xa;- liquidation penalty and dynamic liquidation penalties with examples&#xa;- liquidations, full/,partial/,self liquidations, &#xa;- How gas costs affect liquidator profits ?&#xa;&#xa;&#xa;AAVE : &#xa;- liquidity threshold&#xa;- weighted average liquidity threshold&#xa;- Health factor&#xa;- Abstractive overview of how partial and hard liquidations are handled&#xa;&#xa;&#xa;FLUID VAULT V1:&#xa;- abstractive overview of how it is cost efficient &#xa;- Abstractive Overview of - Turning traders into liquidators without letting them know&#xa;- advantages &amp;&amp; disadvantages&#xa;&#xa;&#xa;crvUSD:&#xa;- Abstractive Overview of LLAMMA (Lending-Liquidating AMM Algorithm) &#xa;- advantages &amp;&amp; disadvantages&#xa;&#xa;&#xa;SHORT DISCUSSION : &#xa;- which systems were efficient ...!&#xa;- My new CABAL Liquidation System" style="text;whiteSpace=wrap;fontSize=16;fillColor=#dae8fc;strokeColor=#6c8ebf;verticalAlign=middle;" vertex="1" parent="1">
          <mxGeometry x="80" y="390" width="480" height="650" as="geometry" />
        </mxCell>
        <mxCell id="3ofdXOLbKWFfFdMxITbS-156" value="" style="group" vertex="1" connectable="0" parent="1">
          <mxGeometry x="-760" y="510" width="210" height="50" as="geometry" />
        </mxCell>
        <mxCell id="3ofdXOLbKWFfFdMxITbS-152" value="" style="shape=image;verticalLabelPosition=bottom;labelBackgroundColor=default;verticalAlign=top;aspect=fixed;imageAspect=0;image=data:image/png,iVBORw0KGgoAAAANSUhEUgAAAMgAAADICAIAAAAiOjnJAAAhXklEQVR4nOydCXQc1ZX3/7239n1fLdmSZdnG+4JjMGAjQyAYMgSYkO3LN8lMyAzYCWEm+SALIZyECZBDgDAwIUBYzHJiIAHbGGzjBW/ybtmyZMvaN2trSb2ol/rO7batxWp116tX1d1y/Y6OjtSqrnrq+td99713731aqKjIgCosFVlQhaUiC6qwVGRBFZaKLKjCUpEFVVgqsqAKS0UWVGGpyIIqLBVZUIWlIguqsFRkQRWWiiyowlKRBVVYKrKgCktFFlRhqciCKiwVWVCFpSILqrBUZEEVloosqMJSkQVVWCqyoApLRRZUYanIgiosFVnQh7oBYYxRh3gjoo2IMcCkg1kPvZa+fAiAwwWnh77bXBh0ot9B31W8aELdgLAh0YzMGGTEIjUaKVH0q0ELi1crg05Sj90Fl4e+fGg0pDaDFiY9ogyINSDWSD/32dFlQ5cVHVa0DaBjEG4hxP9aKLiChaXVIDsWhYnIS0BuPAQBrf1oH0SnFeet6LWzmB+DlhSZEkXqTItBViySzHTORgvqe1HfR7btyuDKE1a0ASUpKE1GYRIZpHPe+93UB8uQLJczaJEdh/wEUnBuHKm2thunusiYTWquGGGZ9ShPo6/sONT1oLoLtT0YkEdM/tBrSGHTUjA9hVy0qk4c6yB7NhmZ7MLSAFOSsCALxUk400M3sqZ72E8KIVmxpPJZGbA6cagVR9rhcIe6TTyZvMIy6jAvE4ty4HSjshVHO8j7Djc0QFES5mfR9xMd2NNMfeWkYDIKK9qAq3PpbtX1Ym8zuVDhT6yRzOrCbDT3Y0cDOfsRzuQSVrQeX8rHvCwc78DuRnTbQ90gkei1ZGWX5aHbhk/r0NQf6gaxM1mEpdeSlVqaSx7x5w3oc4S6QRLQaTA3E9cWkPX65Cy6bKFuEAuTQljlaVhVRAP4iL0N46DXYmkOlubhaDu2nos41z7ChZVsxi0liDPio1ryqCYfsQasLKIh7aYzON4Z6taIIGKFpQF1fMvzsbMRXzTBM6mXTfLjcWsJeuz48DT6Wefe9Fol51kiU1jJZtw+ncT0fnXkeehs6DTkdc3PxsZaHOsI9l358bihCCunkKuQFoPDbfjBR/Qcyk8ECuuqDFQUY2cDfUCT2k6NQ3YcvjqdnPq/12DIj9eVYCIJriqir9LUsX+1OFD2HFpkH29GlLD0Wnx5Gj2F71ShbXKuhATGoMXN3g/h7arh5SCDFotzyBtbVYRFOcOxPeOybjOe2iN3MyMnHivRhLtmotuKFw76fVivBJwecgDmZOBbV+FYO6alkJ5WFCDOFOwZog3yttBLhAgrPx5fK6e+b1djqJsSajJjyG1aVUT+QGas6LcLAjbVytKw0USCsGal46ap+Nsp1HSHuikhIlqPawvJB19ZRJ+GRoIDs/4EDrTybJsfwt7HWuqdT3/jWAicKr0WMQZE6WHyfum1NDTTaOi7IMAt0LDULcDpht0bnWx18lzn1mkwL+uCD351How6Due0OVH6rDILkeFtsW4oRHk6/nwIvYos0ei1SDYjKQoJZsSbYNRi0HlBLg433RWXhyTl8kCrgU5L3w06mHR0fJSeVKjTot+BPgd67Oi20XvFUpxESlpZhOsLqSV8+e0uxZa3w9hiVRShKAmvHGW5PaJINCMjBunRiDWh144eG+nY4mC5rkFLikwwITEKyVGAgE6rN9x5wsj3BBOJ6cZi6uymJEn8b/zS2Ifpz8KqUOxQuArrRu86hqyqijMiNx45cXTL2wfo9vfYOc/gxxqQFkOqTTSTwpr76UIjr5Bowq+vx3fnwix/13HPe3jrhOxXuUhYCuv6QpSmyKUqrQbZcShMQJQBTRb6Yl4kCR6DFllxyIun7rLBm1hhc2FGGj66BwWJsl8dwK4GLP+LkvPJ4SesJTlYlEN+1QBvVem1pKeiJFiGUNeDjsEQTNzHGqkNufHktL1yG/ISlLioR8Cil1CpxGDwEmHmvM9IxbJ8/qrSach3KU4iX2dPk1wJOcEwMITjnTjVhQ1fU0hVAP5yWGFVhZmwcuNwSwleO0q+Ds/TxqMslVzyXY1Kp+X4Y3EObp6m0LX6HfjZZwpdawRhI6x4I+4qxwfVaOWXcBdnxOwMMleVLWEUBKHV4A8VkiY5RfHrHSFZVw0PYek0+Fo5DrRSH8EFDTAtmbq/6i6cC7MAwG/Nxvxsha7VbcO7VQpdazQ85nOls3oqdFr8vYbP2aIN1NeYDNjbjPNhlk0Vb8SGu8mFV4afb8O0FBxth1PpVMowKGNUlorSFGw4xedsWbFYno+WfnLSwzCR8KfLWVaO2dhyFk98gerzuK1UoSuOINTCijfilml4r4pPtYyyFMxII0N1Nsy6Px/FSXhgsULXcnmwdhP9sPks4k1YpFTne5FQC2vNdOxvQaPkgEadBguzkRSFHQ3oDRs/fQz/vQompZzaFyovJF+4Bbx3CtcVIoX3yuOEhFRY87Ng1uPzBqnnMWqxNJee0S+awjcGcOUUeoqUodtG3tUlzluxvR5rSpWcDg+dsOKNuGEK3q+Wujxn0mGpN3X4UFv4hsDrtXiqQrnL/WLb2PzKvc00VF6oXIcYOmGtnorKVqlFfEw6LMtD+wCqznNrmBx8bx5mpit0rapOPF859kUB+LAaKwoRp9CANETCKk5Cdhw+r5d0EoMWS3JpAMhr9ksmks149DrlLrd20/j5gx1WHGrFjUXKtCIUwtJqsLoYm2olTa7oNFiUQ95DmKsKwM+v9cZmKcKH1TQM9Mf2BhQkIj9egYaEQljzMjHoxElpgpiTCbsLJ8I+63xGGn6wUKFrDbnxo08CHPBZHW4sVqAtigvLqMW1BfjkjKSTlKbQcPJQG7dWyceTqwJk+XHkD3sD55scaScXoixF7rYoLqxFOWjuR7OEleaMGOTF40BLBNRruLUEFVMVulb7AB7bEfgwAdh6DtdPkXvqQVlh+SacttaxnyFKj6sycLA1Asr6GLX4/SrlLvf/tgZbFexUF3165WmyNkdZYc3PQqMF7RIWhudmoq43jGJgJuA/FmOa7D3OBQ614s+HRRy/swHL82Vsj6LC0mqwJBc7JEwxFCdCo4mMtNWMGDx8jXKXu3+TOMfgVBd9klNlywhSVFjlqWSrmb2raAOmpkSGww7g0esQH3QxBYmsP44d4pfF9jTRcy4b4l24e2biF9diWrJyMZDhhiDg8Z14eJtfIzE3Ewf+hSy0AticKHuOpTK0XoO1S6gDlae4psjF9pum4vXbr1xJ+bIhvv0+3jvp9wAN8HSFQqoC8PJhxnrjLgGH27AwGxulTf34QWRX+L15V7Sqarux5H8nUhWAO2fgmgKF2tNkwUc17PEwla2YlQ6dLDdUpMVSzG8IOYKAk+dxoIW+n+tFpxU2F463B0gdi9LjdyuVa+RDW3C4HWWp2MlU3anbjvNWlCRLXQUZD5HC2uadW5vEON3YdAZvV2FjLcvuIz9eqlBmM4DdjXjzOARv2khGDGOcyJF2zM4IA2E9sRsrCientrqseHY/nj/AniyVE4f//BLnVvlDEPDApgvxZ6e7MDWZUVhV51ExFSYd9wlnkT6W3Y1b38RnEqbOwxC7C4/tQPEz+Pl2SSl4v12pTBVG4pUj2N9y4eeWAVIGWwCF3YWGPrJ5vBGf/uX04N0qLM2VseCOkuyox+o38O5JqY/s0lwaDCozsul34I63x9YyyYkjhTFg1JHBO8k5UpJpgtTqmgx2yyPgka247lUa60lEqxmrqk21uPMdUoAc/GbnWA019iE1muwWAzVdmJrEfU2adeY90rVldWLNejy6g89O4N+YhUU5w7+6PFj3CVnBJX9GPe9EtLM9ePqyYtouAa0DjFVGLEOwOJAbx6V1l5CwpBO52uqz44bX8OFpPmeLM+LxG0a98tx+VHkjEKs6sexlDhZxJD/+hDzdy2nsYxdHXS8KOTs20tYKI1FbViduegN7+G378V9fQtaIO9plxS+3D//a3I8Vr5CZ4cJndfibn5Txbjv0WsZciXO9KOQ8SyJ5ETqytCUIuPdvPDeTmZKIdUtGvfLItrFRPc39uPkNDmm0Lg8e2DTRAS39yGLK36/3WjuubhaP6IYI0tZjO/w+8Wz8fnRy87F2/M/BcQ6r7sI3N5CspfDiwQDbM7UNIoNJWDYXjTHTo5mbdjmcwmYiQlt7mvDLz3me8LpC3F426pV1m/1u3fbhaTx/gP1aPaOTm/0dE2NgrAjf0o9sntk7/OKxwlxbTje++yHPDfv0WvxhdHLzhlPYMuG//9AWcrHZ+OX2wEtMAtBlQyrTTGlrPzJj2Jo2LlwD/cJZW89eHKnx4v/OxayM4V8dLhqvTcyAEw99ynKtk514Ljhr121jnIJvZ+1G/cA7gjQ8tTUwFFQGS/AkmfHr0cnNT+/FmSCGfm8dxyHxdWbXbQ42ubfbhkSz6PP7CoekhqGPNZIw1NaLB3FeWpxkegyW5mJZHg0Daeh3DVJG3Ia2AfwmOOEKwBNfiLv0P06LiMWzOBBnYhnfWYbIOWObux8Peco1+bT1xXcxO0OW84tCEKgfZKM4CWuX4LZS5I5wbC2OsYvNP/1URInvd6vw5I3B1vUbcmNdoB52JG4BdhdijSy7IvTayRJzqoQrWzKF1YW3T0jKyeHFzoagOqkxmPV46kac/iHuWzhKVb5ox5HJzQda8MpREWd2evD6sWAP/uM+nBYZLNXvYKxx2mfnGMgpm7D03s2xVr+ObefkukSQvDthJPG4JJiw/Vt4YElQoevP7BOdkx1kJeOOQfxK/PzIoBMxTNE7FkckCCtG792TzYU167FXiW3T/fKRyGLMJh023TtqUXlifrcKOSIX6fa1kJcdkIeDTm4eic2JKCZhDTo5xpPJJqxow4UtlvocqHg9ZNpqH0CtyH7wlyuwOGhV+XJTX79D3CU8AnXQE3O4Df97SNxpfdhcjHuJDQ4xmrrxkE1YJv1wNewQakvsHjI5cfjRUtFXubYAt4usLxqwYQ9sYgzpcbgZJ98dbo6728npY40ssx4qbYkNjPyPRYxVh/59kbjjJ56tfecEtrOOe5xuxn/B7uJY1Fm26tBazdj1E5+2Nn0di2XM7B5LcpS48vnMhY1XFCDRLCKEocH/2o7NiZ8wTdD7cHsY02VdHo6lvBQUVki09Z059KUAGg1mpYuoodDpf7royT2S9v9xCdAx6YOrsBQvvBZaX15WisQEYfqbUG224PGdvFoUQkJRg9Snrc2ylAwIJaIed3+O+X99RsP+yEc2YQnCRD19nwM3vYH7PmIPIwlDasRMkSeONxW5pwl/FTOJPy46DWMRTa1GaijiCGTzsdxCgEGvR8BzB/CnSizIxux0xFxchUiLpv9Q4sYCzPx46dgFnGARUC1GWJcHt4xMbpYCCYsp7MzIMx9aPmF5YAjCHHoE7Gumr0sUJiDWeGGDIeUpSWasnl3ZJu5huFy+rx31bkwiGYOOMZ7RoIWTm7Bk6wqdHsbZtiHW+T0uPLOPsTt4Zp+440tTR/06METeFReMOsadGUx6jhZLNmExr1hxnf8VzakuvCymSqyPI21kb0QxL3PUr4/vRIvkvfV8mPVwMG3+GKWnu8YJ2YQ14Bx2m0RBigzpTtVrN4uLVLE4cO/fRPvLXxpRtLiuB0+KjP6bANIHk7BijRx3+ZdNWA43nZuhU7N5FxZCWDbQ4sCqv4pIMf3RZtEe4cy0UT7Wg1vGT25mI9oAK5M+4kyRICzfnEK8eKMleLWl2Hbc49LQh4Uv4f3qoA6+q1z0+e8YkTS27VyA2pNiIX0w9WgJJpYoHT/IKaxeO2PGiMWh2LZ6fum2Yc16XP8qNpy6bKwkYOSswMoiccuRWg2+OfvCz+5Ayc0MxBrpA2QgKYqjsOT0Zrpt1FYG+hxIMDNWe+LL1nP0ZdJhfjZZX4OOnpYTnXi6At+YPXzY71dhY22wQ6qKYhRfLHT20iEcaefZ4Fgj7C6WeBuzDnotS6S8H+Qc2CebkRaD0+Jrreg0yIlHo0VqAx5ejngTzvZK3c7JLVBjanvIqW/oo556bzP+df6wB5kcRbdkV3AVZl+85UIFjl47vvo25wWcjBj69FrFP5OZseT2iQ1f84+cXWH7INKZkmt7bNTfSy+V/mkdPrgb9ffjsevErRAHpKUfvxm9VPyz5UFlElcUY0XhhZ9/tR0dErYVGpfkqKCCni8njbU8rh9kFlZGDMv4ziWg34EkpsTLkexuwlsnkB2Hny7H0e8jj+vOok/tQd2IkWO8CY9dH/hdcy9OX1Wfxx9Zk9ImIDWaMYMyKxbtPH0POYVlc8HqYixv32mlZ0g6D225EHofY8TzN/OcxbC58JMto1759hzMzwrwrlMXI1rXBp3cHDwxBvoH2aYMslhLmPpB5rCZZgt5Swx0DPKpUdFowe92Xfj5yyX4wQIO57zEuyexfURym1aDP1QE0K4vAuLjGnxcy7MlPjJj6XNjQKehvqWV09S/F5mF1diHfKbCmD12GLR8kkae2D0cB/xkBa7mGrw6Zj+3ZfkBprVqemjUtnYzzzZcIjOWxW0HyFvosmKIpwWVWVj1few1CFsHROfrjYvVRR2iD6MOG+7CVH5lzY+048XRldZ+txLR/idxhtx48BNxATZBEq2n5/A802igMJFxpyf/yCys9kFE6WmIx0BTP2to1GWsPzGcx5cWg63fRDG/QeIjW9E3IociLwEPXj3R8XL47AC5HK0DjOFcUxJHDUR4ILOwBG/5aLahfq+dehm2MmKXN+P+jcN9Vm48dn0H8wI52kHSMbqaLYCfLOM8Ag2G/ISJMn8mwKAlUZ7jbLHkj3wy6jA9lTFwT6Oh0Qqb3zCG1gEUJGDuRTHFGvGN2XQnjk5Y1TNIDrbiazOG60sZdOTu8F0BnJj0GCSZWeai4d3jKdHMcWrUh/zJFKe7yNKy5RU1Wuhu8Yqi+dlnoxbRog147Xa8ugbJkifMhjxYN9ofv7scy/KknjZ4ihLZM8amp6Ca834nilgsp4ecZZuTZeLOI1zYfohhh7fLGXDSCVcVjXrxqgx8Zw51u0c7JK381HRjcfbwtvUaDZ35pUMcYtgDEm8iZ+NIG8u1tBrcVoqNZ3jG7XhRJAhYp0VJCqqYHot+B92hRgufvUkOtODumWNjLmKM+Eop/nkmBodwshMu1hSXlCisnjr8SnYc6ntxmOsa87jMSqeOvpupjnxxEjJisZt/mqciwuqz46Zp2N/CIg6XALOem9FyC+RX3T1znD/5kvF/sJC84EEnmvuDNWCzM3DfQrx4K+6ZNfZPS3LxP5XctwIcRYKJOoRDTOYKwIpCnOmhAThvlIrUvKcc1V042MbyXpOO/v8d9bAyRdxezuavY1VxgGMsDuxupIfh1Hmc7UWXlXpzlwdRBqREIzeORiRzM3FNQYCij7/dhf+UUIghIEty0DbAOKYz6bB2CZ7ZJ0eKrFLCKk2me/AiU8EnX1ZWvAkHOI1cytNw+Psc6xRMhMOF8udZalUGQ0YMZqRiWz2juVqYRc7Z+uDKC4pEqRT7mh7EmZDFuvxX24MEM9I41Ys+0YkXKvmcKiAmPf57lSxn1mpQnk7/C7PzuSCb+yzDJZQSlkcgx5m5yIxHwPEO8lKlB2n5eGQrY9wSA2umY6UMu2iXpsBiZ4/oKkwgmy2TKVW0KMiBFvJLYlnXldsH0etAWSqfxnTb8YtAW9Nw5KkKzj1vggl58QH2bJqYpbnY2yzfbIiCwrK6cKydBkrMHO+gMTyXRR4Az1fiBI9p92CYmY7vzeN2Np0G87KoE2Qeb6ZFITeexpKyoWwZo91N1K8zz6QPuXG4DXMy+eTguy6bLpeVR6/jMMXvozwNfXY0S5gjWF5AA17ukYYjULZKgt2F1Ggan59lXX+wOskdLkrkM/VypgfzMseWUZCJKAOiDRzi+3LjkJtAsmBeJ0iLwg1FeO8k41RwcCheeO3zeszPkhTB54vuncFJDT/6hAyhMvzbAsxIk3SGRBONBA+0SNofb0Uh9jZxX8MZg+J1XWwucjwLE1EjYQvu9kHyWtweDgmW3TbEmxRaMNZqMDUJfw16v5MxROmxNI8c9i4J49nsWOoH3zvJZ4nMP6EoFbm9HrPSJfngTg89c9NT+ew2++vP+SaoTETFVNxawvJGgxaLc3C2R2oQ0eqp2HaObxTyuISiEhX5jAIW5UiKhRrykLFZkI1eO2NxlUs43HSSr4hJk5fCgiy8UCnOYOi1WJJDhkpiTPOsNBQl4e81CsRchKjEWUs/9T6DQ5KWlu0uGhwtzEaPZG0dbidDksUjxD4gKdHehcigAwp8qrIM4bi0yRGTDvfMxIZq9HIr0DABIRKW4C10/pVSHGyV1NlbXXST5meTs2WVsJIqePew+PZV0CiyeLokFy8fDmrp1+BVVf8QjkoOv1ldTJLa1yL1PMERuqKMvQ6kRWNqslTzPuikjmx+FmxOSTUtGvpQlkpjAgUw6ZFoxoenAxwWpScJdtskzbD7KIjHtYV46zjP7dYnJHTCAnCul3zJ81apy3Y2F3WpczJp2MUW7+ZjXwv+dT4MinwmczJJWG3+PfEEE6mqoY9DrphBi2/MxsYzfLIHgiOkwnIL9MmuKcWRdqmzwA43fWrTU5EShY5BRue0zwGjjp5sBdBoMCMVfzky/l9z47yLNh1okFxyB8At09DvwI7giuFwIqTC8uV4xRmpI5Nu7V0eNFmQEYtpKWQC2aY99zXjW1dx3Gh0IgoSUdWJE6Pzl7Qa6o7zE8h8Stwg3cfMNNLomyfknrgaQ6iF5esQF+Yg2sDh6RS8G8oLoI/SI4jYi+sSTg/aB/DVMqktCZLFOXihctjviTeRq+4WsL9F6jjXR7IZd80k10qRkeBIwkBYvqTW20qpL2OQwuX0OUhepanIiUOPTXQne7wDq4qQx1RyQiwJZjhc+LyBDFVJCmal43QXTnVJrRTnw6DFN6/CnkY6oeKEgbAA2N1kJ+4oo66ByxqW04PGPnKY5mRCr0WPXZzXdawD352r0NTD4lz8o4YGpBpNsHtFB8k/lZFrtaWO2wnFEB7C8pWXEQRUFONoOzdvoMeOFm8BiLJU8u6Dn4xo6ceURBKlAhh0KE7Gi5U43c1zLuD6QmTGYn0VH+MnnhDWUx+PW6YhOQqvH+PsaaZEkbb0WupogiwvlhWL6vsQp4gX7/Kg4Gmedc/mZuLaArx0kLEuNw/CxmL5qOlGeRp5G2L3cp4Ym4tGBnYX2YapydQt9jsCdI4DQ3TAyiKezfCHVkNjw8Oc4jlLk3HTNLx6VHmHfSRhJixfuNWiHGTHSYqrGZcBJ8nL4iCnflY6jUOH3KN2RB/D/hb88yzGiuJiqe7ClrMczjMlAXfMwJvH0BaiffkuEn7C8gjkwl+dR50Rd235rFfLAJr6SVglKShKhFkPj2ec4f0EadPc2d+CTZK3nJ2SgDvL8c4JPtOq0gg/YfnuaPV5LM9HRows2vK5Nd02nOul77FGFCVjeiqSzDDpAQFDngsd5akuXJOPKVxLeY/LB6eHS8Ox4VPV+6dQK2Gjcn6EmfM+EpMO987GeSs+qFaiZotZTz5+ShT1fTEGDHqXtAeHUJyED+5m3Bc+eG54FZ+dY397STLWTCdbVRcuWyGHpcXy4RbIpV2QhRmp5ILIPWx2eUhJ7YOo78OZHvTY4HLDoCUnLDlK3qgHqxP//jF7asOcDHy5BG8eR33oe8BLhLHF8qHT4PbpSDTjreMhGzynRuH0D2X04jefQcXrjO+9rgBzMvHXY3yq8fAjjC2WDwGoOk/ez03TyCUKibasLrJbI2tf8eVPlSwVqgxaeuRy4/HqUfTwWArjStgLy0ddLzk9/zQDFgdjjXyJVLbizjI+m2VczkNbRM8OJJnJAbU58dYJPsvVvIkQYfn2qjjTg1unIS0aZ3ugUCDkRTwCanvoXnKncxAPbhE3Opmegntm4kALNp0N1YpNQCJHWL7Z8CPtmJWOL+WjoU+OcmETcaYHC7NQksL5tB9U492g6ysbtFhdjCW5eKeKsRC1UkSUsHxjN19FqDvKIAhoUnYcdKAV35/Peerh6b3BFufIicPXZ8PpxhvHJeWsKkKkCctH6wBOdmJZHuZnk7YUM11dNnJulnJNm77/48D53AYtVk3BDUX4rA5b6xVLiJBC2E83TIAGWJiNFYX0xG+vV6gEQ4IJp3/IuMHn5dR0oeTZAMeUpaKimJ6fjbUhjFYQS2RarEs09+NoO8rTsKqIhkhc9wgdH4ebRqZsafKX89YJfOS//kx6NO6Yjhlp+EcNdjUqkBfPkUi2WCPJj6fHWqfFp3VyLS9eQqtB5b/wCQO8fT02VI/zeoKJLHFpCnbUYx9TGfNQM1mE5aM8DSsKyKhsO4dauaprEtfkY/u3pZ7E7UHqE2OjphJNNOad6a1VtLNxoqie8GZyCetC+lQalufTU767kYaQMj3ub38Vd06452VA9jZhyZ+Hf82KxdJclKSQpPY0M+7AGzZMOmH50Hg3tbo6D6nRqGzFwVYOlbTGUJiIqn9DlIQKco9+jke2Qa8hL2pBNhLN2NeMA62Ra6VGEuHO+wR02XC4HWd6UJCAL5eQDjQa9Ni4GbBeO6nqmgL2M7xQSW1bU4pYI0nq7zWo74uIqYRgmKQWawwGLaanYnYG8uJR14NTXTjdxWGJLcaA6vsYd1MfcuMnn5D0j7TzyaYMM64MYV3CrEdZKo22piSiw4qzPTjXiyYLe+WIe2fhtdtZ3vhxDW5+k/GikcAVJqxL6DXIT0BREnWRGTHotKK5H60D6Bign4Ovn64Bdv8fluL16zbjqT2i3xU5XKnCGoleSyOynDhkxpLIUqK9xSNt6HXA4sDgEKxOcqjtLvLPnBc1p9XAqINBh2V5ePkroj/JWc+H+SqyRFRhjUe8CUlm+h5vIkcqxgCTnrpRDYbz7gVAEKgPdbjwnTm4eZqI87cNIPtJJQL5Qwen7ZYnGRbHqN2jA7K7EdU/pMFdkGw5O7lVFaJy3JOPlgE8vlPE8SEq1KEkqrA48eQXqAt6EYlL0nN4owqLE3Y3HtwS1JFVnZL2V4oQVGHx472T2BZE0ukVYK5UYfHm/o1wB5prvQIcLFVYvDnagZcm3FDd5cF2Can0kYMqLN48vHWitb89TbBEdjxMkKjC4k2nFb/a7vevV4aDpQpLHv64H9V+KhJeGQ6WKix5cHqwdrzdpi0O7G0OQXtCgSosefi4Fh/XjH1x27lJE8cXEFVYsrF289gg4z9VhqwxijN5Q5NDTpcN+5oxPwtpMWi2YN1mvF0V6japqEQ4aleoIguqsFRkQRWWiiyowlKRBVVYKrKgCktFFlRhqciCKiwVWVCFpSILqrBUZEEVloosqMJSkYX/HwAA//9GqLEozGoaKQAAAABJRU5ErkJggg==;" vertex="1" parent="3ofdXOLbKWFfFdMxITbS-156">
          <mxGeometry y="7" width="40" height="40" as="geometry" />
        </mxCell>
        <mxCell id="3ofdXOLbKWFfFdMxITbS-155" value="" style="group" vertex="1" connectable="0" parent="3ofdXOLbKWFfFdMxITbS-156">
          <mxGeometry x="50" width="160" height="50" as="geometry" />
        </mxCell>
        <mxCell id="3ofdXOLbKWFfFdMxITbS-153" value="&lt;span style=&quot;color: rgb(0, 0, 0); font-family: Helvetica; font-style: normal; font-variant-ligatures: normal; font-variant-caps: normal; font-weight: 400; letter-spacing: normal; orphans: 2; text-align: center; text-indent: 0px; text-transform: none; widows: 2; word-spacing: 0px; -webkit-text-stroke-width: 0px; white-space: normal; background-color: rgb(236, 236, 236); text-decoration-thickness: initial; text-decoration-style: initial; text-decoration-color: initial; float: none; display: inline !important;&quot;&gt;Pinocchio Group&lt;/span&gt;" style="text;whiteSpace=wrap;html=1;fontSize=16;" vertex="1" parent="3ofdXOLbKWFfFdMxITbS-155">
          <mxGeometry y="20" width="160" height="30" as="geometry" />
        </mxCell>
        <mxCell id="3ofdXOLbKWFfFdMxITbS-154" value="&lt;span style=&quot;color: rgb(0, 0, 0); font-style: normal; font-variant-ligatures: normal; font-variant-caps: normal; font-weight: 400; letter-spacing: normal; orphans: 2; text-align: center; text-indent: 0px; text-transform: none; widows: 2; word-spacing: 0px; -webkit-text-stroke-width: 0px; white-space: normal; background-color: rgb(236, 236, 236); text-decoration-thickness: initial; text-decoration-style: initial; text-decoration-color: initial; float: none; display: inline !important;&quot;&gt;&lt;font face=&quot;Garamond&quot; style=&quot;&quot;&gt;BURHAN KHAJA&lt;/font&gt;&lt;/span&gt;" style="text;whiteSpace=wrap;html=1;fontSize=16;" vertex="1" parent="3ofdXOLbKWFfFdMxITbS-155">
          <mxGeometry width="160" height="30" as="geometry" />
        </mxCell>
        <mxCell id="3ofdXOLbKWFfFdMxITbS-150" value="&lt;div style=&quot;text-align: center;&quot;&gt;&lt;span style=&quot;font-size: 48px;&quot;&gt;deep dive&lt;/span&gt;&lt;/div&gt;" style="text;whiteSpace=wrap;html=1;fillColor=none;strokeColor=none;rounded=0;shadow=0;glass=0;fontFamily=Garamond;" vertex="1" parent="1">
          <mxGeometry x="-770" y="367.5" width="190" height="65" as="geometry" />
        </mxCell>
        <mxCell id="3ofdXOLbKWFfFdMxITbS-149" value="&lt;span style=&quot;color: rgb(0, 0, 0); font-size: 48px; font-style: normal; font-variant-ligatures: normal; font-variant-caps: normal; font-weight: 400; letter-spacing: normal; orphans: 2; text-align: center; text-indent: 0px; text-transform: none; widows: 2; word-spacing: 0px; -webkit-text-stroke-width: 0px; white-space: normal; background-color: rgb(236, 236, 236); text-decoration-thickness: initial; text-decoration-style: initial; text-decoration-color: initial; float: none; display: inline !important;&quot;&gt;&lt;font face=&quot;Helvetica&quot;&gt;LIQUIDATIONS&lt;/font&gt;&lt;/span&gt;" style="text;whiteSpace=wrap;html=1;fillColor=none;strokeColor=none;rounded=0;shadow=0;glass=0;" vertex="1" parent="1">
          <mxGeometry x="-770" y="310" width="430" height="65" as="geometry" />
        </mxCell>
      </root>
    </mxGraphModel>
  </diagram>
</mxfile>
